<?xml version="1.0" encoding="UTF-8" standalone="no"?>
<svg
   height="48"
   viewBox="0 -960 1200 960"
   width="60"
   fill="#5f6368"
   version="1.1"
   id="svg1"
   sodipodi:docname="book_48dp_5F6368_FILL0_wght200_GRAD0_opsz48.svg"
   inkscape:version="1.3.2 (091e20e, 2023-11-25, custom)"
   xmlns:inkscape="http://www.inkscape.org/namespaces/inkscape"
   xmlns:sodipodi="http://sodipodi.sourceforge.net/DTD/sodipodi-0.dtd"
   xmlns="http://www.w3.org/2000/svg"
   xmlns:svg="http://www.w3.org/2000/svg">
  <defs
     id="defs1" />
  <sodipodi:namedview
     id="namedview1"
     pagecolor="#ffffff"
     bordercolor="#666666"
     borderopacity="1.0"
     inkscape:showpageshadow="2"
     inkscape:pageopacity="0.0"
     inkscape:pagecheckerboard="true"
     inkscape:deskcolor="#d1d1d1"
     inkscape:zoom="14.481547"
     inkscape:cx="16.710922"
     inkscape:cy="21.372026"
     inkscape:window-width="1920"
     inkscape:window-height="1129"
     inkscape:window-x="1912"
     inkscape:window-y="-8"
     inkscape:window-maximized="1"
     inkscape:current-layer="layer1" />
  <g
     inkscape:groupmode="layer"
     id="layer1"
     inkscape:label="Layer 1">
    <path
       d="m 375.38,-120 q -23.05,0 -39.22,-16.16 Q 320,-152.33 320,-175.38 v -609.24 q 0,-23.05 16.16,-39.22 16.17,-16.16 39.22,-16.16 h 449.24 q 23.05,0 39.22,16.16 16.16,16.17 16.16,39.22 v 609.24 q 0,23.05 -16.16,39.22 -16.17,16.16 -39.22,16.16 z m 0,-30.77 h 449.24 q 9.23,0 16.92,-7.69 7.69,-7.69 7.69,-16.92 v -609.24 q 0,-9.23 -7.69,-16.92 -7.69,-7.69 -16.92,-7.69 h -46.16 v 238.31 l -78.54,-46 -78.54,46 v -238.31 h -246 q -9.23,0 -16.92,7.69 -7.69,7.69 -7.69,16.92 v 609.24 q 0,9.23 7.69,16.92 7.69,7.69 16.92,7.69 z m -24.61,0 v -658.46 z m 270.61,-420.15 78.54,-46 78.54,46 -78.54,-46 z"
       id="path1"
       style="display:inline" />
    <path
       style="display:inline;fill:#ff6600;fill-opacity:1;stroke-width:47.3706"
       d="m 367.14627,-153.30114 c -5.86258,-2.55876 -14.19618,-12.27708 -15.16202,-17.6814 -0.4492,-2.51398 -0.6398,-143.20944 -0.4234,-312.6566 l 0.39368,-308.08574 3.79476,-4.97512 c 2.08714,-2.73632 5.81602,-6.41679 8.28642,-8.17883 l 4.49162,-3.2037 126.01482,-0.36662 126.01482,-0.3666 0.353,119.46347 0.3528,119.46348 36.5983,-21.52452 c 20.12906,-11.8385 37.9211,-22.14916 39.53786,-22.91258 2.50446,-1.1826 8.7392,2.00358 42.12258,21.5263 l 39.183,22.91438 0.3528,-119.44392 0.353,-119.44392 h 24.20542 c 17.52042,0 25.43278,0.52664 28.64952,1.90692 5.416,2.32394 12.7294,9.82799 14.71742,15.10107 2.06104,5.46672 2.06104,617.90563 0,623.37235 -1.988,5.27308 -9.30142,12.77714 -14.71742,15.10108 -6.43232,2.76004 -458.79458,2.7508 -465.11898,-0.01 z"
       id="path2" />
  </g>
</svg>
