<?xml version="1.0" encoding="UTF-8" standalone="no"?>
<!-- Created with Inkscape (http://www.inkscape.org/) -->

<svg
   width="640"
   height="512"
   viewBox="0 0 169.33333 135.46667"
   version="1.1"
   id="svg1"
   inkscape:version="1.4 (86a8ad7, 2024-10-11)"
   sodipodi:docname="books.svg"
   xmlns:inkscape="http://www.inkscape.org/namespaces/inkscape"
   xmlns:sodipodi="http://sodipodi.sourceforge.net/DTD/sodipodi-0.dtd"
   xmlns="http://www.w3.org/2000/svg"
   xmlns:svg="http://www.w3.org/2000/svg">
  <sodipodi:namedview
     id="namedview1"
     pagecolor="#ffffff"
     bordercolor="#111111"
     borderopacity="1"
     inkscape:showpageshadow="0"
     inkscape:pageopacity="0"
     inkscape:pagecheckerboard="1"
     inkscape:deskcolor="#d1d1d1"
     inkscape:document-units="px"
     showborder="false"
     inkscape:zoom="1.08"
     inkscape:cx="396.2963"
     inkscape:cy="293.05556"
     inkscape:window-width="1920"
     inkscape:window-height="1094"
     inkscape:window-x="-11"
     inkscape:window-y="-11"
     inkscape:window-maximized="1"
     inkscape:current-layer="layer1" />
  <defs
     id="defs1" />
  <g
     inkscape:label="Layer 1"
     inkscape:groupmode="layer"
     id="layer1">
    <rect
       style="fill:#ff00ff;stroke:#030303;stroke-width:6.32208;stroke-linejoin:round;stroke-dasharray:none;paint-order:fill markers stroke"
       id="rect1"
       width="150.73944"
       height="24.817379"
       x="3.3144188"
       y="107.09967" />
    <rect
       style="fill:#ff7f2a;stroke:#030303;stroke-width:6.61458;stroke-linejoin:round;stroke-dasharray:none;paint-order:fill markers stroke"
       id="rect2"
       width="143.09685"
       height="22.809408"
       x="21.668213"
       y="77.681488" />
    <rect
       style="fill:#55d400;stroke:#030303;stroke-width:5.75604;stroke-linejoin:round;stroke-dasharray:none;paint-order:fill markers stroke"
       id="rect3"
       width="112.72859"
       height="19.389473"
       x="41.262058"
       y="51.864994" />
    <rect
       style="fill:#ffff00;stroke:#030303;stroke-width:5.80717;stroke-linejoin:round;stroke-dasharray:none;paint-order:fill markers stroke"
       id="rect4"
       width="91.862312"
       height="19.591871"
       x="42.753254"
       y="3.5557222" />
    <rect
       style="fill:#00ffff;stroke:#030303;stroke-width:6.05338;stroke-linejoin:round;stroke-dasharray:none;paint-order:fill markers stroke"
       id="rect5"
       width="100.02494"
       height="16.730179"
       x="20.543089"
       y="29.11755" />
    <path
       style="fill:#000000;stroke:#030303;stroke-width:1.47585;stroke-linecap:butt;stroke-linejoin:round;stroke-dasharray:none;stroke-dashoffset:0;paint-order:fill markers stroke"
       id="path5"
       d="m 51.762481,5.478601 c 0.07616,1.0817026 0.0977,2.1765162 0.112658,3.2681965 0.01807,1.2396295 0.01684,2.4797935 0.01924,3.7198295 -9.28e-4,1.205866 -0.0019,2.411744 -0.0063,3.617588 -0.0021,1.157474 0.0042,2.315 0.0045,3.472534 -0.0017,1.117737 -0.0024,2.235501 -0.007,3.353212 -6.38e-4,0.143244 -0.0012,0.286486 -0.0019,0.429729 0,0 1.971925,-2.102398 1.971925,-2.102398 v 0 c -6.38e-4,-0.141926 -0.0012,-0.283851 -0.0019,-0.425776 -0.0045,-1.112756 -0.0053,-2.225564 -0.007,-3.338347 2.98e-4,-1.160826 0.0067,-2.321631 0.005,-3.482401 -0.0038,-1.202073 -0.0038,-2.404164 -0.0051,-3.60625 0.0012,-1.2478706 0.0016,-2.4963072 -0.01364,-3.7437687 -0.02281,-1.1110865 -0.05431,-2.2208061 -0.09921,-3.329053 z" />
    <path
       style="fill:#000000;stroke:#030303;stroke-width:1.47585;stroke-linecap:butt;stroke-linejoin:round;stroke-dasharray:none;stroke-dashoffset:0;paint-order:fill markers stroke"
       id="path6"
       d="m 58.13208,5.478601 c 0.07616,1.0817026 0.0977,2.1765162 0.112658,3.2681965 0.01807,1.2396295 0.01684,2.4797935 0.01924,3.7198295 -9.28e-4,1.205866 -0.0019,2.411744 -0.0063,3.617588 -0.0021,1.157474 0.0042,2.315 0.0045,3.472534 -0.0017,1.117737 -0.0024,2.235501 -0.007,3.353212 -6.38e-4,0.143244 -0.0012,0.286486 -0.0019,0.429729 0,0 1.971925,-2.102398 1.971925,-2.102398 v 0 c -6.38e-4,-0.141926 -0.0012,-0.283851 -0.0019,-0.425776 -0.0045,-1.112756 -0.0053,-2.225564 -0.007,-3.338347 2.98e-4,-1.160826 0.0067,-2.321631 0.005,-3.482401 -0.0038,-1.202073 -0.0038,-2.404164 -0.0051,-3.60625 0.0012,-1.2478706 0.0016,-2.4963072 -0.01364,-3.7437687 -0.02281,-1.1110865 -0.05431,-2.2208061 -0.09921,-3.329053 z" />
    <path
       style="fill:#000000;stroke:#030303;stroke-width:1.47585;stroke-linecap:butt;stroke-linejoin:round;stroke-dasharray:none;stroke-dashoffset:0;paint-order:fill markers stroke"
       id="path7"
       d="m 99.044503,29.732073 c 0.07616,1.081703 0.0977,2.176516 0.112658,3.268197 0.01807,1.239629 0.01684,2.479793 0.01924,3.719829 -9.28e-4,1.205866 -0.0019,2.411744 -0.0063,3.617588 -0.0021,1.157474 0.0042,2.315 0.0045,3.472534 -0.0017,1.117737 -0.0024,2.235501 -0.007,3.353212 -6.38e-4,0.143244 -0.0012,0.286486 -0.0019,0.429729 0,0 1.971929,-2.102398 1.971929,-2.102398 v 0 c -6.4e-4,-0.141926 -0.001,-0.283851 -0.002,-0.425776 -0.004,-1.112756 -0.005,-2.225564 -0.007,-3.338347 2.9e-4,-1.160826 0.007,-2.321631 0.005,-3.482401 -0.004,-1.202073 -0.004,-2.404164 -0.005,-3.60625 0.001,-1.24787 0.002,-2.496307 -0.0136,-3.743768 -0.0228,-1.111087 -0.0543,-2.220807 -0.0992,-3.329053 z" />
    <path
       style="fill:#000000;stroke:#030303;stroke-width:1.47585;stroke-linecap:butt;stroke-linejoin:round;stroke-dasharray:none;stroke-dashoffset:0;paint-order:fill markers stroke"
       id="path8"
       d="m 105.4141,29.732073 c 0.0762,1.081703 0.0977,2.176516 0.11266,3.268197 0.0181,1.239629 0.0168,2.479793 0.0192,3.719829 -9.3e-4,1.205866 -0.002,2.411744 -0.006,3.617588 -0.002,1.157474 0.004,2.315 0.005,3.472534 -0.002,1.117737 -0.002,2.235501 -0.007,3.353212 -6.4e-4,0.143244 -0.001,0.286486 -0.002,0.429729 0,0 1.97192,-2.102398 1.97192,-2.102398 v 0 c -6.3e-4,-0.141926 -0.001,-0.283851 -0.002,-0.425776 -0.004,-1.112756 -0.005,-2.225564 -0.007,-3.338347 3e-4,-1.160826 0.007,-2.321631 0.005,-3.482401 -0.004,-1.202073 -0.004,-2.404164 -0.005,-3.60625 0.001,-1.24787 0.002,-2.496307 -0.0136,-3.743768 -0.0228,-1.111087 -0.0543,-2.220807 -0.0992,-3.329053 z" />
    <path
       style="fill:#000000;stroke:#030303;stroke-width:1.47585;stroke-linecap:butt;stroke-linejoin:round;stroke-dasharray:none;stroke-dashoffset:0;paint-order:fill markers stroke"
       id="path9"
       d="m 62.051833,53.495576 c 0.07616,1.081703 0.0977,2.176516 0.112658,3.268197 0.01807,1.239629 0.01684,2.479793 0.01924,3.719829 -9.28e-4,1.205866 -0.0019,2.411744 -0.0063,3.617588 -0.0021,1.157474 0.0042,2.315 0.0045,3.472534 -0.0017,1.117737 -0.0024,2.235501 -0.007,3.353212 -6.38e-4,0.143244 -0.0012,0.286486 -0.0019,0.429729 0,0 1.971929,-2.102398 1.971929,-2.102398 v 0 c -6.4e-4,-0.141926 -10e-4,-0.283851 -0.002,-0.425776 -0.004,-1.112756 -0.005,-2.225564 -0.007,-3.338347 2.9e-4,-1.160826 0.007,-2.321631 0.005,-3.482401 -0.004,-1.202073 -0.004,-2.404164 -0.005,-3.60625 0.001,-1.24787 0.002,-2.496307 -0.0136,-3.743768 -0.0228,-1.111087 -0.0543,-2.220807 -0.0992,-3.329053 z" />
    <path
       style="fill:#000000;stroke:#030303;stroke-width:1.47585;stroke-linecap:butt;stroke-linejoin:round;stroke-dasharray:none;stroke-dashoffset:0;paint-order:fill markers stroke"
       id="path10"
       d="m 68.42143,53.495576 c 0.0762,1.081703 0.0977,2.176516 0.11266,3.268197 0.0181,1.239629 0.0168,2.479793 0.0192,3.719829 -9.3e-4,1.205866 -0.002,2.411744 -0.006,3.617588 -0.002,1.157474 0.004,2.315 0.005,3.472534 -0.002,1.117737 -0.002,2.235501 -0.007,3.353212 -6.4e-4,0.143244 -10e-4,0.286486 -0.002,0.429729 0,0 1.97192,-2.102398 1.97192,-2.102398 v 0 c -6.3e-4,-0.141926 -10e-4,-0.283851 -0.002,-0.425776 -0.004,-1.112756 -0.005,-2.225564 -0.007,-3.338347 3e-4,-1.160826 0.007,-2.321631 0.005,-3.482401 -0.004,-1.202073 -0.004,-2.404164 -0.005,-3.60625 0.001,-1.24787 0.002,-2.496307 -0.0136,-3.743768 -0.0228,-1.111087 -0.0543,-2.220807 -0.0992,-3.329053 z" />
    <path
       style="fill:#000000;stroke:#030303;stroke-width:1.47585;stroke-linecap:butt;stroke-linejoin:round;stroke-dasharray:none;stroke-dashoffset:0;paint-order:fill markers stroke"
       id="path11"
       d="m 38.28833,81.668801 c 0.07616,1.081703 0.0977,2.176516 0.112658,3.268197 0.01807,1.239629 0.01684,2.479793 0.01924,3.719829 -9.28e-4,1.205866 -0.0019,2.411744 -0.0063,3.617588 -0.0021,1.157474 0.0042,2.315 0.0045,3.472534 -0.0017,1.117737 -0.0024,2.235501 -0.007,3.353212 -6.38e-4,0.143244 -0.0012,0.286486 -0.0019,0.429729 0,0 1.971929,-2.102398 1.971929,-2.102398 v 0 c -6.4e-4,-0.141926 -10e-4,-0.283851 -0.002,-0.425776 -0.004,-1.112756 -0.005,-2.225564 -0.007,-3.338347 2.9e-4,-1.160826 0.007,-2.321631 0.005,-3.482401 -0.004,-1.202073 -0.004,-2.404164 -0.005,-3.60625 0.001,-1.24787 0.002,-2.496307 -0.0136,-3.743768 -0.0228,-1.111087 -0.0543,-2.220807 -0.0992,-3.329053 z" />
    <path
       style="fill:#000000;stroke:#030303;stroke-width:1.47585;stroke-linecap:butt;stroke-linejoin:round;stroke-dasharray:none;stroke-dashoffset:0;paint-order:fill markers stroke"
       id="path12"
       d="m 44.657927,81.668801 c 0.0762,1.081703 0.0977,2.176516 0.11266,3.268197 0.0181,1.239629 0.0168,2.479793 0.0192,3.719829 -9.3e-4,1.205866 -0.002,2.411744 -0.006,3.617588 -0.002,1.157474 0.004,2.315 0.005,3.472534 -0.002,1.117737 -0.002,2.235501 -0.007,3.353212 -6.4e-4,0.143244 -0.001,0.286486 -0.002,0.429729 0,0 1.97192,-2.102398 1.97192,-2.102398 v 0 c -6.3e-4,-0.141926 -0.001,-0.283851 -0.002,-0.425776 -0.004,-1.112756 -0.005,-2.225564 -0.007,-3.338347 3e-4,-1.160826 0.007,-2.321631 0.005,-3.482401 -0.004,-1.202073 -0.004,-2.404164 -0.005,-3.60625 10e-4,-1.24787 0.002,-2.496307 -0.0136,-3.743768 -0.0228,-1.111087 -0.0543,-2.220807 -0.0992,-3.329053 z" />
    <path
       style="fill:#000000;stroke:#030303;stroke-width:1.58341;stroke-linecap:butt;stroke-linejoin:round;stroke-dasharray:none;stroke-dashoffset:0;paint-order:fill markers stroke"
       id="path13"
       d="m 131.19125,110.50022 c 0.0752,1.26114 0.0965,2.53756 0.11123,3.81033 0.0179,1.44526 0.0166,2.89114 0.019,4.33688 -9.2e-4,1.4059 -0.002,2.8118 -0.006,4.21767 -0.002,1.34948 0.004,2.69902 0.005,4.04856 -0.002,1.30315 -0.002,2.60633 -0.007,3.90944 -6.3e-4,0.16701 -9.9e-4,0.33402 -0.002,0.50102 0,0 1.94688,-2.45114 1.94688,-2.45114 v 0 c -6.4e-4,-0.16547 -9.9e-4,-0.33095 -0.002,-0.49641 -0.004,-1.29734 -0.005,-2.59474 -0.007,-3.89212 2.9e-4,-1.35337 0.007,-2.70674 0.005,-4.06006 -0.004,-1.40147 -0.004,-2.80296 -0.005,-4.20446 9.9e-4,-1.45486 0.002,-2.91039 -0.0134,-4.36478 -0.0225,-1.29539 -0.0536,-2.58919 -0.0979,-3.88128 z" />
    <path
       style="fill:#000000;stroke:#030303;stroke-width:1.58341;stroke-linecap:butt;stroke-linejoin:round;stroke-dasharray:none;stroke-dashoffset:0;paint-order:fill markers stroke"
       id="path14"
       d="m 137.47991,110.50022 c 0.0752,1.26114 0.0965,2.53756 0.11123,3.81033 0.0179,1.44526 0.0166,2.89114 0.019,4.33688 -9.2e-4,1.4059 -0.002,2.8118 -0.006,4.21767 -0.002,1.34948 0.004,2.69902 0.005,4.04856 -0.002,1.30315 -0.002,2.60633 -0.007,3.90944 -6.3e-4,0.16701 -9.9e-4,0.33402 -0.002,0.50102 0,0 1.94687,-2.45114 1.94687,-2.45114 v 0 c -6.3e-4,-0.16547 -9.9e-4,-0.33095 -0.002,-0.49641 -0.004,-1.29734 -0.005,-2.59474 -0.007,-3.89212 3e-4,-1.35337 0.007,-2.70674 0.005,-4.06006 -0.004,-1.40147 -0.004,-2.80296 -0.005,-4.20446 9.9e-4,-1.45486 0.002,-2.91039 -0.0134,-4.36478 -0.0225,-1.29539 -0.0536,-2.58919 -0.0979,-3.88128 z" />
  </g>
</svg>
