<?xml version="1.0" encoding="UTF-8" standalone="no"?>
<svg
   height="48"
   viewBox="0 -960 1200 960"
   width="60"
   fill="#5f6368"
   version="1.1"
   id="svg1"
   sodipodi:docname="book_60dp_5F6368_FILL0_wght300_GRAD0_opsz48.svg"
   inkscape:version="1.3.2 (091e20e, 2023-11-25, custom)"
   xmlns:inkscape="http://www.inkscape.org/namespaces/inkscape"
   xmlns:sodipodi="http://sodipodi.sourceforge.net/DTD/sodipodi-0.dtd"
   xmlns="http://www.w3.org/2000/svg"
   xmlns:svg="http://www.w3.org/2000/svg">
  <defs
     id="defs1" />
  <sodipodi:namedview
     id="namedview1"
     pagecolor="#ffffff"
     bordercolor="#666666"
     borderopacity="1.0"
     inkscape:showpageshadow="2"
     inkscape:pageopacity="0.0"
     inkscape:pagecheckerboard="true"
     inkscape:deskcolor="#d1d1d1"
     inkscape:zoom="18.5625"
     inkscape:cx="24.026936"
     inkscape:cy="24"
     inkscape:window-width="1920"
     inkscape:window-height="1129"
     inkscape:window-x="1912"
     inkscape:window-y="-8"
     inkscape:window-maximized="1"
     inkscape:current-layer="svg1" />
  <path
     d="m 357.69,-100 q -23.53,0 -40.61,-17.08 Q 300,-134.16 300,-157.69 v -644.62 q 0,-23.53 17.08,-40.61 17.08,-17.08 40.61,-17.08 h 484.62 q 23.53,0 40.61,17.08 17.08,17.08 17.08,40.61 v 644.62 q 0,23.53 -17.08,40.61 -17.08,17.08 -40.61,17.08 z m 0,-45.39 h 484.62 q 4.61,0 8.46,-3.84 3.84,-3.85 3.84,-8.46 v -644.62 q 0,-4.61 -3.84,-8.46 -3.85,-3.84 -8.46,-3.84 h -53.08 v 252.15 l -87.77,-51 -87.77,51 v -252.15 h -256 q -4.61,0 -8.46,3.84 -3.84,3.85 -3.84,8.46 v 644.62 q 0,4.61 3.84,8.46 3.85,3.84 8.46,3.84 z m -12.3,0 v -669.22 z m 268.3,-417.07 87.77,-51 87.77,51 -87.77,-51 z"
     id="path1" />
  <path
     style="fill:#ff6600;stroke-width:1.84781"
     d="M 17.50208,40.491187 17.292929,40.282036 V 24 7.717964 L 17.50208,7.5088136 17.71123,7.2996633 h 6.470984 6.470985 v 6.3030307 c 0,3.466666 0.01097,6.30303 0.02437,6.30303 0.0134,0 1.007917,-0.571886 2.210032,-1.270858 l 2.185664,-1.270858 2.162472,1.25739 c 1.18936,0.691565 2.182724,1.265471 2.207476,1.275347 0.02475,0.0099 0.045,-2.820426 0.045,-6.289562 V 7.2996633 h 1.393409 c 1.331473,0 1.399765,0.005 1.53643,0.1125008 C 42.744896,7.6692586 42.720539,6.3335254 42.720539,24 c 0,17.666474 0.02436,16.330742 -0.302485,16.587836 l -0.143022,0.112501 H 29.993131 17.71123 Z"
     id="path2"
     transform="matrix(20,0,0,20,0,-960)" />
</svg>
