<?xml version="1.0" encoding="UTF-8" standalone="no"?>
<!-- Created with Inkscape (http://www.inkscape.org/) -->

<svg
   width="640"
   height="512"
   viewBox="0 0 169.33333 135.46667"
   version="1.1"
   id="svg1"
   inkscape:version="1.4 (86a8ad7, 2024-10-11)"
   sodipodi:docname="events_300.svg"
   xml:space="preserve"
   xmlns:inkscape="http://www.inkscape.org/namespaces/inkscape"
   xmlns:sodipodi="http://sodipodi.sourceforge.net/DTD/sodipodi-0.dtd"
   xmlns="http://www.w3.org/2000/svg"
   xmlns:svg="http://www.w3.org/2000/svg"><sodipodi:namedview
     id="namedview1"
     pagecolor="#ffffff"
     bordercolor="#111111"
     borderopacity="1"
     inkscape:showpageshadow="0"
     inkscape:pageopacity="0"
     inkscape:pagecheckerboard="1"
     inkscape:deskcolor="#d1d1d1"
     inkscape:document-units="px"
     showborder="false"
     inkscape:zoom="1.08"
     inkscape:cx="396.75926"
     inkscape:cy="293.05556"
     inkscape:window-width="1920"
     inkscape:window-height="1094"
     inkscape:window-x="-11"
     inkscape:window-y="-11"
     inkscape:window-maximized="1"
     inkscape:current-layer="layer1" /><defs
     id="defs1" /><g
     inkscape:label="Layer 1"
     inkscape:groupmode="layer"
     id="layer1"><path
       d="m 61.91095,64.222953 c -4.872289,0 -9.007747,1.573025 -12.405961,4.718575 -3.399494,3.144384 -5.099431,6.970534 -5.099431,11.478886 0,4.508353 1.699937,8.33502 5.099431,11.479403 3.398214,3.145551 7.533672,4.718058 12.405961,4.718058 4.872288,0 9.007231,-1.572507 12.405444,-4.718058 3.399476,-3.144383 5.099431,-6.97105 5.099431,-11.479403 0,-4.508352 -1.699955,-8.334502 -5.099431,-11.478886 -3.398213,-3.14555 -7.533156,-4.718575 -12.405444,-4.718575 z"
       style="stroke-width:0.182412;fill:#ff0000"
       id="path6" /><path
       d="m 31.569649,56.260132 v 65.867298 c 0,0.54045 0.243392,1.03546 0.730188,1.48466 0.485317,0.4503 1.02016,0.67528 1.604037,0.67541 H 135.42946 c 0.58409,0 1.11858,-0.22497 1.60404,-0.67541 0.4868,-0.4492 0.73018,-0.94421 0.73018,-1.48466 V 56.260132 Z m 30.341301,7.962821 c 4.872288,0 9.007231,1.573025 12.405444,4.718575 3.399476,3.144384 5.099431,6.970534 5.099431,11.478886 0,4.508353 -1.699955,8.33502 -5.099431,11.479403 -3.398213,3.145551 -7.533156,4.718058 -12.405444,4.718058 -4.872289,0 -9.007747,-1.572507 -12.405961,-4.718058 -3.399494,-3.144383 -5.099431,-6.97105 -5.099431,-11.479403 0,-4.508352 1.699937,-8.334502 5.099431,-11.478886 3.398214,-3.14555 7.533672,-4.718575 12.405961,-4.718575 z"
       style="stroke-width:0.182412;fill:#f9f9f9"
       id="path5" /><path
       d="m 31.569649,28.183293 c -10e-7,7.22e-4 -5.16e-4,0.0013 -5.16e-4,0.0021 l 5.16e-4,17.546732 z"
       style="stroke-width:0.182412"
       id="path4" /><path
       d="M 31.569649,28.183293 V 45.732092 H 137.76368 V 28.18536 c 0,-0.540453 -0.24339,-1.03495 -0.73018,-1.484147 -0.48546,-0.450436 -1.02047,-0.675928 -1.60456,-0.675928 H 33.903874 c -0.584082,0 -1.119095,0.225492 -1.604553,0.675928 -0.486147,0.448597 -0.729022,0.942471 -0.729672,1.48208 z"
       style="stroke-width:0.182412;fill:#ff0000"
       id="path3" /><path
       d="M 44.405558,0.65112305 V 15.497245 H 33.903874 c -3.83184,0 -7.075288,1.228484 -9.730156,3.685047 -2.654849,2.456544 -3.982186,5.457448 -3.982186,9.003068 v 93.94207 c 0,3.54562 1.327337,6.54652 3.982186,9.00307 2.654868,2.45654 5.898316,3.68504 9.730156,3.68504 H 135.42946 c 3.83184,0 7.07528,-1.2285 9.73016,-3.68504 2.65484,-2.45655 3.98218,-5.45745 3.98218,-9.00307 V 28.18536 c 0,-3.54562 -1.32734,-6.546524 -3.98218,-9.003068 -2.65488,-2.456563 -5.89832,-3.685047 -9.73016,-3.685047 H 124.92778 V 0.65112305 H 113.54966 V 15.497245 H 56.075647 V 0.65112305 Z M 31.569649,26.025285 v 2.158008 c 6.5e-4,-0.539609 0.243525,-1.033483 0.729672,-1.48208 0.485458,-0.450436 1.020471,-0.675928 1.604553,-0.675928 H 135.42894 c 0.58409,0 1.1191,0.225492 1.60456,0.675928 0.48679,0.449197 0.73018,0.943694 0.73018,1.484147 V 45.732092 H 31.569649 L 31.569133,28.18536 c 0,-7.22e-4 5.15e-4,-0.0013 5.16e-4,-0.0021 z m 0,30.234847 H 137.76368 v 65.867298 c 0,0.54045 -0.24338,1.03546 -0.73018,1.48466 -0.48546,0.45044 -1.01995,0.67541 -1.60404,0.67541 H 33.903874 c -0.583877,-1.3e-4 -1.11872,-0.22511 -1.604037,-0.67541 -0.486796,-0.4492 -0.730188,-0.94421 -0.730188,-1.48466 z"
       style="stroke-width:0.182412"
       id="path2" /></g></svg>
