<?xml version="1.0" encoding="UTF-8" standalone="no"?>
<!-- Created with Inkscape (http://www.inkscape.org/) -->

<svg
   width="640"
   height="512"
   viewBox="0 0 169.33333 135.46667"
   version="1.1"
   id="svg1"
   inkscape:version="1.4 (86a8ad7, 2024-10-11)"
   sodipodi:docname="items_out.svg"
   xml:space="preserve"
   xmlns:inkscape="http://www.inkscape.org/namespaces/inkscape"
   xmlns:sodipodi="http://sodipodi.sourceforge.net/DTD/sodipodi-0.dtd"
   xmlns="http://www.w3.org/2000/svg"
   xmlns:svg="http://www.w3.org/2000/svg"><sodipodi:namedview
     id="namedview1"
     pagecolor="#ffffff"
     bordercolor="#111111"
     borderopacity="1"
     inkscape:showpageshadow="0"
     inkscape:pageopacity="0"
     inkscape:pagecheckerboard="1"
     inkscape:deskcolor="#d1d1d1"
     inkscape:document-units="px"
     showborder="false"
     inkscape:zoom="1.08"
     inkscape:cx="396.75926"
     inkscape:cy="293.05556"
     inkscape:window-width="2880"
     inkscape:window-height="1514"
     inkscape:window-x="5749"
     inkscape:window-y="15"
     inkscape:window-maximized="1"
     inkscape:current-layer="layer1" /><defs
     id="defs1" /><g
     inkscape:label="Layer 1"
     inkscape:groupmode="layer"
     id="layer1"
     transform="matrix(-1,0,0,1,169.33333,0)"><path
       d="M 128.69757,13.973824 V 121.49284 H 40.635242 V 13.973824 H 77.328093 V 61.01333 L 95.67426,50.933325 114.02094,61.01333 V 13.973824 Z"
       style="baseline-shift:baseline;display:inline;overflow:visible;vector-effect:none;fill:#ff6600;enable-background:accumulate;stop-color:#000000;stop-opacity:1"
       id="path5" /><path
       d="m 128.69757,0.53381755 c 4.03616,0 7.49138,1.31610335 10.36577,3.94807945 2.8742,2.6319761 4.31137,5.795972 4.31137,9.491927 V 121.49284 c 0,3.69597 -1.43717,6.85997 -4.31137,9.49193 -2.87439,2.63197 -6.32961,3.94756 -10.36577,3.94756 H 40.635242 c -4.036162,0 -7.491056,-1.31559 -10.365259,-3.94756 -2.874203,-2.63196 -4.311364,-5.79596 -4.311364,-9.49193 V 13.973824 c 0,-3.695955 1.437161,-6.8599509 4.311364,-9.491927 2.874203,-2.6319761 6.329097,-3.94807945 10.365259,-3.94807945 z m 0,13.44000645 H 114.02094 V 61.01333 L 95.67426,50.933325 77.328093,61.01333 V 13.973824 H 40.635242 V 121.49284 h 88.062328 z"
       style="baseline-shift:baseline;display:inline;overflow:visible;vector-effect:none;enable-background:accumulate;stop-color:#000000;stop-opacity:1"
       id="path6" /></g></svg>
