<?xml version="1.0" encoding="UTF-8" standalone="no"?>
<!-- Created with Inkscape (http://www.inkscape.org/) -->

<svg
   width="640"
   height="512"
   viewBox="0 0 169.33333 135.46667"
   version="1.1"
   id="svg1"
   inkscape:version="1.4 (86a8ad7, 2024-10-11)"
   sodipodi:docname="items_out_filled.svg"
   xml:space="preserve"
   xmlns:inkscape="http://www.inkscape.org/namespaces/inkscape"
   xmlns:sodipodi="http://sodipodi.sourceforge.net/DTD/sodipodi-0.dtd"
   xmlns="http://www.w3.org/2000/svg"
   xmlns:svg="http://www.w3.org/2000/svg"><sodipodi:namedview
     id="namedview1"
     pagecolor="#ffffff"
     bordercolor="#111111"
     borderopacity="1"
     inkscape:showpageshadow="0"
     inkscape:pageopacity="0"
     inkscape:pagecheckerboard="1"
     inkscape:deskcolor="#d1d1d1"
     inkscape:document-units="px"
     showborder="false"
     inkscape:zoom="1.08"
     inkscape:cx="396.75926"
     inkscape:cy="293.05556"
     inkscape:window-width="2880"
     inkscape:window-height="1514"
     inkscape:window-x="5749"
     inkscape:window-y="15"
     inkscape:window-maximized="1"
     inkscape:current-layer="layer1" /><defs
     id="defs1" /><g
     inkscape:label="Layer 1"
     inkscape:groupmode="layer"
     id="layer1"><path
       d="M 55.251408,13.973824 V 61.01333 L 73.636332,50.933325 92.020223,61.01333 V 13.973824 Z"
       style="stroke-width:0.175743;fill:#f9f9f9"
       id="path4" /><path
       d="m 40.543779,0.53381755 c -4.044574,0 -7.50677,1.31611985 -10.386963,3.94807945 -2.88038,2.6319766 -4.320667,5.795971 -4.320667,9.491927 V 121.49284 c 0,3.69596 1.440287,6.85995 4.320667,9.49193 2.880193,2.63196 6.342389,3.94808 10.386963,3.94808 h 88.245781 c 4.04457,0 7.50676,-1.31612 10.38696,-3.94808 2.88038,-2.63198 4.32066,-5.79597 4.32066,-9.49193 V 13.973824 c 0,-3.695956 -1.44028,-6.8599504 -4.32066,-9.491927 -2.8802,-2.6319596 -6.34239,-3.94807945 -10.38696,-3.94807945 z M 55.251408,13.973824 H 92.020223 V 61.01333 L 73.636332,50.933325 55.251408,61.01333 Z"
       style="stroke-width:0.175743;fill:#ff6600"
       id="path3" /></g></svg>
