<?xml version="1.0" encoding="UTF-8" standalone="no"?>
<!-- Created with Inkscape (http://www.inkscape.org/) -->

<svg
   width="640"
   height="512"
   viewBox="0 0 169.33333 135.46667"
   version="1.1"
   id="svg1"
   inkscape:version="1.4 (86a8ad7, 2024-10-11)"
   sodipodi:docname="list_icon.svg"
   xml:space="preserve"
   xmlns:inkscape="http://www.inkscape.org/namespaces/inkscape"
   xmlns:sodipodi="http://sodipodi.sourceforge.net/DTD/sodipodi-0.dtd"
   xmlns="http://www.w3.org/2000/svg"
   xmlns:svg="http://www.w3.org/2000/svg"><sodipodi:namedview
     id="namedview1"
     pagecolor="#ffffff"
     bordercolor="#111111"
     borderopacity="1"
     inkscape:showpageshadow="0"
     inkscape:pageopacity="0"
     inkscape:pagecheckerboard="1"
     inkscape:deskcolor="#d1d1d1"
     inkscape:document-units="px"
     showborder="false"
     inkscape:zoom="1.08"
     inkscape:cx="396.2963"
     inkscape:cy="293.05556"
     inkscape:window-width="2880"
     inkscape:window-height="1514"
     inkscape:window-x="5749"
     inkscape:window-y="15"
     inkscape:window-maximized="1"
     inkscape:current-layer="layer1" /><defs
     id="defs1" /><g
     inkscape:label="Layer 1"
     inkscape:groupmode="layer"
     id="layer1"><path
       d="M 78.291862,90.193461 V 105.09488 H 121.36314 V 90.193461 Z"
       style="baseline-shift:baseline;display:inline;overflow:visible;vector-effect:none;enable-background:accumulate;stop-color:#000000;stop-opacity:1"
       id="path17" /><path
       d="m 56.755709,90.193461 c -0.508493,0 -0.996153,0.0446 -1.463477,0.133842 -0.467323,0.08924 -0.914304,0.223035 -1.340486,0.401526 -0.426183,0.178491 -0.831911,0.401456 -1.21698,0.66921 -0.38507,0.267754 -0.749489,0.580381 -1.093474,0.93741 -0.34412,0.357029 -0.645188,0.73562 -0.903304,1.135332 -0.258115,0.399711 -0.473344,0.820578 -0.645438,1.262972 -0.172094,0.442393 -0.301001,0.906054 -0.387057,1.391129 -0.08605,0.485075 -0.129191,0.991531 -0.129191,1.519287 0,0.527766 0.04314,1.034205 0.129191,1.519287 0.08606,0.485083 0.214963,0.948734 0.387057,1.391134 0.172094,0.44239 0.387323,0.86326 0.645438,1.26297 0.258116,0.3997 0.559184,0.77832 0.903304,1.13533 0.344121,0.35703 0.708853,0.66966 1.093991,0.93741 0.385137,0.26775 0.790797,0.49072 1.21698,0.66921 0.426182,0.17849 0.872713,0.31229 1.339969,0.40153 0.467256,0.0892 0.955119,0.13384 1.463477,0.13384 0.508449,0 0.996113,-0.0446 1.463477,-0.13384 0.467363,-0.0892 0.914228,-0.22304 1.340486,-0.40153 0.426258,-0.17849 0.832365,-0.40146 1.217497,-0.66921 0.385132,-0.26775 0.749488,-0.58038 1.093473,-0.93741 0.34412,-0.35703 0.645237,-0.73562 0.903304,-1.13533 0.258067,-0.39972 0.472893,-0.82058 0.644922,-1.26297 0.172029,-0.4424 0.30105,-0.906059 0.387057,-1.391134 0.08601,-0.485074 0.129191,-0.991538 0.129191,-1.519287 0,-0.527767 -0.04318,-1.034206 -0.129191,-1.519287 -0.08601,-0.485081 -0.215028,-0.948736 -0.387057,-1.391129 -0.172029,-0.442394 -0.386855,-0.863266 -0.644922,-1.262972 -0.258067,-0.399706 -0.559184,-0.778314 -0.903304,-1.135332 -0.344123,-0.357029 -0.708789,-0.669656 -1.09399,-0.93741 -0.385201,-0.267754 -0.790722,-0.490719 -1.21698,-0.66921 -0.426258,-0.178491 -0.873192,-0.312286 -1.340486,-0.401526 -0.467295,-0.08924 -0.955166,-0.133842 -1.463477,-0.133842 z"
       style="baseline-shift:baseline;display:inline;overflow:visible;vector-effect:none;enable-background:accumulate;stop-color:#000000;stop-opacity:1"
       id="path16" /><path
       d="M 78.291862,60.390112 V 75.292045 H 121.36314 V 60.390112 Z"
       style="baseline-shift:baseline;display:inline;overflow:visible;vector-effect:none;enable-background:accumulate;stop-color:#000000;stop-opacity:1"
       id="path15" /><path
       d="m 56.755709,60.390112 c -0.508493,0 -0.996153,0.04455 -1.463477,0.133842 -0.467323,0.08929 -0.914304,0.223487 -1.340486,0.402043 -0.426183,0.178556 -0.831911,0.401407 -1.21698,0.66921 -0.38507,0.267802 -0.749489,0.580382 -1.093474,0.93741 -0.34412,0.357029 -0.645188,0.735152 -0.903304,1.134815 -0.258115,0.399663 -0.473344,0.820642 -0.645438,1.262972 -0.172094,0.442329 -0.301001,0.906102 -0.387057,1.391129 -0.08605,0.485027 -0.129191,0.991532 -0.129191,1.519287 0,0.527766 0.04314,1.034207 0.129191,1.519288 0.08606,0.48508 0.214963,0.948735 0.387057,1.391129 0.172094,0.442394 0.387323,0.863265 0.645438,1.262972 0.258116,0.399707 0.559184,0.778313 0.903304,1.135331 0.344121,0.357029 0.708853,0.669608 1.093991,0.937411 0.385137,0.267802 0.790797,0.490654 1.21698,0.66921 0.426182,0.178556 0.872713,0.312754 1.339969,0.402042 0.467256,0.08929 0.955119,0.133842 1.463477,0.133842 0.508449,0 0.996113,-0.04455 1.463477,-0.133842 0.467363,-0.08929 0.914228,-0.223486 1.340486,-0.402042 0.426258,-0.178556 0.832365,-0.401408 1.217497,-0.66921 0.385132,-0.267803 0.749488,-0.580382 1.093473,-0.937411 0.34412,-0.357028 0.645237,-0.735619 0.903304,-1.135331 0.258067,-0.399711 0.472893,-0.820578 0.644922,-1.262972 0.172029,-0.442394 0.30105,-0.906054 0.387057,-1.391129 0.08601,-0.485076 0.129191,-0.991532 0.129191,-1.519288 0,-0.527765 -0.04318,-1.034255 -0.129191,-1.519287 -0.08601,-0.485031 -0.215028,-0.9488 -0.387057,-1.391129 -0.172029,-0.44233 -0.386855,-0.863314 -0.644922,-1.262972 -0.258067,-0.399659 -0.559184,-0.777796 -0.903304,-1.134815 -0.344123,-0.357028 -0.708789,-0.669608 -1.09399,-0.93741 -0.385201,-0.267803 -0.790722,-0.490654 -1.21698,-0.66921 -0.426258,-0.178556 -0.873192,-0.312754 -1.340486,-0.402043 -0.467295,-0.08929 -0.955166,-0.133842 -1.463477,-0.133842 z"
       style="baseline-shift:baseline;display:inline;overflow:visible;vector-effect:none;enable-background:accumulate;stop-color:#000000;stop-opacity:1"
       id="path14" /><path
       d="M 78.291862,30.58728 V 45.488696 H 121.36314 V 30.58728 Z"
       style="baseline-shift:baseline;display:inline;overflow:visible;vector-effect:none;enable-background:accumulate;stop-color:#000000;stop-opacity:1"
       id="path13" /><path
       d="m 56.755709,30.586764 c -0.508493,0 -0.996153,0.04455 -1.463477,0.133842 -0.467323,0.08929 -0.914304,0.223486 -1.340486,0.402042 -0.426183,0.178556 -0.831911,0.401407 -1.21698,0.66921 -0.38507,0.267803 -0.749489,0.580382 -1.093474,0.93741 -0.34412,0.357028 -0.645188,0.73562 -0.903304,1.135332 -0.258115,0.399711 -0.473344,0.820578 -0.645438,1.262972 -0.172094,0.442394 -0.301001,0.906054 -0.387057,1.391129 -0.08605,0.485076 -0.129191,0.991532 -0.129191,1.519287 0,0.527761 0.04314,1.034208 0.129191,1.519287 0.08606,0.48508 0.214963,0.948735 0.387057,1.39113 0.172094,0.442395 0.387323,0.863264 0.645438,1.262972 0.258116,0.399708 0.559184,0.778313 0.903304,1.135331 0.344121,0.357028 0.708853,0.669657 1.093991,0.937411 0.385137,0.267754 0.790797,0.490718 1.21698,0.66921 0.426182,0.178491 0.872713,0.312285 1.339969,0.401525 0.467256,0.08924 0.955119,0.133842 1.463477,0.133842 0.508449,0 0.996113,-0.0446 1.463477,-0.133842 0.467363,-0.08924 0.914228,-0.223034 1.340486,-0.401525 0.426258,-0.178492 0.832365,-0.401456 1.217497,-0.66921 0.385132,-0.267754 0.749488,-0.580383 1.093473,-0.937411 0.34412,-0.357028 0.645237,-0.735618 0.903304,-1.135331 0.258067,-0.399713 0.472893,-0.820577 0.644922,-1.262972 0.172029,-0.442395 0.30105,-0.906055 0.387057,-1.39113 0.08601,-0.485074 0.129191,-0.991535 0.129191,-1.519287 0,-0.527765 -0.04318,-1.034207 -0.129191,-1.519287 -0.08601,-0.48508 -0.215028,-0.948735 -0.387057,-1.391129 -0.172029,-0.442394 -0.386855,-0.863265 -0.644922,-1.262972 -0.258067,-0.399707 -0.559184,-0.778313 -0.903304,-1.135332 -0.344123,-0.357028 -0.708789,-0.669607 -1.09399,-0.93741 -0.385201,-0.267803 -0.790722,-0.490654 -1.21698,-0.66921 -0.426258,-0.178556 -0.873192,-0.312754 -1.340486,-0.402042 -0.467295,-0.08929 -0.955166,-0.133842 -1.463477,-0.133842 z"
       style="baseline-shift:baseline;display:inline;overflow:visible;vector-effect:none;enable-background:accumulate;stop-color:#000000;stop-opacity:1"
       id="path12" /><path
       d="M 35.220073,15.685348 V 119.99681 H 135.7204 V 15.685348 Z m 21.535636,14.901416 c 2.033243,0 3.738441,0.714391 5.114933,2.142504 1.37648,1.428075 2.064474,3.19766 2.064474,5.30872 0,2.111005 -0.687994,3.880607 -2.064474,5.30872 -1.37594,1.428112 -3.081138,2.141988 -5.114933,2.141988 -2.033431,0 -3.737936,-0.713876 -5.114417,-2.141988 -1.37648,-1.428075 -2.06499,-3.197677 -2.06499,-5.30872 0,-2.111023 0.68851,-3.880608 2.06499,-5.30872 1.375938,-1.428113 3.080444,-2.142504 5.114417,-2.142504 z m 21.536153,5.16e-4 H 121.36314 V 45.488696 H 78.291862 Z M 56.755709,60.390112 c 2.033243,0 3.738441,0.714393 5.114933,2.142505 1.37648,1.428076 2.064474,3.197143 2.064474,5.308203 0,2.111024 -0.687994,3.880608 -2.064474,5.30872 -1.37594,1.428113 -3.081138,2.142505 -5.114933,2.142505 -2.033431,0 -3.737936,-0.714392 -5.114417,-2.142505 -1.37648,-1.428074 -2.06499,-3.197658 -2.06499,-5.30872 0,-2.111022 0.68851,-3.88009 2.06499,-5.308203 1.375938,-1.428112 3.080444,-2.142505 5.114417,-2.142505 z m 21.536153,0 H 121.36314 V 75.292045 H 78.291862 Z M 56.755709,90.193461 c 2.033243,0 3.738441,0.713872 5.114933,2.141988 1.37648,1.428071 2.064474,3.197651 2.064474,5.30872 0,2.110995 -0.687994,3.880611 -2.064474,5.308721 -1.37594,1.42811 -3.081138,2.14199 -5.114933,2.14199 -2.033431,0 -3.737936,-0.71388 -5.114417,-2.14199 -1.37648,-1.42805 -2.06499,-3.197659 -2.06499,-5.308721 0,-2.111024 0.68851,-3.880604 2.06499,-5.30872 1.375938,-1.428116 3.080444,-2.141988 5.114417,-2.141988 z m 21.536153,0 H 121.36314 V 105.09488 H 78.291862 Z"
       style="baseline-shift:baseline;display:inline;overflow:visible;vector-effect:none;fill:#fff6d5;enable-background:accumulate;stop-color:#000000;stop-opacity:1"
       id="path11" /><path
       d="m 35.220073,0.78393148 c -3.948384,0 -7.328384,1.45927572 -10.13995,4.37751062 -2.811567,2.9182337 -4.217314,6.4259709 -4.217314,10.5239059 V 119.99681 c 0,4.09793 1.405747,7.60619 4.217314,10.52442 2.811566,2.91822 6.191566,4.377 10.13995,4.377 H 135.7204 c 3.9482,0 7.3282,-1.45878 10.13995,-4.377 2.81156,-2.91823 4.21731,-6.42649 4.21731,-10.52442 V 15.685348 c 0,-4.097935 -1.40575,-7.6056722 -4.21731,-10.5239059 C 143.0486,2.2432072 139.6686,0.78393148 135.7204,0.78393148 Z m 0,14.90141652 H 135.7204 V 119.99681 H 35.220073 Z"
       style="baseline-shift:baseline;display:inline;overflow:visible;vector-effect:none;enable-background:accumulate;stop-color:#000000;stop-opacity:1"
       id="path10" /></g></svg>
