<?xml version="1.0" encoding="UTF-8" standalone="no"?>
<!-- Created with Inkscape (http://www.inkscape.org/) -->

<svg
   width="640"
   height="512"
   viewBox="0 0 169.33333 135.46667"
   version="1.1"
   id="svg1"
   inkscape:version="1.4 (86a8ad7, 2024-10-11)"
   sodipodi:docname="list_icon_filled.svg"
   xml:space="preserve"
   xmlns:inkscape="http://www.inkscape.org/namespaces/inkscape"
   xmlns:sodipodi="http://sodipodi.sourceforge.net/DTD/sodipodi-0.dtd"
   xmlns="http://www.w3.org/2000/svg"
   xmlns:svg="http://www.w3.org/2000/svg"><sodipodi:namedview
     id="namedview1"
     pagecolor="#ffffff"
     bordercolor="#111111"
     borderopacity="1"
     inkscape:showpageshadow="0"
     inkscape:pageopacity="0"
     inkscape:pagecheckerboard="1"
     inkscape:deskcolor="#d1d1d1"
     inkscape:document-units="px"
     showborder="false"
     inkscape:zoom="1.08"
     inkscape:cx="396.75926"
     inkscape:cy="293.05556"
     inkscape:window-width="2880"
     inkscape:window-height="1514"
     inkscape:window-x="5749"
     inkscape:window-y="15"
     inkscape:window-maximized="1"
     inkscape:current-layer="layer1" /><defs
     id="defs1" /><g
     inkscape:label="Layer 1"
     inkscape:groupmode="layer"
     id="layer1"><path
       d="M 77.351868,90.126799 V 105.0556 H 121.24015 V 90.126799 Z"
       style="stroke-width:0.184729"
       id="path8" /><path
       d="m 55.407988,90.126282 c -2.072536,0 -3.81006,0.7154 -5.212085,2.146122 -1.402578,1.43072 -2.103748,3.203658 -2.103748,5.318539 0,2.114918 0.70117,3.887857 2.103748,5.318537 1.402578,1.43072 3.140102,2.14612 5.212085,2.14612 2.072535,0 3.810059,-0.7154 5.212085,-2.14612 1.402578,-1.43072 2.103747,-3.203659 2.103747,-5.318537 0,-2.114918 -0.701169,-3.887855 -2.103747,-5.318539 -1.402578,-1.430722 -3.140103,-2.146122 -5.212085,-2.146122 z"
       style="stroke-width:0.184729"
       id="path7" /><path
       d="M 77.351868,60.268673 V 75.197477 H 121.24015 V 60.268673 Z"
       style="stroke-width:0.184729"
       id="path6" /><path
       d="m 55.407988,60.268673 c -2.072536,0 -3.81006,0.715401 -5.212085,2.146122 -1.402578,1.430721 -2.103748,3.203678 -2.103748,5.318538 0,2.114918 0.70117,3.887856 2.103748,5.318539 1.402578,1.430721 3.140102,2.145605 5.212085,2.145605 2.072535,0 3.810059,-0.714884 5.212085,-2.145605 1.402578,-1.430721 2.103747,-3.203659 2.103747,-5.318539 0,-2.114917 -0.701169,-3.887873 -2.103747,-5.318538 -1.402578,-1.430721 -3.140103,-2.146122 -5.212085,-2.146122 z"
       style="stroke-width:0.184729"
       id="path5" /><path
       d="M 77.351868,30.411064 V 45.339868 H 121.24015 V 30.411064 Z"
       style="stroke-width:0.184729"
       id="path4" /><path
       d="m 55.407988,30.411064 c -2.072536,0 -3.81006,0.715402 -5.212085,2.146122 -1.402578,1.430722 -2.103748,3.203658 -2.103748,5.318538 0,2.114916 0.70117,3.887854 2.103748,5.318539 1.402578,1.43072 3.140102,2.145605 5.212085,2.145605 2.072535,0 3.810059,-0.714885 5.212085,-2.145605 1.402578,-1.430722 2.103747,-3.20366 2.103747,-5.318539 0,-2.114917 -0.701169,-3.887853 -2.103747,-5.318538 -1.402578,-1.43072 -3.140103,-2.146122 -5.212085,-2.146122 z"
       style="stroke-width:0.184729"
       id="path3" /><path
       d="m 33.464107,0.55345459 c -4.023059,0 -7.467314,1.46223251 -10.332186,4.38577881 -2.865056,2.9235651 -4.297412,6.4376056 -4.297412,10.5430256 V 119.98441 c 0,4.10542 1.432356,7.61946 4.297412,10.54302 2.864872,2.92356 6.309127,4.38578 10.332186,4.38578 H 135.86974 c 4.02306,0 7.46681,-1.46222 10.33167,-4.38578 2.86488,-2.92356 4.29741,-6.4376 4.29741,-10.54302 V 15.482259 c 0,-4.10542 -1.43253,-7.6194605 -4.29741,-10.5430256 C 143.33655,2.0156871 139.8928,0.55345459 135.86974,0.55345459 Z M 55.407988,30.411064 c 2.071982,0 3.809507,0.715402 5.212085,2.146122 1.402578,1.430685 2.103747,3.203621 2.103747,5.318538 0,2.114879 -0.701169,3.887817 -2.103747,5.318539 -1.402026,1.43072 -3.13955,2.145605 -5.212085,2.145605 -2.071983,0 -3.809507,-0.714885 -5.212085,-2.145605 -1.402578,-1.430685 -2.103748,-3.203623 -2.103748,-5.318539 0,-2.11488 0.70117,-3.887816 2.103748,-5.318538 1.402025,-1.43072 3.139549,-2.146122 5.212085,-2.146122 z m 21.94388,0 H 121.24015 V 45.339868 H 77.351868 Z m -21.94388,29.857609 c 2.071982,0 3.809507,0.715401 5.212085,2.146122 1.402578,1.430665 2.103747,3.203621 2.103747,5.318538 0,2.11488 -0.701169,3.887818 -2.103747,5.318539 -1.402026,1.430721 -3.13955,2.145605 -5.212085,2.145605 -2.071983,0 -3.809507,-0.714884 -5.212085,-2.145605 -1.402578,-1.430683 -2.103748,-3.203621 -2.103748,-5.318539 0,-2.11486 0.70117,-3.887817 2.103748,-5.318538 1.402025,-1.430721 3.139549,-2.146122 5.212085,-2.146122 z m 21.94388,0 H 121.24015 V 75.197477 H 77.351868 Z m -21.94388,29.857609 c 2.071982,0 3.809507,0.7154 5.212085,2.146122 1.402578,1.430684 2.103747,3.203621 2.103747,5.318539 0,2.114878 -0.701169,3.887817 -2.103747,5.318537 -1.402026,1.43072 -3.13955,2.14612 -5.212085,2.14612 -2.071983,0 -3.809507,-0.7154 -5.212085,-2.14612 -1.402578,-1.43068 -2.103748,-3.203619 -2.103748,-5.318537 0,-2.114881 0.70117,-3.887819 2.103748,-5.318539 1.402025,-1.430722 3.139549,-2.146122 5.212085,-2.146122 z m 21.94388,5.17e-4 H 121.24015 V 105.0556 H 77.351868 Z"
       style="stroke-width:0.184729;fill:#ffe680"
       id="path2" /></g></svg>
