<?xml version="1.0" encoding="UTF-8" standalone="no"?>
<!-- Created with Inkscape (http://www.inkscape.org/) -->

<svg
   width="640"
   height="512"
   viewBox="0 0 169.33333 135.46667"
   version="1.1"
   id="svg1"
   inkscape:version="1.4 (86a8ad7, 2024-10-11)"
   sodipodi:docname="digital_library_card_new.svg"
   xml:space="preserve"
   xmlns:inkscape="http://www.inkscape.org/namespaces/inkscape"
   xmlns:sodipodi="http://sodipodi.sourceforge.net/DTD/sodipodi-0.dtd"
   xmlns="http://www.w3.org/2000/svg"
   xmlns:svg="http://www.w3.org/2000/svg"><sodipodi:namedview
     id="namedview1"
     pagecolor="#ffffff"
     bordercolor="#111111"
     borderopacity="1"
     inkscape:showpageshadow="0"
     inkscape:pageopacity="0"
     inkscape:pagecheckerboard="1"
     inkscape:deskcolor="#d1d1d1"
     inkscape:document-units="px"
     showborder="false"
     inkscape:zoom="1.08"
     inkscape:cx="396.75926"
     inkscape:cy="293.05556"
     inkscape:window-width="2880"
     inkscape:window-height="1514"
     inkscape:window-x="2869"
     inkscape:window-y="7"
     inkscape:window-maximized="1"
     inkscape:current-layer="layer1" /><defs
     id="defs1" /><g
     inkscape:label="Layer 1"
     inkscape:groupmode="layer"
     id="layer1"><g
       id="g10"><path
         d="m 27.260352,64.940739 v 42.136451 c 0,0.53221 0.230892,1.01957 0.691947,1.46192 0.459246,0.44358 0.965504,0.66559 1.51877,0.66559 H 139.86588 c 0.55327,0 1.06004,-0.22201 1.51929,-0.66559 0.46106,-0.44235 0.69143,-0.92971 0.69143,-1.46192 V 64.940739 Z"
         style="fill:#ffffff;stroke-width:0.222155"
         id="path10" /><path
         d="M 27.260352,42.633574 V 28.355375 c -2e-4,0.01153 -0.0036,0.02252 -0.0036,0.03411 z"
         style="fill:#0000ff;stroke-width:0.222155"
         id="path9" /><path
         d="M 142.07298,42.633574 H 27.260352 V 42.87852 H 142.07298 Z"
         style=""
         id="path7" /><path
         d="m 142.07298,28.389482 c 0,-0.532222 -0.23091,-1.019569 -0.69195,-1.461927 -0.45925,-0.443577 -0.9655,-0.665592 -1.51877,-0.665592 H 29.467452 c -0.553266,0 -1.060039,0.222015 -1.519287,0.665592 -0.451015,0.432726 -0.678013,0.909101 -0.687813,1.42782 V 42.633574 H 142.07298 Z"
         style="fill:#69cbf5;stroke-width:0.222155;fill-opacity:1"
         id="path5" /><path
         d="m 29.467452,26.017017 c -0.553266,0 -1.060039,0.222015 -1.519287,0.665592 -0.451015,0.432726 -0.678013,0.909101 -0.687813,1.42782 v 0.244946 c 0.0098,-0.518719 0.236798,-0.995094 0.687813,-1.42782 0.459248,-0.443577 0.966021,-0.665592 1.519287,-0.665592 H 139.86226 c 0.55327,0 1.05952,0.222015 1.51877,0.665592 0.46104,0.442358 0.69195,0.929705 0.69195,1.461927 v -0.244947 c 0,-0.532222 -0.23091,-1.019568 -0.69195,-1.461926 -0.45925,-0.443577 -0.9655,-0.665592 -1.51877,-0.665592 z"
         style="baseline-shift:baseline;display:inline;overflow:visible;vector-effect:none;enable-background:accumulate;stop-color:#000000;stop-opacity:1"
         id="path4" /><path
         d="m 29.469002,15.894637 c -3.624978,0 -6.693031,1.209581 -9.204606,3.628719 -2.511394,2.419139 -3.767212,5.374497 -3.767212,8.866126 v 78.687708 c 0,3.49162 1.255818,6.44697 3.767212,8.86612 2.511575,2.41914 5.579628,3.62872 9.204606,3.62872 H 139.86433 c 3.62498,0 6.69302,-1.20958 9.20461,-3.62872 2.51138,-2.41915 3.76721,-5.3745 3.76721,-8.86612 V 28.389482 c 0,-3.491629 -1.25583,-6.446987 -3.76721,-8.866126 -2.51159,-2.419138 -5.57963,-3.628719 -9.20461,-3.628719 z m -0.0015,10.12238 H 139.86226 c 0.55327,0 1.05952,0.222015 1.51877,0.665592 0.46104,0.442358 0.69195,0.929704 0.69195,1.461926 V 28.389482 42.87852 H 27.260352 l -0.0036,-14.489038 c 0,-0.01159 0.0034,-0.02258 0.0036,-0.03411 v -0.244946 c 0.0098,-0.518719 0.236798,-0.995094 0.687813,-1.42782 0.459248,-0.443577 0.966021,-0.665592 1.519287,-0.665592 z m -2.2071,38.923722 H 142.0766 v 42.136451 c 0,0.53221 -0.23037,1.01957 -0.69143,1.46192 -0.45925,0.44358 -0.96602,0.66559 -1.51929,0.66559 H 29.471069 c -0.553266,0 -1.059524,-0.22201 -1.51877,-0.66559 -0.461055,-0.44235 -0.691947,-0.92971 -0.691947,-1.46192 z"
         style="baseline-shift:baseline;display:inline;overflow:visible;vector-effect:none;enable-background:accumulate;stop-color:#000000;stop-opacity:1"
         id="path3" /></g></g></svg>
