<?xml version="1.0" encoding="UTF-8" standalone="no"?>
<!-- Created with Inkscape (http://www.inkscape.org/) -->

<svg
   width="640"
   height="512"
   viewBox="0 0 169.33333 135.46667"
   version="1.1"
   id="svg1"
   inkscape:version="1.4 (86a8ad7, 2024-10-11)"
   sodipodi:docname="ebook_digital_new.svg"
   xml:space="preserve"
   xmlns:inkscape="http://www.inkscape.org/namespaces/inkscape"
   xmlns:sodipodi="http://sodipodi.sourceforge.net/DTD/sodipodi-0.dtd"
   xmlns="http://www.w3.org/2000/svg"
   xmlns:svg="http://www.w3.org/2000/svg"><sodipodi:namedview
     id="namedview1"
     pagecolor="#ffffff"
     bordercolor="#111111"
     borderopacity="1"
     inkscape:showpageshadow="0"
     inkscape:pageopacity="0"
     inkscape:pagecheckerboard="1"
     inkscape:deskcolor="#d1d1d1"
     inkscape:document-units="px"
     showborder="false"
     inkscape:zoom="1.08"
     inkscape:cx="396.2963"
     inkscape:cy="293.05556"
     inkscape:window-width="2880"
     inkscape:window-height="1514"
     inkscape:window-x="5749"
     inkscape:window-y="7"
     inkscape:window-maximized="1"
     inkscape:current-layer="layer1" /><defs
     id="defs1" /><g
     inkscape:label="Layer 1"
     inkscape:groupmode="layer"
     id="layer1"><g
       id="g12"><path
         d="m 43.205115,116.97839 v 5.98723 c 0,0.48929 0.266107,0.93743 0.798917,1.34411 0.530723,0.40778 1.115066,0.61133 1.752348,0.61133 h 77.82109 c 0.63937,0 1.22473,-0.20355 1.75545,-0.61133 0.53281,-0.40668 0.79892,-0.85482 0.79892,-1.34411 v -5.98723 z"
         style="fill:#95b2ff;stroke-width:0.181473"
         id="path12" /><path
         d="M 78.448442,44.516663 V 72.597636 L 63.107259,61.037618 54.368775,67.733333 84.6677,90.950004 114.96663,67.733333 106.22814,61.037618 90.886959,72.597636 V 44.516663 Z"
         style="stroke-width:0.181473"
         id="path11" /><path
         d="M 43.205115,28.019478 V 107.44719 H 126.13029 V 28.019478 Z M 78.448442,44.516663 H 90.886959 V 72.597636 L 106.22814,61.037618 114.96663,67.733333 84.6677,90.950004 54.368775,67.733333 63.107259,61.037618 78.448442,72.597636 Z"
         style="fill:#69cbf5;stroke-width:0.181473;fill-opacity:1"
         id="path10" /><path
         d="m 43.205115,12.467456 c -3e-4,0.0114 -0.0047,0.02215 -0.0047,0.03359 l 0.0047,5.987231 z"
         style="stroke-width:0.181473"
         id="path9" /><path
         d="m 43.205115,12.467456 v 6.020821 h 82.925175 v -5.987231 c 0,-0.489284 -0.26663,-0.937436 -0.79944,-1.344104 -0.53072,-0.40779 -1.11556,-0.611332 -1.75493,-0.611332 H 45.75483 c -0.639373,0 -1.224727,0.203542 -1.755448,0.611332 -0.520353,0.39716 -0.782097,0.834558 -0.794267,1.310514 z"
         style="fill:#95b2ff;stroke-width:0.181473"
         id="path8" /><path
         d="m 45.75638,1.0144084 c -4.189148,0 -7.735132,1.1117478 -10.637593,3.3357137 -2.902462,2.2239818 -4.35374,4.9409939 -4.35374,8.1509239 V 122.96562 c 0,3.20993 1.451278,5.92696 4.35374,8.15092 2.902461,2.22397 6.448445,3.33572 10.637593,3.33572 h 77.82109 c 4.18915,0 7.73482,-1.11175 10.63708,-3.33572 2.90246,-2.22396 4.35374,-4.94099 4.35374,-8.15092 V 12.501046 c 0,-3.20993 -1.45128,-5.9269421 -4.35374,-8.1509239 -2.90226,-2.2239659 -6.44793,-3.3357137 -10.63708,-3.3357137 z M 43.205115,10.54561 v 1.921846 c 0.01217,-0.475956 0.273914,-0.913354 0.794267,-1.310514 0.530721,-0.40779 1.116075,-0.611332 1.755448,-0.611332 h 77.82109 c 0.63937,0 1.22421,0.203542 1.75493,0.611332 0.53281,0.406668 0.79944,0.85482 0.79944,1.344104 v 5.987231 H 43.205115 l -0.0047,-5.987231 c 0,-0.01144 0.0044,-0.02219 0.0047,-0.03359 z m 0,17.473868 H 126.13029 V 107.44719 H 43.205115 Z m 0,88.958912 h 82.926725 v 5.98723 c 0,0.48929 -0.26611,0.93743 -0.79892,1.34411 -0.53072,0.40778 -1.11608,0.61133 -1.75545,0.61133 H 45.75638 c -0.637282,0 -1.221625,-0.20355 -1.752348,-0.61133 -0.53281,-0.40668 -0.798917,-0.85482 -0.798917,-1.34411 z"
         style="stroke-width:0.181473"
         id="path1" /></g></g></svg>
