<?xml version="1.0" encoding="UTF-8" standalone="no"?>
<!-- Created with Inkscape (http://www.inkscape.org/) -->

<svg
   width="640"
   height="512"
   viewBox="0 0 169.33333 135.46667"
   version="1.1"
   id="svg1"
   inkscape:version="1.4 (86a8ad7, 2024-10-11)"
   sodipodi:docname="holds_new.svg"
   xml:space="preserve"
   xmlns:inkscape="http://www.inkscape.org/namespaces/inkscape"
   xmlns:sodipodi="http://sodipodi.sourceforge.net/DTD/sodipodi-0.dtd"
   xmlns="http://www.w3.org/2000/svg"
   xmlns:svg="http://www.w3.org/2000/svg"><sodipodi:namedview
     id="namedview1"
     pagecolor="#ffffff"
     bordercolor="#111111"
     borderopacity="1"
     inkscape:showpageshadow="0"
     inkscape:pageopacity="0"
     inkscape:pagecheckerboard="1"
     inkscape:deskcolor="#d1d1d1"
     inkscape:document-units="px"
     showborder="false"
     inkscape:zoom="1.08"
     inkscape:cx="396.75926"
     inkscape:cy="293.05556"
     inkscape:window-width="2880"
     inkscape:window-height="1514"
     inkscape:window-x="5749"
     inkscape:window-y="7"
     inkscape:window-maximized="1"
     inkscape:current-layer="layer1" /><defs
     id="defs1" /><g
     inkscape:label="Layer 1"
     inkscape:groupmode="layer"
     id="layer1"><g
       id="g10"><path
         d="M 39.962419,122.35894 V 13.107727 c -10e-5,0.0079 -0.0026,0.01535 -0.0026,0.02325 V 122.33569 c 0,0.008 0.0025,0.0152 0.0026,0.0233 z"
         style="stroke-width:0.181812"
         id="path10" /><path
         d="m 97.706181,47.93971 16.763839,9.556005 v -5.16e-4 z"
         style=""
         id="path9" /><path
         d="m 80.94183,57.495715 16.764351,-9.556005 -0.001,-5.17e-4 z"
         style=""
         id="path8" /><path
         d="m 42.254785,10.946102 c -0.574474,0 -1.100314,0.227616 -1.577164,0.683162 -0.471798,0.44772 -0.708402,0.941108 -0.715202,1.478463 V 122.35894 c 0.0068,0.53734 0.243412,1.03023 0.715202,1.47795 0.47685,0.45554 1.00269,0.68316 1.577164,0.68316 h 84.823765 c 0.57448,0 1.10032,-0.22762 1.57716,-0.68316 0.47874,-0.4543 0.71779,-0.95462 0.71779,-1.5012 V 13.130981 c 0,-0.546585 -0.23905,-1.04742 -0.71779,-1.501717 -0.47684,-0.455546 -1.00268,-0.683162 -1.57716,-0.683162 h -12.60853 v 46.549097 5.16e-4 L 97.706181,47.93971 80.94183,57.495715 h -5.17e-4 V 10.946102 Z"
         style="fill:#69cbf5;stroke-width:0.181812;fill-opacity:1"
         id="path7" /><path
         d="m 42.254785,0.29868978 c -3.763932,0 -6.949707,1.24248092 -9.557556,3.72690432 C 30.089567,6.5100174 28.78584,9.5451258 28.78584,13.130981 V 122.33569 c 0,3.58586 1.303727,6.62095 3.911389,9.10538 2.607849,2.48443 5.793624,3.72691 9.557556,3.72691 h 84.823765 c 3.76394,0 6.9499,-1.24248 9.55755,-3.72691 2.60786,-2.48443 3.91139,-5.51952 3.91139,-9.10538 V 13.130981 c 0,-3.5858552 -1.30353,-6.6209636 -3.91139,-9.1053869 -2.60765,-2.4844234 -5.79361,-3.72690432 -9.55755,-3.72690432 z m 0,10.64741222 h 38.686528 v 46.549613 l 16.763835,-9.556522 0.001,5.17e-4 16.763839,9.555489 V 10.946102 h 12.60853 c 0.57448,0 1.10032,0.227616 1.57716,0.683162 0.47874,0.454297 0.71779,0.955132 0.71779,1.501717 V 122.33569 c 0,0.54658 -0.23905,1.0469 -0.71779,1.5012 -0.47684,0.45554 -1.00268,0.68316 -1.57716,0.68316 H 42.254785 c -0.574474,0 -1.100314,-0.22762 -1.577164,-0.68316 -0.47179,-0.44772 -0.708363,-0.94061 -0.715202,-1.47795 -1.01e-4,-0.008 -0.0026,-0.0153 -0.0026,-0.0233 V 13.130981 c 0,-0.0079 0.0025,-0.01536 0.0026,-0.02325 0.0068,-0.537355 0.243404,-1.030743 0.715202,-1.478463 0.47685,-0.455546 1.00269,-0.683162 1.577164,-0.683162 z"
         style="stroke-width:0.181812"
         id="path1" /></g></g></svg>
