<?xml version="1.0" encoding="UTF-8" standalone="no"?>
<!-- Created with Inkscape (http://www.inkscape.org/) -->

<svg
   width="640"
   height="512"
   viewBox="0 0 169.33333 135.46667"
   version="1.1"
   id="svg1"
   inkscape:version="1.4 (86a8ad7, 2024-10-11)"
   sodipodi:docname="items_checked_out_new.svg"
   xml:space="preserve"
   xmlns:inkscape="http://www.inkscape.org/namespaces/inkscape"
   xmlns:sodipodi="http://sodipodi.sourceforge.net/DTD/sodipodi-0.dtd"
   xmlns="http://www.w3.org/2000/svg"
   xmlns:svg="http://www.w3.org/2000/svg"><sodipodi:namedview
     id="namedview1"
     pagecolor="#ffffff"
     bordercolor="#111111"
     borderopacity="1"
     inkscape:showpageshadow="0"
     inkscape:pageopacity="0"
     inkscape:pagecheckerboard="1"
     inkscape:deskcolor="#d1d1d1"
     inkscape:document-units="px"
     showborder="false"
     inkscape:zoom="1.08"
     inkscape:cx="396.75926"
     inkscape:cy="293.05556"
     inkscape:window-width="2880"
     inkscape:window-height="1514"
     inkscape:window-x="5749"
     inkscape:window-y="7"
     inkscape:window-maximized="1"
     inkscape:current-layer="layer1" /><defs
     id="defs1" /><g
     inkscape:label="Layer 1"
     inkscape:groupmode="layer"
     id="layer1"><g
       id="g8"><path
         d="m 52.581287,102.34259 c -3.222236,0 -5.902949,1.07847 -8.041887,3.23598 -2.138937,2.15754 -3.208073,4.75786 -3.208073,7.80107 0,3.1613 1.069136,5.79148 3.208073,7.88996 2.138938,2.09848 4.819651,3.14761 8.041887,3.14761 h 0.0026 67.485799 c -1.04818,-1.60838 -1.86351,-3.31388 -2.44584,-5.11596 -0.58413,-1.80326 -0.87592,-3.77708 -0.87592,-5.92161 0,-2.02527 0.27315,-3.96889 0.81907,-5.83117 0.54592,-1.8623 1.37914,-3.59747 2.50011,-5.20588 z"
         style="fill:#fff6d5;stroke-width:0.178348"
         id="path8" /><path
         d="M 67.999984,11.049455 V 91.715849 H 127.99942 V 11.049455 Z"
         style="fill:#95b2ff;stroke-width:0.178348;fill-opacity:1"
         id="path7" /><path
         d="m 53.972416,11.049455 c -3.472635,0 -6.446497,1.215458 -8.922453,3.645772 -2.477229,2.429136 -3.716052,5.347052 -3.716052,8.753988 v 71.522766 c 1.639598,-1.099398 3.396499,-1.917466 5.27048,-2.453597 1.875255,-0.534878 3.868202,-0.802535 5.97948,-0.802535 h 4.582666 V 11.049455 Z"
         style="fill:#95b2ff;stroke-width:0.178348;fill-opacity:1"
         id="path6" /><path
         d="m 53.972416,0.42167969 c -6.517991,0 -12.059763,2.23888451 -16.625342,6.71690271 -4.564486,4.4791946 -6.84661,9.9159886 -6.84661,16.3106326 v 89.930425 c 0,5.98604 2.155306,11.09374 6.465755,15.32258 4.310449,4.22884 9.516202,6.34277 15.617652,6.34277 h 86.248999 v -10.62778 c -3.10177,0 -5.75228,-1.07846 -7.95145,-3.23598 -2.19917,-2.15752 -3.29903,-4.75838 -3.29903,-7.80159 0,-3.04321 1.09986,-5.64353 3.29903,-7.80107 2.19917,-2.15751 4.84968,-3.23598 7.95145,-3.23598 V 0.42167969 Z m 0,10.62777531 h 3.194121 v 80.666394 h -4.582666 c -2.111278,0 -4.104225,0.267657 -5.97948,0.802535 -1.873981,0.536131 -3.630882,1.354199 -5.27048,2.453597 V 23.449215 c 0,-3.406936 1.238823,-6.324852 3.716052,-8.753988 2.475956,-2.430314 5.449818,-3.645772 8.922453,-3.645772 z m 14.027568,0 H 127.99942 V 91.715849 H 67.999984 Z M 52.581287,102.34259 h 67.485803 c -0.56048,0.80421 -1.04888,1.63971 -1.46554,2.50734 -0.41667,0.86763 -0.76161,1.76739 -1.03457,2.69854 -0.54592,1.86228 -0.81907,3.8059 -0.81907,5.83117 0,2.14453 0.29179,4.11835 0.87592,5.92161 0.58233,1.80208 1.39766,3.50758 2.44584,5.11596 h -67.485799 -0.0026 c -3.222236,0 -5.902949,-1.04913 -8.041887,-3.14761 -2.138937,-2.09848 -3.208073,-4.72866 -3.208073,-7.88996 0,-3.04321 1.069136,-5.64353 3.208073,-7.80107 2.138938,-2.15751 4.819651,-3.23598 8.041887,-3.23598 z"
         style="stroke-width:0.178348"
         id="path1" /></g></g></svg>
