<?xml version="1.0" encoding="UTF-8" standalone="no"?>
<!-- Created with Inkscape (http://www.inkscape.org/) -->

<svg
   width="640"
   height="512"
   viewBox="0 0 169.33333 135.46667"
   version="1.1"
   id="svg1"
   inkscape:version="1.4 (86a8ad7, 2024-10-11)"
   sodipodi:docname="library_info_new.svg"
   xml:space="preserve"
   xmlns:inkscape="http://www.inkscape.org/namespaces/inkscape"
   xmlns:sodipodi="http://sodipodi.sourceforge.net/DTD/sodipodi-0.dtd"
   xmlns="http://www.w3.org/2000/svg"
   xmlns:svg="http://www.w3.org/2000/svg"><sodipodi:namedview
     id="namedview1"
     pagecolor="#ffffff"
     bordercolor="#111111"
     borderopacity="1"
     inkscape:showpageshadow="0"
     inkscape:pageopacity="0"
     inkscape:pagecheckerboard="1"
     inkscape:deskcolor="#d1d1d1"
     inkscape:document-units="px"
     showborder="false"
     inkscape:zoom="1.08"
     inkscape:cx="396.75926"
     inkscape:cy="293.05556"
     inkscape:window-width="2880"
     inkscape:window-height="1514"
     inkscape:window-x="2869"
     inkscape:window-y="7"
     inkscape:window-maximized="1"
     inkscape:current-layer="layer1" /><defs
     id="defs1" /><g
     inkscape:label="Layer 1"
     inkscape:groupmode="layer"
     id="layer1"><g
       id="g5"><path
         d="M 78.809143,70.007097 V 105.47625 H 90.52419 V 70.007097 Z"
         style="stroke-width:0.196149"
         id="path5" /><path
         d="m 84.666667,39.691117 c -1.9128,0 -3.542471,0.67952 -4.889107,2.039152 -1.346036,1.358244 -2.018999,3.003391 -2.018999,4.934583 0,1.929821 0.672963,3.573697 2.018999,4.931999 1.34802,1.359634 2.97769,2.039669 4.889107,2.039669 1.9128,0 3.54247,-0.680035 4.889107,-2.039669 1.346048,-1.358441 2.018998,-3.002318 2.018998,-4.931999 0,-1.931013 -0.67295,-3.57616 -2.018998,-4.934583 -1.348007,-1.359632 -2.977678,-2.039152 -4.889107,-2.039152 z"
         style="stroke-width:0.196149"
         id="path4" /><path
         d="M 84.666667,16.045016 37.805961,51.514168 V 122.45247 H 131.52737 V 51.514168 Z m 0,23.646101 c 1.911429,0 3.5411,0.67952 4.889107,2.039152 1.346048,1.358423 2.018998,3.00357 2.018998,4.934583 0,1.929681 -0.67295,3.573558 -2.018998,4.931999 -1.346637,1.359634 -2.976307,2.039669 -4.889107,2.039669 -1.911417,0 -3.541087,-0.680035 -4.889107,-2.039669 -1.346036,-1.358302 -2.018999,-3.002178 -2.018999,-4.931999 0,-1.931192 0.672963,-3.576339 2.018999,-4.934583 1.346636,-1.359632 2.976307,-2.039152 4.889107,-2.039152 z m -5.857524,30.31598 H 90.52419 V 105.47625 H 78.809143 Z"
         style="stroke-width:0.196149;fill:#22eccc;fill-opacity:1"
         id="path3" /><path
         d="M 84.666667,1.1911418 26.090914,45.602385 V 134.27553 H 143.24242 V 45.602385 Z m 0,14.8538742 46.860703,35.469152 V 122.45247 H 37.805961 V 51.514168 Z"
         style="stroke-width:0.196149"
         id="path2" /></g></g></svg>
