<?xml version="1.0" encoding="UTF-8" standalone="no"?>
<!-- Created with Inkscape (http://www.inkscape.org/) -->

<svg
   width="640"
   height="512"
   viewBox="0 0 169.33333 135.46667"
   version="1.1"
   id="svg1"
   inkscape:version="1.4 (86a8ad7, 2024-10-11)"
   sodipodi:docname="meeting_rooms_alternate_new.svg"
   xml:space="preserve"
   xmlns:inkscape="http://www.inkscape.org/namespaces/inkscape"
   xmlns:sodipodi="http://sodipodi.sourceforge.net/DTD/sodipodi-0.dtd"
   xmlns="http://www.w3.org/2000/svg"
   xmlns:svg="http://www.w3.org/2000/svg"><sodipodi:namedview
     id="namedview1"
     pagecolor="#ffffff"
     bordercolor="#111111"
     borderopacity="1"
     inkscape:showpageshadow="0"
     inkscape:pageopacity="0"
     inkscape:pagecheckerboard="1"
     inkscape:deskcolor="#d1d1d1"
     inkscape:document-units="px"
     showborder="false"
     inkscape:zoom="1.08"
     inkscape:cx="396.75926"
     inkscape:cy="293.05556"
     inkscape:window-width="2880"
     inkscape:window-height="1514"
     inkscape:window-x="2869"
     inkscape:window-y="7"
     inkscape:window-maximized="1"
     inkscape:current-layer="layer1" /><defs
     id="defs1" /><g
     inkscape:label="Layer 1"
     inkscape:groupmode="layer"
     id="layer1"><g
       id="g25"><path
         d="m 78.852551,75.955054 c -1.414378,0 -2.619542,0.511147 -3.615283,1.533756 -0.995304,1.022607 -1.492932,2.293458 -1.492932,3.812688 0,1.479994 0.497628,2.741565 1.492932,3.784265 0.996759,1.041798 2.201923,1.562695 3.615283,1.562695 1.452212,0 2.666431,-0.520897 3.642672,-1.562695 0.976388,-1.042715 1.46451,-2.304286 1.46451,-3.784265 0,-1.519291 -0.488122,-2.790142 -1.46451,-3.812688 -0.976386,-1.022609 -2.190605,-1.533756 -3.642672,-1.533756 z"
         style="stroke-width:0.147709"
         id="path25" /><path
         d="m 55.752669,123.61519 v 9.06715 l 46.199761,-6.53293 v -2.53422 z"
         style="stroke-width:0.147709"
         id="path24" /><path
         d="m 57.529305,28.409635 v 9.067147 h 0.001 39.990324 C 95.095431,34.854509 92.097737,33.24965 88.513461,32.687927 Z"
         style="stroke-width:0.147709"
         id="path23" /><path
         d="m 55.752669,123.15062 0.001,-83.813486 c 0,-0.542985 0.166488,-0.98875 0.499711,-1.337386 0.331535,-0.348392 0.756912,-0.52272 1.275891,-0.522966 v -9.067147 c -2.879606,1.27e-4 -5.339517,1.042099 -7.379911,3.126425 -2.039644,2.085456 -3.059762,4.685986 -3.059762,7.801074 v 83.813486 z"
         style="stroke-width:0.147709"
         id="path22" /><path
         d="m 55.752669,123.15062 h -8.663037 v 0.46457 H 36.872685 v 9.06715 h 18.879984 v -9.06715 z"
         style="stroke-width:0.147709"
         id="path21" /><path
         d="m 59.161764,123.15062 34.128149,-4.65088 V 49.043518 c 0,-1.899077 -0.571924,-3.569375 -1.715657,-5.011063 -1.145182,-1.440699 -2.575935,-2.261941 -4.292245,-2.463416 L 57.530339,37.476782 h -0.001 c -0.518979,2.46e-4 -0.944356,0.174574 -1.275891,0.522966 -0.333223,0.348636 -0.499711,0.794401 -0.499711,1.337386 l -0.001,83.813486 z M 78.852551,75.955054 c 1.452067,0 2.666286,0.511147 3.642672,1.533756 0.976388,1.022546 1.46451,2.293397 1.46451,3.812688 0,1.479979 -0.488122,2.74155 -1.46451,3.784265 -0.976241,1.041798 -2.19046,1.562695 -3.642672,1.562695 -1.41336,0 -2.618524,-0.520897 -3.615283,-1.562695 -0.995304,-1.0427 -1.492932,-2.304271 -1.492932,-3.784265 0,-1.51923 0.497628,-2.790081 1.492932,-3.812688 0.995741,-1.022609 2.200905,-1.533756 3.615283,-1.533756 z"
         style="fill:#22eccc;stroke-width:0.147709;fill-opacity:1"
         id="path20" /><path
         d="m 59.161764,123.15062 h -3.409095 v 0.46457 z"
         style="fill:#008080;stroke-width:0.147709"
         id="path19" /><path
         d="M 101.95243,123.15062 V 48.892623 c 0,-4.084266 -1.26448,-7.65321 -3.793047,-10.70684 -0.205911,-0.248685 -0.423699,-0.476513 -0.63872,-0.709001 H 57.530339 l 29.751672,4.092257 c 1.71631,0.201475 3.147063,1.022717 4.292245,2.463416 1.143733,1.441688 1.715657,3.111986 1.715657,5.011063 v 69.456222 l -34.128149,4.65088 z"
         style="stroke-width:0.147709"
         id="path18" /><path
         d="M 101.95243,123.15062 H 59.161764 l -3.409095,0.46457 h 46.199761 z"
         style="stroke-width:0.147709"
         id="path17" /><path
         d="M 113.50263,123.15062 V 39.337134 c 0,-0.542985 -0.16649,-0.98875 -0.49971,-1.337386 -0.33322,-0.348638 -0.7589,-0.522966 -1.27692,-0.522966 H 97.520663 c 0.215021,0.232488 0.432809,0.460316 0.63872,0.709001 2.528567,3.05363 3.793047,6.622574 3.793047,10.70684 v 74.257997 z"
         style="fill:#666666;stroke-width:0.147709"
         id="path16" /><path
         d="m 113.50263,123.15062 h -11.5502 v 0.46457 h 11.5502 z"
         style="fill:#666666;stroke-width:0.147709"
         id="path15" /><path
         d="M 122.16515,123.15062 V 39.337134 c 0,-3.115088 -0.99593,-5.715618 -2.98741,-7.801074 -1.99237,-2.084452 -4.47625,-3.126425 -7.45226,-3.126425 H 57.529822 l 30.983639,4.278292 c 3.584276,0.561723 6.58197,2.166582 9.007202,4.788855 H 111.726 c 0.51802,0 0.9437,0.174328 1.27692,0.522966 0.33322,0.348636 0.49971,0.794401 0.49971,1.337386 v 83.813486 z"
         style="stroke-width:0.147709"
         id="path14" /><path
         d="m 122.16515,123.15062 h -8.66252 v 0.46457 h -11.5502 v 2.53422 l -46.199761,6.53293 h 76.629951 v -9.06715 h -10.21747 z"
         style="stroke-width:0.147709"
         id="path3" /><path
         d="m 30.817757,12.316044 c -0.6204,0 -1.187765,0.253642 -1.702738,0.761711 -0.517002,0.506672 -0.775663,1.064714 -0.775663,1.674316 V 120.71408 c 0,0.6096 0.258661,1.16764 0.775663,1.67432 0.514973,0.50807 1.082338,0.76222 1.702738,0.76222 H 47.089632 V 39.337134 c 0,-3.115088 1.020118,-5.715618 3.059762,-7.801074 2.040394,-2.084326 4.500305,-3.126298 7.379911,-3.126425 h 5.17e-4 54.195658 c 2.97601,0 5.45989,1.041973 7.45226,3.126425 1.99148,2.085456 2.98741,4.685986 2.98741,7.801074 v 83.813486 h 16.35043 c 0.6204,0 1.18776,-0.25415 1.70273,-0.76222 0.517,-0.50668 0.77567,-1.06472 0.77567,-1.67432 V 14.752071 c 0,-0.609602 -0.25867,-1.167644 -0.77567,-1.674316 -0.51497,-0.508069 -1.08233,-0.761711 -1.70273,-0.761711 z"
         style="fill:#fff6d5;stroke-width:0.199532;fill-opacity:1"
         id="path2" /><path
         d="m 30.817757,0.44079997 c -4.064842,0 -7.505514,1.38547803 -10.32185,4.15633543 C 17.679774,7.3679927 16.271875,10.75331 16.271875,14.752588 V 120.71408 c 0,3.99928 1.407899,7.3846 4.224032,10.15545 2.816336,2.77086 6.257008,4.15634 10.32185,4.15634 H 138.51558 c 4.06484,0 7.50551,-1.38548 10.32185,-4.15634 2.81613,-2.77085 4.22403,-6.15617 4.22403,-10.15545 V 14.752588 c 0,-3.999278 -1.4079,-7.3845953 -4.22403,-10.1554526 -2.81634,-2.7708574 -6.25701,-4.15633543 -10.32185,-4.15633543 z m 0,11.87524403 H 138.51558 c 0.6204,0 1.18776,0.253642 1.70273,0.761711 0.517,0.506672 0.77567,1.064714 0.77567,1.674316 V 120.71408 c 0,0.6096 -0.25867,1.16764 -0.77567,1.67432 -0.51497,0.50807 -1.08233,0.76222 -1.70273,0.76222 h -16.35043 v 0.46457 h 10.21747 v 9.06715 H 55.752669 36.872685 v -9.06715 h 10.216947 v -0.46457 H 30.817757 c -0.6204,0 -1.187765,-0.25415 -1.702738,-0.76222 -0.517002,-0.50668 -0.775663,-1.06472 -0.775663,-1.67432 V 14.752071 c 0,-0.609602 0.258661,-1.167644 0.775663,-1.674316 0.514973,-0.508069 1.082338,-0.761711 1.702738,-0.761711 z"
         style="stroke-width:0.199532"
         id="path1" /></g></g></svg>
