<?xml version="1.0" encoding="UTF-8" standalone="no"?>
<!-- Created with Inkscape (http://www.inkscape.org/) -->

<svg
   width="640"
   height="512"
   viewBox="0 0 169.33333 135.46667"
   version="1.1"
   id="svg1"
   inkscape:version="1.4 (86a8ad7, 2024-10-11)"
   sodipodi:docname="meeting_rooms.svg"
   xml:space="preserve"
   xmlns:inkscape="http://www.inkscape.org/namespaces/inkscape"
   xmlns:sodipodi="http://sodipodi.sourceforge.net/DTD/sodipodi-0.dtd"
   xmlns="http://www.w3.org/2000/svg"
   xmlns:svg="http://www.w3.org/2000/svg"><sodipodi:namedview
     id="namedview1"
     pagecolor="#ffffff"
     bordercolor="#111111"
     borderopacity="1"
     inkscape:showpageshadow="0"
     inkscape:pageopacity="0"
     inkscape:pagecheckerboard="1"
     inkscape:deskcolor="#d1d1d1"
     inkscape:document-units="px"
     showborder="false"
     inkscape:zoom="1.08"
     inkscape:cx="-6.0185185"
     inkscape:cy="241.2037"
     inkscape:window-width="2880"
     inkscape:window-height="1514"
     inkscape:window-x="5749"
     inkscape:window-y="7"
     inkscape:window-maximized="1"
     inkscape:current-layer="layer1"
     showgrid="true"><inkscape:grid
       id="grid94"
       units="px"
       originx="0"
       originy="0"
       spacingx="0.26458333"
       spacingy="0.26458334"
       empcolor="#0099e5"
       empopacity="0.30196078"
       color="#0099e5"
       opacity="0.14901961"
       empspacing="5"
       enabled="true"
       visible="true" /></sodipodi:namedview><defs
     id="defs1" /><g
     inkscape:label="Layer 1"
     inkscape:groupmode="layer"
     id="layer1"><g
       id="g95"><path
         d="m 56.092184,107.22085 c 0.04405,-0.28911 0.126543,-0.567 0.191202,-0.85008 -0.06466,0.2288 -0.147148,0.45362 -0.191202,0.6873 z"
         style="fill:#ff03ff;stroke-width:0.234557"
         id="path81" /><path
         d="M 113.35484,107.98979 H 56.092184 v 0.38396 h 57.262656 z"
         style="stroke-width:0.21087"
         id="path80" /><path
         d="m 113.14968,106.37077 c -0.98663,-3.25707 -4.0004,-6.02754 -9.0966,-8.298203 -5.453073,-2.43015 -11.915059,-3.644739 -19.385896,-3.644739 -7.470999,0 -13.933334,1.214589 -19.386414,3.644739 -5.096523,2.270653 -8.0769,5.041153 -8.997384,8.298203 -0.06466,0.28308 -0.14715,0.56097 -0.191202,0.85008 v 0.76894 h 57.262656 v -0.76894 c -0.049,-0.2891 -0.13585,-0.56701 -0.20516,-0.85008 z"
         style="fill:#ff03ff;stroke-width:0.234557"
         id="path79" /><path
         d="m 113.14968,106.37077 c 0.0693,0.28307 0.15613,0.56098 0.20516,0.85008 v -0.16278 c -0.049,-0.23367 -0.13585,-0.45851 -0.20516,-0.6873 z"
         id="path78"
         style="" /><path
         d="m 84.667184,91.593893 c -7.470999,0 -13.933334,1.503012 -19.386414,4.509802 -5.096539,2.809439 -8.076911,6.237155 -8.997384,10.267075 0.920484,-3.25705 3.900861,-6.02755 8.997384,-8.298203 5.45308,-2.43015 11.915415,-3.644739 19.386414,-3.644739 7.470837,0 13.932823,1.214589 19.385896,3.644739 5.0962,2.270663 8.10997,5.041133 9.0966,8.298203 -0.98663,-4.02993 -4.00039,-7.457628 -9.0966,-10.267075 -5.453077,-3.00679 -11.915059,-4.509802 -19.385896,-4.509802 z"
         style="stroke-width:0.21087"
         id="path77" /><path
         d="m 84.639278,81.204346 c -5.827116,0 -11.196401,0.636082 -16.10806,1.908411 -4.912949,1.270911 -9.171595,3.177787 -12.775965,5.721097 -3.604371,2.54182 -6.363632,5.522077 -8.278047,8.941057 -1.914413,3.417499 -2.87166,7.189989 -2.87166,11.317139 v 12.12122 h 80.122244 v -12.12122 c 0,-4.12715 -0.93853,-7.89964 -2.81533,-11.317139 -1.8768,-3.41898 -4.6173,-6.399237 -8.22276,-8.941057 -3.60438,-2.54322 -7.86275,-4.450098 -12.77441,-5.721097 -4.911846,-1.272329 -10.337113,-1.908411 -16.276012,-1.908411 z m 0.02791,10.389547 c 7.470837,0 13.932819,1.503012 19.385896,4.509802 5.09621,2.809447 8.10997,6.237145 9.0966,10.267075 0.0693,0.22879 0.15613,0.45363 0.20516,0.6873 v 0.93172 0.38396 H 56.092184 v -0.38396 -0.93172 c 0.04405,-0.23368 0.126539,-0.4585 0.191202,-0.6873 0.920473,-4.02992 3.900845,-7.457636 8.997384,-10.267075 5.45308,-3.00679 11.915415,-4.509802 19.386414,-4.509802 z"
         style="stroke-width:0.21087"
         id="path76" /><path
         d="m 115.5976,68.672294 c 0.0544,-0.343556 0.14153,-0.678008 0.23616,-1.010274 -0.0946,0.277235 -0.18173,0.556187 -0.23616,0.842843 z"
         id="path75"
         style="" /><path
         d="m 160.25792,67.935905 c 0.0647,0.243185 0.12711,0.487232 0.17105,0.736389 v -0.167431 c -0.0409,-0.193513 -0.11214,-0.379743 -0.17105,-0.568958 z"
         id="path73"
         style="" /><path
         d="m 160.12459,67.492005 c 0.0569,0.144999 0.0874,0.296287 0.13333,0.4439 -0.0398,-0.149335 -0.0857,-0.296812 -0.13333,-0.4439 z"
         style="fill:#00d400;stroke-width:0.225061"
         id="path72" /><path
         d="M 53.824622,68.728622 H 8.9932495 v 0.06666 H 53.824622 Z"
         style="fill:#ffff00;stroke-width:0.222868"
         id="path69" /><path
         d="m 31.364494,56.406893 c -5.849115,0 -10.908618,1.10965 -15.177885,3.329513 -4.270417,2.219864 -6.6678903,4.955278 -7.1933595,8.207251 v 0.06046 c 0.5254692,-2.766923 2.9229425,-5.094277 7.1933595,-6.983036 4.269267,-1.888759 9.32877,-2.832902 15.177885,-2.832902 5.848988,0 10.908103,0.944143 15.177368,2.832902 4.270128,1.888759 6.697934,4.216113 7.28276,6.983036 v -0.06046 C 53.239796,64.691684 50.81199,61.95627 46.541862,59.736406 42.272597,57.516543 37.213482,56.406893 31.364494,56.406893 Z"
         style="fill:#ffff00;stroke-width:0.222868"
         id="path67" /><path
         d="m 84.66615,50.436198 c -2.203471,0 -4.085112,0.727651 -5.645133,2.183329 -1.560001,1.454455 -2.339909,3.257646 -2.339909,5.409489 0,2.095208 0.779908,3.884775 2.339909,5.368148 1.560021,1.482206 3.453332,2.22312 5.679756,2.22312 h 5.17e-4 c 2.227701,0 4.109343,-0.740913 5.645134,-2.22312 1.536156,-1.483425 2.304252,-3.284524 2.304252,-5.402771 0,-2.117127 -0.765322,-3.906693 -2.295984,-5.368148 -1.53064,-1.460215 -3.426697,-2.190047 -5.688542,-2.190047 z"
         style="fill:#ff00ff;stroke-width:0.186913"
         id="path66" /><path
         d="m 84.667184,40.046135 c -5.253032,0 -9.718016,1.723767 -13.395048,5.170743 -3.675955,3.445825 -5.514393,7.716173 -5.514393,12.811621 0,4.995011 1.844419,9.240699 5.532479,12.736174 3.688062,3.49661 8.155496,5.245158 13.402283,5.245158 5.350114,0 9.835019,-1.75365 13.454993,-5.260661 3.618882,-3.508164 5.428092,-7.756876 5.428092,-12.744958 0,-5.088519 -1.81169,-9.352851 -5.435327,-12.794052 -3.624927,-3.442369 -8.115786,-5.164025 -13.473079,-5.164025 z m -0.001,10.390063 c 2.261845,0 4.157902,0.729832 5.688542,2.190047 1.530662,1.461455 2.295984,3.251021 2.295984,5.368148 0,2.118247 -0.768096,3.919346 -2.304252,5.402771 -1.535791,1.482207 -3.417433,2.22312 -5.645134,2.22312 h -5.17e-4 c -2.226424,0 -4.119735,-0.740914 -5.679756,-2.22312 -1.560001,-1.483373 -2.339909,-3.27294 -2.339909,-5.368148 0,-2.151843 0.779908,-3.955034 2.339909,-5.409489 1.560021,-1.455678 3.441662,-2.183329 5.645133,-2.183329 z"
         style="stroke-width:0.186913"
         id="path63" /><path
         d="m 133.53759,26.956494 c -0.14812,-0.14781 -0.28802,-0.29902 -0.41807,-0.454236 0.13359,0.159446 0.27625,0.315009 0.42892,0.466639 -0.004,-0.004 -0.007,-0.0084 -0.0109,-0.0124 z"
         id="path61"
         style="" /><path
         d="m 132.82497,26.104867 c 0.21035,0.295048 0.44175,0.581346 0.71262,0.851627 0.004,0.004 0.007,0.0084 0.0114,0.0124 -0.2758,-0.273933 -0.51043,-0.564601 -0.72398,-0.86403 z"
         id="path60"
         style="" /><path
         d="m 132.23017,25.06307 c 0.0646,0.146333 0.12508,0.29438 0.20206,0.435632 0.0644,0.118161 0.14913,0.228014 0.22221,0.342615 -0.16048,-0.251581 -0.30567,-0.509509 -0.42427,-0.778247 z"
         style="stroke-width:0.186913"
         id="path59" /><path
         d="m 132.22862,26.93479 c 0.1191,-0.272214 0.26486,-0.532026 0.42633,-0.784448 -0.0733,0.114662 -0.15812,0.223858 -0.22272,0.342615 -0.0777,0.142749 -0.13861,0.29317 -0.20361,0.441833 z"
         id="path58"
         style="" /><path
         d="m 132.65444,32.720483 c -0.16048,-0.251581 -0.30567,-0.509509 -0.42427,-0.778247 0.0646,0.146333 0.12506,0.294381 0.20206,0.435633 0.0644,0.118161 0.14911,0.228013 0.22221,0.342614 z"
         id="path57"
         style="" /><path
         d="m 143.17007,25.941569 c 0.2138,0.314371 0.39455,0.643628 0.54364,0.98702 -0.1415,-0.325852 -0.30339,-0.642808 -0.5054,-0.941545 -0.0108,-0.01604 -0.0272,-0.02951 -0.0382,-0.04547 z"
         id="path56"
         style="" /><path
         d="m 142.4218,25.040332 c 0.28513,0.284358 0.53096,0.586497 0.74827,0.901237 -0.21484,-0.315912 -0.46306,-0.616791 -0.74827,-0.901237 z"
         style="fill:#00d400;stroke-width:0.186913"
         id="path55" /><path
         d="m 132.65495,19.271175 c -0.0733,0.114662 -0.15813,0.223858 -0.22272,0.342615 -0.0777,0.142749 -0.1386,0.29317 -0.20361,0.441833 0.1191,-0.272214 0.26486,-0.532026 0.42633,-0.784448 z"
         style="stroke-width:0.186913"
         id="path52" /><path
         d="m 133.5381,18.167367 c -0.27105,0.265201 -0.50266,0.548875 -0.71313,0.842325 0.21355,-0.297703 0.44818,-0.58562 0.72398,-0.854211 -0.004,0.0038 -0.007,0.0081 -0.0109,0.01189 z"
         id="path51"
         style="" /><path
         d="m 133.54844,18.155481 c -0.15267,0.148675 -0.29533,0.301811 -0.42892,0.459403 0.13017,-0.153559 0.2703,-0.302425 0.41858,-0.447517 0.004,-0.0038 0.006,-0.0081 0.0103,-0.01189 z"
         style="stroke-width:0.186913"
         id="path50" /><g
         id="g81"><path
           d="m 53.824622,68.004118 c -0.584826,-2.766923 -3.012632,-5.094277 -7.28276,-6.983036 -4.269265,-1.888759 -9.32838,-2.832902 -15.177368,-2.832902 -5.849115,0 -10.908618,0.944143 -15.177885,2.832902 -4.270417,1.888759 -6.6678903,4.216113 -7.1933595,6.983036 v 0.724504 H 53.824622 Z"
           style="fill:#ffff00;stroke-width:0.222868"
           id="path68" /><path
           d="m 31.34279,47.910771 c -4.562104,0 -8.765733,0.494235 -12.611117,1.483113 -3.846393,0.987773 -7.180595,2.470056 -10.00249,4.446757 -2.8218956,1.975546 -4.9819281,4.29215 -6.4807414,6.949447 C 0.74962977,63.446229 0,66.378245 0,69.585934 v 9.420096 h 62.728988 v -9.420096 c 0,-3.207689 -0.735153,-6.139705 -2.204517,-8.795846 -1.469364,-2.657297 -3.615102,-4.973901 -6.43785,-6.949447 -2.821902,-1.976634 -6.155555,-3.458916 -10.00094,-4.446757 -3.845527,-0.988878 -8.093272,-1.483113 -12.742891,-1.483113 z m 0.0217,8.496122 c 5.848988,0 10.908103,1.10965 15.177368,3.329513 4.270128,2.219864 6.697934,4.955278 7.28276,8.207251 v 0.851627 H 8.9932495 v -0.851627 c 0.5254692,-3.251973 2.9229425,-5.987387 7.1933595,-8.207251 4.269267,-2.219863 9.32877,-3.329513 15.177885,-3.329513 z"
           style="stroke-width:0.205576"
           id="path64" /><path
           d="m 31.363977,22.749516 c -1.725118,0 -3.19853,0.595022 -4.419885,1.785421 -1.221339,1.189398 -1.83193,2.664324 -1.83193,4.424019 0,1.713382 0.610591,3.17635 1.83193,4.389396 1.221355,1.212091 2.703669,1.817977 4.446757,1.817977 h 5.17e-4 c 1.744087,0 3.216983,-0.605885 4.419368,-1.817977 1.202671,-1.213089 1.804024,-2.686113 1.804024,-4.418335 0,-1.731306 -0.598936,-3.194273 -1.797306,-4.389396 -1.198352,-1.194108 -2.682655,-1.791105 -4.453475,-1.791105 z"
           style="fill:#ffff00;stroke-width:0.186913"
           id="path53" /><path
           d="m 31.364494,14.253394 c -4.112648,0 -7.608433,1.409359 -10.487215,4.228165 -2.87794,2.817865 -4.317049,6.310017 -4.317049,10.47688 0,4.084731 1.444102,7.556401 4.331518,10.414868 2.887418,2.859394 6.385141,4.289144 10.4929,4.289144 4.188654,0 7.699612,-1.433645 10.533724,-4.301546 2.833256,-2.868842 4.249869,-6.343038 4.249869,-10.422103 0,-4.161197 -1.418575,-7.648844 -4.255554,-10.462927 -2.837989,-2.815038 -6.353919,-4.222481 -10.548193,-4.222481 z m -5.17e-4,8.496122 c 1.77082,0 3.255123,0.596997 4.453475,1.791105 1.19837,1.195123 1.797306,2.65809 1.797306,4.389396 0,1.732222 -0.601353,3.205246 -1.804024,4.418335 -1.202385,1.212092 -2.675281,1.817977 -4.419368,1.817977 h -5.17e-4 c -1.743088,0 -3.225402,-0.605886 -4.446757,-1.817977 -1.221339,-1.213046 -1.83193,-2.676014 -1.83193,-4.389396 0,-1.759695 0.610591,-3.234621 1.83193,-4.424019 1.221355,-1.190399 2.694767,-1.785421 4.419885,-1.785421 z"
           style="stroke-width:0.186913"
           id="path48" /></g><path
         d="m 157.93351,68.096619 h -44.83137 v 0.06666 h 44.83137 z"
         id="path87"
         style="" /><g
         id="g94"
         transform="translate(3.7499999e-6,0.81334877)"><path
           d="M 160.42896,67.237402 C 159.84414,63.956 157.41633,61.195901 153.1462,58.955949 148.87694,56.715996 143.81782,55.5963 137.96883,55.5963 c -5.84911,0 -10.90861,1.119696 -15.17788,3.359649 -4.27042,2.239952 -6.66789,5.000051 -7.19336,8.281453 v 0.859217 h 44.83137 z"
           style="fill:#00d400;stroke-width:0.242705"
           id="path86" /><path
           d="m 137.94713,47.278768 c -4.5621,0 -8.76573,0.494236 -12.61112,1.483114 -3.84639,0.987773 -7.18059,2.470056 -10.00249,4.446757 -2.82189,1.975546 -4.98192,4.292149 -6.48074,6.949446 -1.49881,2.656141 -2.24844,5.588157 -2.24844,8.795846 v 9.420097 h 62.72899 v -9.420097 c 0,-3.207689 -0.73515,-6.139705 -2.20452,-8.795846 -1.46936,-2.657297 -3.6151,-4.9739 -6.43785,-6.949446 -2.8219,-1.976634 -6.15555,-3.458916 -10.00094,-4.446757 -3.84552,-0.988878 -8.09327,-1.483114 -12.74289,-1.483114 z m 0.0217,8.496122 c 5.84899,0 10.90811,1.10965 15.17737,3.329513 4.27013,2.219864 6.69794,4.955278 7.28276,8.207251 v 0.851627 h -44.83137 v -0.851627 c 0.52547,-3.251973 2.92294,-5.987387 7.19336,-8.207251 4.26927,-2.219863 9.32877,-3.329513 15.17788,-3.329513 z"
           style="stroke-width:0.205576"
           id="path84" /><path
           d="m 137.96832,22.117513 c -1.72512,0 -3.19853,0.595022 -4.41989,1.785421 -1.22134,1.189398 -1.83193,2.664324 -1.83193,4.424019 0,1.713382 0.61059,3.17635 1.83193,4.389396 1.22136,1.212091 2.70367,1.817977 4.44676,1.817977 h 5.2e-4 c 1.74408,0 3.21698,-0.605885 4.41937,-1.817977 1.20267,-1.213089 1.80402,-2.686113 1.80402,-4.418335 0,-1.731306 -0.59894,-3.194273 -1.79731,-4.389396 -1.19835,-1.194108 -2.68265,-1.791105 -4.45347,-1.791105 z"
           style="fill:#00d400;stroke-width:0.186913"
           id="path83" /><path
           d="m 137.96883,13.621391 c -4.11264,0 -7.60843,1.40936 -10.48721,4.228166 -2.87794,2.817865 -4.31705,6.310016 -4.31705,10.476879 0,4.084731 1.4441,7.556402 4.33152,10.414869 2.88742,2.859394 6.38514,4.289144 10.4929,4.289144 4.18865,0 7.69961,-1.433646 10.53372,-4.301547 2.83326,-2.868842 4.24987,-6.343038 4.24987,-10.422103 0,-4.161197 -1.41857,-7.648844 -4.25555,-10.462927 -2.83799,-2.815038 -6.35392,-4.222481 -10.5482,-4.222481 z m -5.1e-4,8.496122 c 1.77082,0 3.25512,0.596997 4.45347,1.791105 1.19837,1.195123 1.79731,2.65809 1.79731,4.389396 0,1.732222 -0.60135,3.205246 -1.80402,4.418335 -1.20239,1.212092 -2.67529,1.817977 -4.41937,1.817977 h -5.2e-4 c -1.74309,0 -3.2254,-0.605886 -4.44676,-1.817977 -1.22134,-1.213046 -1.83193,-2.676014 -1.83193,-4.389396 0,-1.759695 0.61059,-3.234621 1.83193,-4.424019 1.22136,-1.190399 2.69477,-1.785421 4.41989,-1.785421 z"
           style="stroke-width:0.186913"
           id="path82" /></g></g></g></svg>
