<?xml version="1.0" encoding="UTF-8" standalone="no"?>
<!-- Created with Inkscape (http://www.inkscape.org/) -->

<svg
   width="640"
   height="512"
   viewBox="0 0 169.33333 135.46667"
   version="1.1"
   id="svg1"
   inkscape:version="1.4 (86a8ad7, 2024-10-11)"
   sodipodi:docname="museum_passes_new.svg"
   xml:space="preserve"
   xmlns:inkscape="http://www.inkscape.org/namespaces/inkscape"
   xmlns:sodipodi="http://sodipodi.sourceforge.net/DTD/sodipodi-0.dtd"
   xmlns="http://www.w3.org/2000/svg"
   xmlns:svg="http://www.w3.org/2000/svg"><sodipodi:namedview
     id="namedview1"
     pagecolor="#ffffff"
     bordercolor="#111111"
     borderopacity="1"
     inkscape:showpageshadow="0"
     inkscape:pageopacity="0"
     inkscape:pagecheckerboard="1"
     inkscape:deskcolor="#d1d1d1"
     inkscape:document-units="px"
     showborder="false"
     inkscape:zoom="1.08"
     inkscape:cx="396.75926"
     inkscape:cy="293.05556"
     inkscape:window-width="2880"
     inkscape:window-height="1514"
     inkscape:window-x="2869"
     inkscape:window-y="7"
     inkscape:window-maximized="1"
     inkscape:current-layer="layer1" /><defs
     id="defs1" /><g
     inkscape:label="Layer 1"
     inkscape:groupmode="layer"
     id="layer1"><g
       id="g6"><path
         d="m 84.665117,89.943347 c -1.457452,0 -2.677773,0.506928 -3.661276,1.519804 -0.984642,1.012878 -1.476912,2.268402 -1.476912,3.766179 0,1.496599 0.492784,2.750341 1.478463,3.762044 0.985677,1.010576 2.206412,1.515666 3.662825,1.515666 1.457451,0 2.678291,-0.5064 3.661792,-1.519283 0.984642,-1.011813 1.476396,-2.266445 1.476396,-3.764112 0,-1.497667 -0.492269,-2.751403 -1.477946,-3.762044 -0.98568,-1.011812 -2.206929,-1.518254 -3.663342,-1.518254 z"
         style="stroke-width:0.222766"
         id="path6" /><path
         d="m 84.665117,62.451485 c -1.457452,0 -2.677773,0.506411 -3.661276,1.519287 -0.984642,1.012877 -1.476912,2.26751 -1.476912,3.764112 0,1.497667 0.492784,2.751938 1.478463,3.762561 0.985677,1.011812 2.206412,1.517737 3.662825,1.517737 1.457451,0 2.678291,-0.506411 3.661792,-1.519287 0.984642,-1.012877 1.476396,-2.267509 1.476396,-3.764112 0,-1.497666 -0.492269,-2.751938 -1.477946,-3.762561 -0.98568,-1.011812 -2.206929,-1.517737 -3.663342,-1.517737 z"
         style="stroke-width:0.222766"
         id="path5" /><path
         d="m 84.665117,34.959623 c -1.457452,0 -2.677773,0.50641 -3.661276,1.519287 -0.984642,1.011813 -1.476912,2.266445 -1.476912,3.764112 0,1.497666 0.492784,2.75192 1.478463,3.762561 0.985677,1.011812 2.206412,1.517737 3.662825,1.517737 1.457451,0 2.678291,-0.506927 3.661792,-1.519804 0.984642,-1.012876 1.476396,-2.268406 1.476396,-3.766179 0,-1.496602 -0.492269,-2.750338 -1.477946,-3.762044 -0.98568,-1.010569 -2.206929,-1.51567 -3.663342,-1.51567 z"
         style="stroke-width:0.222766"
         id="path4" /><path
         d="m 31.948438,25.478031 c -0.615618,0 -1.120914,0.203086 -1.516187,0.609266 -0.395273,0.40618 -0.592729,0.925957 -0.592729,1.558561 v 15.790767 c 4.226242,2.582251 7.567357,6.015452 10.023161,10.29963 2.455786,4.284197 3.683496,8.94996 3.683496,13.997078 0,5.047119 -1.22771,9.712901 -3.683496,13.997079 -2.455804,4.284178 -5.796919,7.717379 -10.023161,10.29963 v 15.790768 c 0,0.6326 0.197456,1.15187 0.592729,1.55804 0.395273,0.40619 0.900569,0.60979 1.516187,0.60979 H 137.3849 c 0.61561,0 1.12092,-0.2036 1.51618,-0.60979 0.39528,-0.40617 0.59273,-0.92544 0.59273,-1.55804 V 92.030042 c -4.22626,-2.582251 -7.56736,-6.015452 -10.02316,-10.29963 -2.45578,-4.284178 -3.6835,-8.94996 -3.6835,-13.997079 0,-5.047118 1.22772,-9.712881 3.6835,-13.997078 2.4558,-4.284178 5.7969,-7.717379 10.02316,-10.29963 V 27.645858 c 0,-0.632604 -0.19745,-1.152381 -0.59273,-1.558561 -0.39526,-0.40618 -0.90057,-0.609266 -1.51618,-0.609266 z m 52.716679,9.481592 c 1.456413,0 2.677662,0.505101 3.663342,1.51567 0.985677,1.011706 1.477946,2.265442 1.477946,3.762044 0,1.497773 -0.491754,2.753303 -1.476396,3.766179 -0.983501,1.012877 -2.204341,1.519804 -3.661792,1.519804 -1.456413,0 -2.677148,-0.505925 -3.662825,-1.517737 -0.985679,-1.010641 -1.478463,-2.264895 -1.478463,-3.762561 0,-1.497667 0.49227,-2.752299 1.476912,-3.764112 0.983503,-1.012877 2.203824,-1.519287 3.661276,-1.519287 z m 0,27.491862 c 1.456413,0 2.677662,0.505925 3.663342,1.517737 0.985677,1.010623 1.477946,2.264895 1.477946,3.762561 0,1.496603 -0.491754,2.751235 -1.476396,3.764112 -0.983501,1.012876 -2.204341,1.519287 -3.661792,1.519287 -1.456413,0 -2.677148,-0.505925 -3.662825,-1.517737 -0.985679,-1.010623 -1.478463,-2.264894 -1.478463,-3.762561 0,-1.496602 0.49227,-2.751235 1.476912,-3.764112 0.983503,-1.012876 2.203824,-1.519287 3.661276,-1.519287 z m 0,27.491862 c 1.456413,0 2.677662,0.506442 3.663342,1.518254 0.985677,1.010641 1.477946,2.264377 1.477946,3.762044 0,1.497667 -0.491754,2.752299 -1.476396,3.764112 -0.983501,1.012883 -2.204341,1.519283 -3.661792,1.519283 -1.456413,0 -2.677148,-0.50509 -3.662825,-1.515666 -0.985679,-1.011703 -1.478463,-2.265445 -1.478463,-3.762044 0,-1.497777 0.49227,-2.753301 1.476912,-3.766179 0.983503,-1.012876 2.203824,-1.519804 3.661276,-1.519804 z"
         style="fill:#63ce1a;stroke-width:0.222766;fill-opacity:1"
         id="path3" /><path
         d="m 31.948438,14.914335 c -3.407273,0 -6.323752,1.246794 -8.749854,3.739824 -2.426102,2.493047 -3.639054,5.490406 -3.639054,8.991699 v 23.157243 c 3.901855,0.767642 7.161758,2.734302 9.779765,5.899898 2.617987,3.164423 3.926892,6.841215 3.926892,11.030334 0,4.189101 -1.308905,7.865911 -3.926892,11.030335 -2.618007,3.165595 -5.87791,5.132255 -9.779765,5.899898 v 23.157244 c 0,3.50129 1.212952,6.49865 3.639054,8.9917 2.426102,2.49305 5.342581,3.73982 8.749854,3.73982 H 137.3849 c 3.40726,0 6.32374,-1.24677 8.74985,-3.73982 2.42609,-2.49305 3.63905,-5.49041 3.63905,-8.9917 V 84.663566 c -3.90187,-0.767624 -7.16178,-2.734285 -9.77976,-5.899898 -2.61799,-3.164424 -3.92689,-6.841234 -3.92689,-11.030335 0,-4.189119 1.3089,-7.865911 3.92689,-11.030334 2.61798,-3.165596 5.87789,-5.132256 9.77976,-5.899898 V 27.645858 c 0,-3.501293 -1.21296,-6.498652 -3.63905,-8.991699 -2.42611,-2.49303 -5.34259,-3.739824 -8.74985,-3.739824 z m 0,10.563696 H 137.3849 c 0.61561,0 1.12092,0.203086 1.51618,0.609266 0.39528,0.40618 0.59273,0.925957 0.59273,1.558561 v 15.790767 c -4.22626,2.582251 -7.56736,6.015452 -10.02316,10.29963 -2.45578,4.284197 -3.6835,8.94996 -3.6835,13.997078 0,5.047119 1.22772,9.712901 3.6835,13.997079 2.4558,4.284178 5.7969,7.717379 10.02316,10.29963 v 15.790768 c 0,0.6326 -0.19745,1.15187 -0.59273,1.55804 -0.39526,0.40619 -0.90057,0.60979 -1.51618,0.60979 H 31.948438 c -0.615618,0 -1.120914,-0.2036 -1.516187,-0.60979 -0.395273,-0.40617 -0.592729,-0.92544 -0.592729,-1.55804 V 92.030042 c 4.226242,-2.582251 7.567357,-6.015452 10.023161,-10.29963 2.455786,-4.284178 3.683496,-8.94996 3.683496,-13.997079 0,-5.047118 -1.22771,-9.712881 -3.683496,-13.997078 -2.455804,-4.284178 -5.796919,-7.717379 -10.023161,-10.29963 V 27.645858 c 0,-0.632604 0.197456,-1.152381 0.592729,-1.558561 0.395273,-0.40618 0.900569,-0.609266 1.516187,-0.609266 z"
         style="stroke-width:0.222766"
         id="path2" /></g></g></svg>
