<?xml version="1.0" encoding="UTF-8" standalone="no"?>
<!-- Created with Inkscape (http://www.inkscape.org/) -->

<svg
   width="640"
   height="512"
   viewBox="0 0 169.33333 135.46667"
   version="1.1"
   id="svg1"
   inkscape:version="1.4 (86a8ad7, 2024-10-11)"
   sodipodi:docname="my_lists_new.svg"
   xml:space="preserve"
   xmlns:inkscape="http://www.inkscape.org/namespaces/inkscape"
   xmlns:sodipodi="http://sodipodi.sourceforge.net/DTD/sodipodi-0.dtd"
   xmlns="http://www.w3.org/2000/svg"
   xmlns:svg="http://www.w3.org/2000/svg"><sodipodi:namedview
     id="namedview1"
     pagecolor="#ffffff"
     bordercolor="#111111"
     borderopacity="1"
     inkscape:showpageshadow="0"
     inkscape:pageopacity="0"
     inkscape:pagecheckerboard="1"
     inkscape:deskcolor="#d1d1d1"
     inkscape:document-units="px"
     showborder="false"
     inkscape:zoom="1.08"
     inkscape:cx="396.75926"
     inkscape:cy="293.05556"
     inkscape:window-width="2880"
     inkscape:window-height="1514"
     inkscape:window-x="5749"
     inkscape:window-y="7"
     inkscape:window-maximized="1"
     inkscape:current-layer="layer1" /><defs
     id="defs1" /><g
     inkscape:label="Layer 1"
     inkscape:groupmode="layer"
     id="layer1"><g
       id="g9"><path
         d="m 74.918425,101.68372 v 5.23999 h 40.219255 v -5.23999 z"
         style="baseline-shift:baseline;display:inline;overflow:visible;vector-effect:none;enable-background:accumulate;stop-color:#000000;stop-opacity:1"
         id="path9" /><path
         d="m 60.02631,98.492696 c -1.644013,0 -3.051157,0.56915 -4.221447,1.707394 -1.170927,1.13766 -1.756482,2.50543 -1.756482,4.10362 0,1.5982 0.585555,2.96597 1.756482,4.10363 1.17029,1.13823 2.577434,1.70739 4.221447,1.70739 1.644013,0 3.051155,-0.56916 4.221448,-1.70739 1.170835,-1.13766 1.756482,-2.50543 1.756482,-4.10363 0,-1.59819 -0.585647,-2.96596 -1.756482,-4.10362 -1.170293,-1.138244 -2.577435,-1.707394 -4.221448,-1.707394 z"
         style="baseline-shift:baseline;display:inline;overflow:visible;vector-effect:none;enable-background:accumulate;stop-color:#000000;stop-opacity:1"
         id="path8" /><path
         d="m 74.918425,80.723755 v 5.23999 h 40.219255 v -5.23999 z"
         style="baseline-shift:baseline;display:inline;overflow:visible;vector-effect:none;enable-background:accumulate;stop-color:#000000;stop-opacity:1"
         id="path7" /><path
         d="m 60.02631,77.532735 c -1.644013,0 -3.051157,0.569151 -4.221447,1.70739 -1.170927,1.137656 -1.756482,2.505433 -1.756482,4.103625 0,1.598204 0.585555,2.965978 1.756482,4.103626 1.17029,1.138247 2.577434,1.707389 4.221447,1.707389 1.644013,0 3.051155,-0.569142 4.221448,-1.707389 1.170835,-1.137648 1.756482,-2.505422 1.756482,-4.103626 0,-1.598192 -0.585647,-2.965969 -1.756482,-4.103625 -1.170293,-1.138239 -2.577435,-1.70739 -4.221448,-1.70739 z"
         style="baseline-shift:baseline;display:inline;overflow:visible;vector-effect:none;enable-background:accumulate;stop-color:#000000;stop-opacity:1"
         id="path6" /><path
         d="m 74.918425,59.763794 v 5.23999 h 40.219255 v -5.23999 z"
         style="baseline-shift:baseline;display:inline;overflow:visible;vector-effect:none;enable-background:accumulate;stop-color:#000000;stop-opacity:1"
         id="path5" /><path
         d="m 60.02631,56.572774 c -1.644013,0 -3.051157,0.569151 -4.221447,1.70739 -1.170927,1.137662 -1.756482,2.505438 -1.756482,4.103625 0,1.598203 0.585555,2.965974 1.756482,4.103626 1.17029,1.138248 2.577434,1.707389 4.221447,1.707389 1.644013,0 3.051155,-0.569141 4.221448,-1.707389 1.170835,-1.137652 1.756482,-2.505423 1.756482,-4.103626 0,-1.598187 -0.585647,-2.965963 -1.756482,-4.103625 -1.170293,-1.138239 -2.577435,-1.70739 -4.221448,-1.70739 z"
         style="baseline-shift:baseline;display:inline;overflow:visible;vector-effect:none;enable-background:accumulate;stop-color:#000000;stop-opacity:1"
         id="path4" /><path
         d="m 40.558248,23.358264 c -0.508177,0 -0.972926,0.231247 -1.394747,0.694015 -0.423481,0.461495 -0.635103,0.970239 -0.635103,1.525488 v 96.513493 c 0,0.55524 0.211622,1.06399 0.635103,1.52548 0.421821,0.46278 0.88657,0.69401 1.394747,0.69402 h 88.216842 c 0.50817,0 0.97292,-0.23125 1.39474,-0.69402 0.42348,-0.46149 0.63511,-0.97024 0.63511,-1.52548 V 25.577767 c 0,-0.555249 -0.21163,-1.063993 -0.63511,-1.525488 -0.42182,-0.462768 -0.88657,-0.694015 -1.39474,-0.694015 H 114.32584 V 42.216545 H 55.007495 V 23.358264 Z m 19.468062,33.21451 c 1.644013,0 3.051155,0.569151 4.221448,1.70739 1.170835,1.137662 1.756482,2.505438 1.756482,4.103625 0,1.598203 -0.585647,2.965974 -1.756482,4.103626 -1.170293,1.138248 -2.577435,1.707389 -4.221448,1.707389 -1.644013,0 -3.051157,-0.569141 -4.221447,-1.707389 -1.170927,-1.137652 -1.756482,-2.505423 -1.756482,-4.103626 0,-1.598187 0.585555,-2.965963 1.756482,-4.103625 1.17029,-1.138239 2.577434,-1.70739 4.221447,-1.70739 z m 14.892115,3.19102 h 40.219255 v 5.23999 H 74.918425 Z M 60.02631,77.532735 c 1.644013,0 3.051155,0.569151 4.221448,1.70739 1.170835,1.137656 1.756482,2.505433 1.756482,4.103625 0,1.598204 -0.585647,2.965978 -1.756482,4.103626 -1.170293,1.138247 -2.577435,1.707389 -4.221448,1.707389 -1.644013,0 -3.051157,-0.569142 -4.221447,-1.707389 -1.170927,-1.137648 -1.756482,-2.505422 -1.756482,-4.103626 0,-1.598192 0.585555,-2.965969 1.756482,-4.103625 1.17029,-1.138239 2.577434,-1.70739 4.221447,-1.70739 z m 14.892115,3.19102 h 40.219255 v 5.23999 H 74.918425 Z M 60.02631,98.492696 c 1.644013,0 3.051155,0.56915 4.221448,1.707394 1.170835,1.13766 1.756482,2.50543 1.756482,4.10362 0,1.5982 -0.585647,2.96597 -1.756482,4.10363 -1.170293,1.13823 -2.577435,1.70739 -4.221448,1.70739 -1.644013,0 -3.051157,-0.56916 -4.221447,-1.70739 -1.170927,-1.13766 -1.756482,-2.50543 -1.756482,-4.10363 0,-1.59819 0.585555,-2.96596 1.756482,-4.10362 1.17029,-1.138244 2.577434,-1.707394 4.221447,-1.707394 z m 14.892115,3.191024 h 40.219255 v 5.23999 H 74.918425 Z"
         style="baseline-shift:baseline;display:inline;overflow:visible;vector-effect:none;fill:#fff6d5;enable-background:accumulate;stop-color:#000000;stop-opacity:1;fill-opacity:1"
         id="path3" /><path
         d="m 84.666667,11.155908 c -1.698242,0 -3.116048,0.6212 -4.252971,1.863969 -1.135926,1.243859 -1.703771,2.794917 -1.703771,4.652946 0,1.857995 0.567845,3.409069 1.703771,4.652946 1.137588,1.243859 2.555394,1.865519 4.252971,1.865519 1.698243,0 3.116048,-0.62166 4.25297,-1.865519 1.135926,-1.24386 1.703772,-2.794934 1.703772,-4.652946 0,-1.858011 -0.567846,-3.409069 -1.703772,-4.652946 -1.137586,-1.242769 -2.555391,-1.863969 -4.25297,-1.863969 z"
         style="baseline-shift:baseline;display:inline;overflow:visible;vector-effect:none;fill:#f9f9f9;enable-background:accumulate;stop-color:#000000;stop-opacity:1"
         id="path2" /><path
         d="m 84.666667,0.33951416 c -3.498619,0 -6.65663,1.15537764 -9.474357,3.46645504 -2.817064,2.3110956 -4.682652,5.2235239 -5.596041,8.7364178 H 40.558248 c -3.286713,0 -6.094444,1.273282 -8.423259,3.819922 -2.327651,2.547838 -3.491259,5.619641 -3.491259,9.215458 v 96.514003 c 0,3.59582 1.163608,6.66762 3.491259,9.21546 2.328815,2.54666 5.136546,3.81992 8.423259,3.81992 h 88.216842 c 3.28671,0 6.09409,-1.27326 8.42274,-3.81992 2.32782,-2.54784 3.49177,-5.61964 3.49177,-9.21546 V 25.577767 c 0,-3.595817 -1.16395,-6.66762 -3.49177,-9.215458 -2.32865,-2.54664 -5.13603,-3.819922 -8.42274,-3.819922 H 99.838867 C 98.925975,9.0294931 97.077115,6.1170648 94.292436,3.8059692 91.508919,1.4948918 88.300468,0.33951416 84.666667,0.33951416 Z m 0,10.81639384 c 1.697579,0 3.115384,0.6212 4.25297,1.863969 1.135926,1.243877 1.703772,2.794935 1.703772,4.652946 0,1.858012 -0.567846,3.409086 -1.703772,4.652946 -1.136922,1.243859 -2.554727,1.865519 -4.25297,1.865519 -1.697577,0 -3.115383,-0.62166 -4.252971,-1.865519 -1.135926,-1.243877 -1.703771,-2.794951 -1.703771,-4.652946 0,-1.858029 0.567845,-3.409087 1.703771,-4.652946 1.136923,-1.242769 2.554729,-1.863969 4.252971,-1.863969 z M 40.558248,23.358264 H 55.007495 V 42.216545 H 114.32584 V 23.358264 h 14.44925 c 0.50817,0 0.97292,0.231247 1.39474,0.694015 0.42348,0.461495 0.63511,0.970239 0.63511,1.525488 v 96.513493 c 0,0.55524 -0.21163,1.06399 -0.63511,1.52548 -0.42182,0.46277 -0.88657,0.69402 -1.39474,0.69402 H 40.558248 c -0.508177,-1e-5 -0.972926,-0.23124 -1.394747,-0.69402 -0.423481,-0.46149 -0.635103,-0.97024 -0.635103,-1.52548 V 25.577767 c 0,-0.555249 0.211622,-1.063993 0.635103,-1.525488 0.421821,-0.462768 0.88657,-0.694015 1.394747,-0.694015 z"
         style="baseline-shift:baseline;display:inline;overflow:visible;vector-effect:none;enable-background:accumulate;stop-color:#000000;stop-opacity:1"
         id="path1" /></g></g></svg>
