<?xml version="1.0" encoding="UTF-8" standalone="no"?>
<!-- Created with Inkscape (http://www.inkscape.org/) -->

<svg
   width="640"
   height="512"
   viewBox="0 0 169.33333 135.46667"
   version="1.1"
   id="svg1"
   inkscape:version="1.4 (86a8ad7, 2024-10-11)"
   sodipodi:docname="search_catalog_new.svg"
   xml:space="preserve"
   xmlns:inkscape="http://www.inkscape.org/namespaces/inkscape"
   xmlns:sodipodi="http://sodipodi.sourceforge.net/DTD/sodipodi-0.dtd"
   xmlns="http://www.w3.org/2000/svg"
   xmlns:svg="http://www.w3.org/2000/svg"><sodipodi:namedview
     id="namedview1"
     pagecolor="#ffffff"
     bordercolor="#111111"
     borderopacity="1"
     inkscape:showpageshadow="0"
     inkscape:pageopacity="0"
     inkscape:pagecheckerboard="1"
     inkscape:deskcolor="#d1d1d1"
     inkscape:document-units="px"
     showborder="false"
     inkscape:zoom="1.08"
     inkscape:cx="396.75926"
     inkscape:cy="293.05556"
     inkscape:window-width="2880"
     inkscape:window-height="1514"
     inkscape:window-x="5749"
     inkscape:window-y="7"
     inkscape:window-maximized="1"
     inkscape:current-layer="layer1" /><defs
     id="defs1" /><g
     inkscape:label="Layer 1"
     inkscape:groupmode="layer"
     id="layer1"><g
       id="g4"><path
         d="m 64.956242,12.362553 c -10.237585,0 -18.908555,3.488862 -26.012883,10.467061 -7.105731,6.976879 -10.65878,15.492511 -10.65878,25.546245 0,10.053752 3.553049,18.568845 10.65878,25.545727 7.104328,6.978197 15.775298,10.467578 26.012883,10.467578 10.237385,0 18.908036,-3.489381 26.012366,-10.467578 7.10573,-6.976882 10.658782,-15.491975 10.658782,-25.545727 0,-10.053734 -3.553052,-18.569366 -10.658782,-25.546245 C 83.864278,15.851415 75.193627,12.362553 64.956242,12.362553 Z"
         style="fill:#22eccc;stroke-width:0.196841;fill-opacity:1"
         id="path4" /><path
         d="m 64.944356,0.66042481 c -13.577042,0 -25.067076,4.62096119 -34.470247,13.86323619 -9.403372,9.243553 -14.105082,20.531403 -14.105082,33.863566 0,13.333459 4.702725,24.617729 14.108699,33.852198 9.405774,9.234472 20.898672,13.851351 34.478516,13.851351 5.520585,0 10.86301,-0.910041 16.027446,-2.730583 5.164437,-1.82062 9.733148,-4.341648 13.705623,-7.562846 l 49.902379,49.008893 8.37262,-8.2243 -49.90187,-49.00683 c 3.1777,-3.750472 5.719,-8.161561 7.62486,-13.233301 1.90386,-5.071742 2.85616,-10.39354 2.85616,-15.96595 0,-13.336054 -4.70579,-24.622883 -14.11697,-33.859949 C 90.014111,5.2788451 78.520197,0.66042481 64.944356,0.66042481 Z m 0.01189,11.70212819 c 10.237385,0 18.908036,3.488862 26.012366,10.467061 7.10573,6.976879 10.658782,15.492511 10.658782,25.546245 0,10.053752 -3.553052,18.568845 -10.658782,25.545727 -7.10433,6.978197 -15.774981,10.467578 -26.012366,10.467578 -10.237585,0 -18.908555,-3.489381 -26.012883,-10.467578 -7.105731,-6.976882 -10.65878,-15.491975 -10.65878,-25.545727 0,-10.053734 3.553049,-18.569366 10.65878,-25.546245 7.104328,-6.978199 15.775298,-10.467061 26.012883,-10.467061 z"
         style="stroke-width:0.196841"
         id="path1" /></g></g></svg>
