<?xml version="1.0" encoding="UTF-8" standalone="no"?>
<!-- Created with Inkscape (http://www.inkscape.org/) -->

<svg
   width="640"
   height="512"
   viewBox="0 0 169.33333 135.46667"
   version="1.1"
   id="svg1"
   inkscape:version="1.4 (86a8ad7, 2024-10-11)"
   sodipodi:docname="digital_library_card_2.svg"
   xml:space="preserve"
   xmlns:inkscape="http://www.inkscape.org/namespaces/inkscape"
   xmlns:sodipodi="http://sodipodi.sourceforge.net/DTD/sodipodi-0.dtd"
   xmlns="http://www.w3.org/2000/svg"
   xmlns:svg="http://www.w3.org/2000/svg"><sodipodi:namedview
     id="namedview1"
     pagecolor="#ffffff"
     bordercolor="#111111"
     borderopacity="1"
     inkscape:showpageshadow="0"
     inkscape:pageopacity="0"
     inkscape:pagecheckerboard="1"
     inkscape:deskcolor="#d1d1d1"
     inkscape:document-units="px"
     showborder="false"
     inkscape:zoom="1.08"
     inkscape:cx="396.75926"
     inkscape:cy="293.05556"
     inkscape:window-width="2880"
     inkscape:window-height="1514"
     inkscape:window-x="5749"
     inkscape:window-y="7"
     inkscape:window-maximized="1"
     inkscape:current-layer="layer1" /><defs
     id="defs1" /><g
     inkscape:label="Layer 1"
     inkscape:groupmode="layer"
     id="layer1"><g
       inkscape:label="Layer 1"
       id="layer1-6"
       transform="matrix(0.81063955,0,0,0.77480841,16.016599,15.260585)"><path
         d="m 13.870471,64.119601 v 54.382729 c 0,0.6869 0.284423,1.31578 0.853178,1.8867 0.566523,0.5725 1.191282,0.85887 1.873788,0.85887 H 152.77982 c 0.68251,0 1.30726,-0.28637 1.87379,-0.85887 0.56876,-0.57092 0.85318,-1.1998 0.85318,-1.8867 V 64.119601 Z"
         style="fill:#ffffff;stroke-width:0.222155"
         id="path5" /><path
         d="m 13.870471,16.900777 c -2.69e-4,0.0149 -0.0047,0.02897 -0.0047,0.04392 l 0.0047,18.700151 z"
         style="fill:#0000ff;stroke-width:0.222155"
         id="path4" /><path
         d="M 13.870471,16.900777 V 35.644853 H 155.50214 V 16.944702 c 0,-0.686907 -0.28445,-1.315781 -0.85318,-1.886706 -0.56653,-0.5725 -1.19128,-0.858863 -1.87379,-0.858863 H 16.592786 c -0.682506,0 -1.307263,0.286363 -1.873788,0.858863 -0.556369,0.558494 -0.836413,1.1733 -0.848527,1.842781 z"
         style="fill:#0000ff;stroke-width:0.222155"
         id="path3" /><path
         d="m 16.594853,0.81803793 c -4.471751,0 -8.2565996,1.56119397 -11.3548628,4.68343507 C 2.1419497,8.6237138 0.59272868,12.43826 0.59272868,16.944702 V 118.50233 c 0,4.50644 1.54922102,8.32097 4.64726152,11.44323 3.0982632,3.12224 6.8831118,4.68343 11.3548628,4.68343 H 152.77776 c 4.47175,0 8.25658,-1.56119 11.35486,-4.68343 3.09802,-3.12226 4.64726,-6.93679 4.64726,-11.44323 V 16.944702 c 0,-4.506442 -1.54924,-8.3209882 -4.64726,-11.443229 -3.09828,-3.1222411 -6.88311,-4.68343507 -11.35486,-4.68343507 z M 16.592786,14.199133 H 152.77517 c 0.68251,0 1.30726,0.286363 1.87379,0.858863 0.56873,0.570925 0.85318,1.199799 0.85318,1.886706 V 35.644853 H 13.870471 l -0.0047,-18.700151 c 0,-0.01496 0.0044,-0.02904 0.0047,-0.04392 0.01211,-0.669481 0.292158,-1.284287 0.848527,-1.842781 0.566525,-0.5725 1.191282,-0.858863 1.873788,-0.858863 z M 13.870471,64.119601 H 155.50679 v 54.382729 c 0,0.6869 -0.28442,1.31578 -0.85318,1.8867 -0.56653,0.5725 -1.19128,0.85887 -1.87379,0.85887 H 16.597437 c -0.682506,0 -1.307265,-0.28637 -1.873788,-0.85887 -0.568755,-0.57092 -0.853178,-1.1998 -0.853178,-1.8867 z"
         style="baseline-shift:baseline;display:inline;overflow:visible;vector-effect:none;enable-background:accumulate;stop-color:#000000;stop-opacity:1"
         id="path7" /></g></g></svg>
