<?xml version="1.0" encoding="UTF-8" standalone="no"?>
<!-- Created with Inkscape (http://www.inkscape.org/) -->

<svg
   width="640"
   height="512"
   viewBox="0 0 169.33333 135.46667"
   version="1.1"
   id="svg1"
   inkscape:version="1.4 (86a8ad7, 2024-10-11)"
   sodipodi:docname="ebook_digital.svg"
   xmlns:inkscape="http://www.inkscape.org/namespaces/inkscape"
   xmlns:sodipodi="http://sodipodi.sourceforge.net/DTD/sodipodi-0.dtd"
   xmlns="http://www.w3.org/2000/svg"
   xmlns:svg="http://www.w3.org/2000/svg">
  <sodipodi:namedview
     id="namedview1"
     pagecolor="#ffffff"
     bordercolor="#111111"
     borderopacity="1"
     inkscape:showpageshadow="0"
     inkscape:pageopacity="0"
     inkscape:pagecheckerboard="1"
     inkscape:deskcolor="#d1d1d1"
     inkscape:document-units="px"
     showborder="false"
     inkscape:zoom="1.08"
     inkscape:cx="396.75926"
     inkscape:cy="293.05556"
     inkscape:window-width="2880"
     inkscape:window-height="1514"
     inkscape:window-x="5749"
     inkscape:window-y="7"
     inkscape:window-maximized="1"
     inkscape:current-layer="layer1" />
  <defs
     id="defs1" />
  <g
     inkscape:label="Layer 1"
     inkscape:groupmode="layer"
     id="layer1">
    <g
       id="g2"
       transform="translate(-26.178246,-60.711025)">
      <path
         d="m 133.10247,184.00582 c 0.38564,0.79367 0.82624,1.56446 1.32188,2.31304 h 5.2e-4 c -0.49565,-0.74858 -0.93676,-1.51937 -1.3224,-2.31304 z"
         id="path47" />
      <path
         d="m 131.74855,180.26858 c 0.10355,0.43946 0.22414,0.86866 0.36225,1.2883 0.27536,0.83873 0.60603,1.65527 0.99167,2.44894 -0.38564,-0.79367 -0.71579,-1.61021 -0.99115,-2.44894 -0.13811,-0.41964 -0.25922,-0.84884 -0.36277,-1.2883 z"
         id="path46" />
      <path
         d="m 131.331,174.64567 c -0.0323,0.46187 -0.0486,0.92809 -0.0486,1.3994 0,0.49906 0.0177,0.98844 0.0522,1.46761 -0.0345,-0.47917 -0.0517,-0.96855 -0.0517,-1.46761 0,-0.47131 0.0158,-0.93753 0.0481,-1.3994 z"
         style="stroke-width:0.178348"
         id="path45" />
      <path
         d="m 132.87148,168.48119 c -0.12985,0.2839 -0.26283,0.56621 -0.37621,0.85731 -0.16305,0.41859 -0.30914,0.84457 -0.43821,1.27796 -0.12908,0.43337 -0.24166,0.87174 -0.33848,1.31465 0.0968,-0.44291 0.20992,-0.88128 0.33899,-1.31465 0.2188,-0.73464 0.49743,-1.44316 0.81391,-2.13527 z"
         style="stroke-width:0.178348"
         id="path44" />
      <path
         d="m 134.42177,165.77076 c -0.26503,0.37429 -0.51312,0.7561 -0.74414,1.14515 -0.15001,0.25262 -0.28081,0.51376 -0.41651,0.77256 0.34472,-0.65756 0.72397,-1.30027 1.16117,-1.91771 z"
         style="stroke-width:0.178348"
         id="path43" />
      <path
         d="m 70.598792,165.77076 c -3.047353,0 -5.582888,1.0039 -7.605738,3.01222 -2.022848,2.00834 -3.033923,4.42931 -3.033923,7.26209 0,2.94269 1.011075,5.39038 3.033923,7.34374 2.02285,1.95337 4.558385,2.93005 7.605738,2.93005 h 0.0021 63.823488 c -0.99129,-1.49716 -1.76282,-3.08451 -2.31355,-4.76198 -0.55242,-1.67855 -0.82837,-3.51558 -0.82837,-5.51181 0,-1.88523 0.25834,-3.69512 0.77463,-5.42861 0.12907,-0.43339 0.27516,-0.85937 0.43821,-1.27796 0.16304,-0.41859 0.34346,-0.82926 0.54054,-1.233 0.19701,-0.40359 0.41088,-0.80067 0.64182,-1.18959 0.23102,-0.38905 0.47911,-0.77086 0.74414,-1.14515 z"
         style="fill:#fff6d5;stroke-width:0.178348"
         id="path42" />
      <path
         d="m 71.914473,80.790934 c -3.284162,0 -6.096668,1.131338 -8.438244,3.393592 -2.34278,2.261157 -3.514514,4.977515 -3.514514,8.148856 v 66.576298 c 1.55061,-1.02337 3.211919,-1.78453 4.984192,-2.28358 1.773477,-0.49789 3.658261,-0.74673 5.654952,-0.74673 h 4.334102 V 80.790934 Z"
         style="fill:#ff0066;stroke-width:0.178348"
         id="path41" />
      <path
         d="m 152.16901,86.522884 v 3.590995 l 1.89962,-1.795756 z"
         style="stroke-width:0.0861966"
         id="path40" />
      <path
         d="m 140.5816,80.790934 v 9.86038 l -5.6658,-5.355745 -3.19826,3.022554 10.2061,9.622152 V 80.790934 Z"
         style="stroke-width:0.0861966"
         id="path39" />
      <path
         d="m 140.5816,80.790934 h 1.34204 v 17.149341 l 0.98392,0.927592 9.26145,-8.753988 v -3.590995 l -1.29863,-1.227315 -5.66581,5.355745 V 77.461938 h -4.62297 z"
         style="stroke-width:0.0861966"
         id="path38" />
      <path
         d="m 123.83068,73.479236 c 0.51921,-0.59181 1.07579,-1.168199 1.66915,-1.729094 h -5.1e-4 c -0.59337,0.560895 -1.14943,1.137284 -1.66864,1.729094 z"
         id="path37" />
      <path
         d="m 123.65188,73.703512 c 0.5711,-0.669724 1.1815,-1.323388 1.84795,-1.95337 -0.59336,0.560895 -1.14994,1.137284 -1.66915,1.729094 -0.064,0.07294 -0.11598,0.150852 -0.1788,0.224276 z"
         style="stroke-width:0.0861966"
         id="path36" />
      <path
         d="m 122.11038,75.74318 c 0.37031,-0.548532 0.77162,-1.083677 1.19837,-1.608687 -0.42736,0.524578 -0.8284,1.060203 -1.19837,1.608687 z"
         style="fill:#ffffff;stroke-width:0.0861966"
         id="path35" />
      <path
         d="m 120.81433,77.942013 c 0.28115,-0.546438 0.58383,-1.083998 0.91467,-1.609721 -0.33041,0.525908 -0.63418,1.063003 -0.91467,1.609721 z"
         id="path34" />
      <path
         d="m 119.57771,80.790934 c 0.26286,-0.770795 0.58051,-1.518782 0.92966,-2.253609 -0.34837,0.735261 -0.66676,1.482702 -0.92966,2.253609 z"
         id="path33" />
      <path
         d="m 118.47287,86.101204 c 0.1603,-1.856636 0.53054,-3.626189 1.10484,-5.31027 -0.0611,0.179194 -0.14105,0.350575 -0.1974,0.531751 -0.47328,1.521633 -0.76966,3.117053 -0.90744,4.778519 z"
         id="path32" />
      <path
         d="m 118.37882,88.179114 c 0,-0.647663 0.0264,-1.283977 0.076,-1.910995 -0.0476,0.627709 -0.076,1.263456 -0.076,1.910995 z"
         style="fill:#ffffff;stroke-width:0.0861966"
         id="path31" />
      <path
         d="m 119.38083,95.035543 c -0.20016,-0.643441 -0.36059,-1.303527 -0.50075,-1.971973 0.14015,0.668336 0.30011,1.328086 0.50023,1.971456 z"
         id="path30" />
      <path
         d="m 125.49983,104.60757 c -0.59336,-0.5609 -1.14942,-1.13678 -1.66863,-1.72858 0.51907,0.59161 1.07493,1.16785 1.66812,1.72858 z"
         id="path29" />
      <path
         d="M 141.92364,111.29863 V 97.940275 l -10.2061,-9.622152 3.19826,-3.022554 5.6658,5.355745 v -9.86038 h -21.00389 c -0.5743,1.684081 -0.94454,3.453634 -1.10484,5.31027 -0.005,0.05621 -0.0138,0.110546 -0.0181,0.166915 -0.0496,0.627018 -0.076,1.263332 -0.076,1.910995 0,0.727036 0.0402,1.437391 0.10025,2.139404 0.0178,0.208249 0.0441,0.413038 0.0672,0.619084 0.0577,0.514778 0.13154,1.022902 0.22221,1.523938 0.0364,0.20103 0.0699,0.403211 0.11162,0.60203 0.14016,0.668446 0.30059,1.328532 0.50075,1.971973 0.89015,2.861459 2.37319,5.475917 4.44985,7.842927 0,0 5.2e-4,5.2e-4 5.2e-4,5.2e-4 0.51921,0.5918 1.07527,1.16768 1.66863,1.72858 4.52152,4.274 10.00372,6.488 16.42381,6.69106 z"
         style="fill:#ffffff;stroke-width:0.0861966"
         id="path28" />
      <path
         d="M 152.16901,109.71733 V 90.113879 l -9.26145,8.753988 -0.98392,-0.927592 v 13.358355 c 0.32019,0.0101 0.6311,0.0398 0.95601,0.0398 3.34849,0 6.44249,-0.54556 9.28936,-1.62109 z"
         style="fill:#ffffff;stroke-width:0.0861966"
         id="path27" />
      <path
         d="m 166.39036,94.990068 c -0.005,0.01475 -0.007,0.03022 -0.0119,0.04496 -0.22251,0.715427 -0.48208,1.415614 -0.77876,2.10013 -0.29667,0.684517 -0.63013,1.354024 -1.00097,2.00763 0.7494,-1.320751 1.34508,-2.705754 1.79162,-4.152718 z"
         id="path26" />
      <path
         d="m 126.48789,70.897998 h 25.68112 v 15.624886 l 1.89962,1.795239 -1.89962,1.795756 v 19.603451 c 2.96828,-1.12139 5.66744,-2.81934 8.09046,-5.10976 1.78013,-1.68269 3.22669,-3.50397 4.33927,-5.464784 0.37084,-0.653606 0.7043,-1.323113 1.00097,-2.00763 0.29668,-0.684516 0.55625,-1.384703 0.77876,-2.10013 0.005,-0.01474 0.007,-0.03021 0.0119,-0.04496 0.19405,-0.628817 0.35149,-1.272808 0.48834,-1.925464 0.0418,-0.199176 0.0757,-0.401669 0.11214,-0.603064 0.0907,-0.501036 0.16453,-1.00916 0.22221,-1.523938 0.0231,-0.205876 0.0494,-0.410492 0.0672,-0.618567 0.0601,-0.702176 0.0997,-1.412711 0.0997,-2.139921 0,-0.726861 -0.0397,-1.437026 -0.0997,-2.138888 -0.0179,-0.208781 -0.044,-0.414064 -0.0672,-0.620634 -0.0577,-0.514552 -0.13159,-1.022079 -0.22221,-1.522904 -0.0363,-0.200658 -0.07,-0.402543 -0.11162,-0.600997 -0.13828,-0.659699 -0.2968,-1.310785 -0.49351,-1.946135 -0.003,-0.0088 -0.004,-0.01806 -0.007,-0.02687 -1.11262,-3.577006 -3.1523,-6.768232 -6.119,-9.572543 -4.74693,-4.487163 -10.54005,-6.730855 -17.37982,-6.730855 -6.37783,0 -11.83354,1.977102 -16.39176,5.878711 z"
         style="fill:#ffffff;stroke-width:0.0861966"
         id="path25" />
      <path
         d="m 126.48737,70.897998 c -0.32998,0.282459 -0.66709,0.549236 -0.98754,0.852144 -0.66645,0.629982 -1.27685,1.283646 -1.84795,1.95337 -0.12065,0.14102 -0.22678,0.288168 -0.34313,0.430981 -0.42675,0.52501 -0.82806,1.060155 -1.19837,1.608687 -0.13129,0.194634 -0.25722,0.391504 -0.38138,0.589112 -0.33084,0.525723 -0.63352,1.063283 -0.91467,1.609721 -0.10188,0.19859 -0.21158,0.394009 -0.30696,0.595312 -0.34915,0.734827 -0.6668,1.482814 -0.92966,2.253609 h 21.00389 v -3.328996 h 4.62297 v 13.189376 l 5.66581,-5.355745 1.29863,1.227315 V 70.897998 h -25.68112 z"
         style="fill:#ffffff;stroke-width:0.0861966"
         id="path8" />
      <path
         d="m 141.92364,115.63739 v -4.33876 c -6.42009,-0.20306 -11.90229,-2.41706 -16.42381,-6.69106 h -5.1e-4 c -0.59319,-0.56073 -1.14957,-1.13749 -1.66864,-1.7291 -2.07666,-2.36701 -3.56022,-4.981985 -4.45037,-7.843444 -0.20012,-0.64337 -0.36008,-1.30312 -0.50023,-1.971456 -0.0417,-0.198795 -0.0752,-0.401023 -0.11162,-0.60203 -0.0907,-0.501118 -0.1645,-1.009072 -0.22221,-1.523938 -0.0231,-0.206009 -0.0494,-0.410874 -0.0672,-0.619084 -0.06,-0.70187 -0.10025,-1.412488 -0.10025,-2.139404 0,-0.647539 0.0283,-1.283286 0.076,-1.910995 0.004,-0.05629 0.0132,-0.110791 0.0181,-0.166915 0.13778,-1.661466 0.43416,-3.256886 0.90744,-4.778519 0.0564,-0.181176 0.1363,-0.352557 0.1974,-0.531751 h -4.7165 c -0.698,2.362899 -1.07642,4.821117 -1.07642,7.392831 0,3.80347 0.76409,7.378302 2.29185,10.723893 1.52821,3.345592 3.60183,6.255522 6.2208,8.730212 2.61897,2.4747 5.69833,4.43407 9.23923,5.87768 3.25476,1.32699 6.72372,2.01461 10.38697,2.12184 z"
         style="stroke-width:0.0861966"
         id="path6" />
      <path
         d="m 141.92364,115.63739 c -3.66325,-0.10723 -7.13221,-0.79485 -10.38697,-2.12184 -3.5409,-1.44361 -6.62026,-3.40298 -9.23923,-5.87768 -2.61897,-2.47469 -4.69259,-5.38462 -6.2208,-8.730212 -1.52776,-3.345591 -2.29185,-6.920423 -2.29185,-10.723893 0,-2.571714 0.37842,-5.029932 1.07642,-7.392831 H 85.18033 v 75.088436 h 56.74331 z"
         style="fill:#ff0066;stroke-width:0.178348"
         id="path5" />
      <path
         d="m 152.16901,114.23747 v -4.52014 c -2.84687,1.07553 -5.94087,1.62109 -9.28936,1.62109 -0.32491,0 -0.63582,-0.0297 -0.95601,-0.0398 v 4.33876 c 0.32194,0.009 0.63557,0.0439 0.96066,0.0439 3.25627,0 6.34563,-0.49795 9.28471,-1.44384 z"
         style="stroke-width:0.0861966"
         id="path4" />
      <path
         d="m 152.16901,114.23747 c -2.93908,0.94589 -6.02844,1.44384 -9.28471,1.44384 -0.32509,0 -0.63872,-0.0345 -0.96066,-0.0439 v 40.24198 H 85.18033 V 80.790934 h 29.68088 c 0.33445,-1.132192 0.71967,-2.249413 1.21439,-3.333646 1.10252,-2.416276 2.49933,-4.597157 4.17029,-6.55929 H 71.914473 c -6.164234,0 -11.405284,2.083976 -15.723071,6.252332 -4.316753,4.169451 -6.475057,9.230607 -6.475057,15.183052 v 83.711688 c 0,5.57209 2.038369,10.32628 6.114872,14.26269 4.076504,3.93641 8.999342,5.90404 14.769642,5.90404 h 81.568151 v -9.89294 c -2.93343,0 -5.44015,-1.0039 -7.51996,-3.01222 -2.07982,-2.00833 -3.1197,-4.42881 -3.1197,-7.26157 0,-2.83278 1.03988,-5.25375 3.1197,-7.26209 2.07981,-2.00832 4.58653,-3.01222 7.51996,-3.01222 z M 71.914473,80.790934 h 3.020488 v 75.088436 h -4.334102 c -1.996691,0 -3.881475,0.24884 -5.654952,0.74673 -1.772273,0.49905 -3.433582,1.26021 -4.984192,2.28358 V 92.333382 c 0,-3.171341 1.171734,-5.887699 3.514514,-8.148856 2.341576,-2.262254 5.154082,-3.393592 8.438244,-3.393592 z m -1.315681,84.979826 h 63.822978 5.2e-4 c -0.4372,0.61744 -0.81645,1.26015 -1.16117,1.91771 -0.0732,0.13964 -0.15627,0.27559 -0.22531,0.41703 -0.06,0.12297 -0.10746,0.25134 -0.16433,0.37569 -0.31648,0.69211 -0.59511,1.40063 -0.81391,2.13527 -0.12907,0.43337 -0.24217,0.87174 -0.33899,1.31465 -0.19365,0.88581 -0.32301,1.79081 -0.38758,2.71456 -0.0323,0.46187 -0.0481,0.92809 -0.0481,1.3994 0,0.49906 0.0172,0.98844 0.0517,1.46761 0.069,0.95833 0.20682,1.87699 0.41393,2.7559 0.10355,0.43946 0.22466,0.86866 0.36277,1.2883 0.55073,1.67747 1.32226,3.26482 2.31355,4.76198 h -5.2e-4 -63.823491 -0.0021 c -3.047353,0 -5.582888,-0.97668 -7.605738,-2.93005 -2.022848,-1.95336 -3.033923,-4.40105 -3.033923,-7.34374 0,-2.83278 1.011075,-5.25375 3.033923,-7.26209 2.02285,-2.00832 4.558385,-3.01222 7.605738,-3.01222 z"
         style="stroke-width:0.178348"
         id="path3" />
      <path
         d="m 142.87345,60.676917 c -4.02372,0 -7.80474,0.722184 -11.34401,2.166276 -3.53935,1.44458 -6.61816,3.404602 -9.23613,5.880261 -0.72802,0.688444 -1.40376,1.418723 -2.04742,2.174544 h 6.24148 c 4.55829,-3.901786 10.0143,-5.878711 16.39228,-5.878711 6.83977,0 12.63289,2.243692 17.37982,6.730855 2.97401,2.811221 5.01546,6.011686 6.12624,9.599414 0.19663,0.635202 0.35525,1.286584 0.49351,1.946135 0.0416,0.198506 0.0753,0.400286 0.11162,0.600997 0.0906,0.500764 0.16451,1.008418 0.22221,1.522904 0.0231,0.206548 0.0493,0.411875 0.0672,0.620634 0.06,0.701927 0.0997,1.411971 0.0997,2.138888 0,0.727094 -0.0397,1.437886 -0.0997,2.139921 -0.0178,0.208039 -0.0441,0.412725 -0.0672,0.618567 -0.0577,0.514866 -0.13152,1.02282 -0.22221,1.523938 -0.0364,0.201386 -0.0704,0.403897 -0.11214,0.603064 -0.13688,0.652654 -0.29428,1.296618 -0.48834,1.925464 -1.10947,3.595154 -3.15171,6.801402 -6.13089,9.617502 -2.42302,2.29042 -5.12218,3.98837 -8.09046,5.10976 v 4.52014 c 0.69262,-0.22291 1.38481,-0.44754 2.05982,-0.72295 3.53927,-1.44458 6.61809,-3.4046 9.23613,-5.88026 2.61797,-2.47566 4.69049,-5.3868 6.21771,-8.733837 1.52713,-3.347042 2.29081,-6.923041 2.29081,-10.726994 0,-3.803478 -0.76365,-7.377786 -2.29133,-10.723376 -1.52821,-3.345591 -3.60184,-6.255521 -6.22081,-8.730217 -2.61904,-2.474696 -5.69945,-4.434059 -9.24026,-5.877677 -3.54089,-1.44361 -7.32344,-2.165242 -11.34763,-2.165242 z"
         style="stroke-width:0.0861966"
         id="path2" />
      <path
         d="m 114.86121,80.790934 h 4.7165 c 0.2629,-0.770907 0.58129,-1.518348 0.92966,-2.253609 0.0956,-0.201224 0.20483,-0.396806 0.30696,-0.595312 0.28049,-0.546718 0.58426,-1.083813 0.91467,-1.609721 0.12432,-0.197536 0.25001,-0.394518 0.38138,-0.589112 0.36997,-0.548484 0.77101,-1.084109 1.19837,-1.608687 0.11617,-0.142921 0.22275,-0.289814 0.34313,-0.430981 0.0628,-0.07342 0.11482,-0.151341 0.1788,-0.224276 0.51921,-0.59181 1.07527,-1.168199 1.66864,-1.729094 h 5.1e-4 c 0.32045,-0.302908 0.65756,-0.569685 0.98754,-0.852144 h -6.24148 c -1.67096,1.962133 -3.06777,4.143014 -4.17029,6.55929 -0.49472,1.084233 -0.87994,2.201454 -1.21439,3.333646 z"
         style="stroke-width:0.0861966"
         id="path7" />
    </g>
  </g>
</svg>
