<?xml version="1.0" encoding="UTF-8" standalone="no"?>
<!-- Created with Inkscape (http://www.inkscape.org/) -->

<svg
   width="640"
   height="512"
   viewBox="0 0 169.33333 135.46667"
   version="1.1"
   id="svg1"
   inkscape:version="1.4 (86a8ad7, 2024-10-11)"
   sodipodi:docname="events.svg"
   xml:space="preserve"
   xmlns:inkscape="http://www.inkscape.org/namespaces/inkscape"
   xmlns:sodipodi="http://sodipodi.sourceforge.net/DTD/sodipodi-0.dtd"
   xmlns="http://www.w3.org/2000/svg"
   xmlns:svg="http://www.w3.org/2000/svg"><sodipodi:namedview
     id="namedview1"
     pagecolor="#ffffff"
     bordercolor="#111111"
     borderopacity="1"
     inkscape:showpageshadow="0"
     inkscape:pageopacity="0"
     inkscape:pagecheckerboard="1"
     inkscape:deskcolor="#d1d1d1"
     inkscape:document-units="px"
     showborder="false"
     inkscape:zoom="1.08"
     inkscape:cx="396.75926"
     inkscape:cy="293.05556"
     inkscape:window-width="2880"
     inkscape:window-height="1514"
     inkscape:window-x="5749"
     inkscape:window-y="7"
     inkscape:window-maximized="1"
     inkscape:current-layer="layer1" /><defs
     id="defs1" /><g
     inkscape:label="Layer 1"
     inkscape:groupmode="layer"
     id="layer1"><g
       id="g11"><path
         d="m 62.602381,64.222953 c -0.590509,0 -1.169708,0.02474 -1.737879,0.0739 -0.568171,0.04916 -1.125381,0.122865 -1.671216,0.221175 -0.545835,0.09831 -1.080535,0.22099 -1.604036,0.368453 -0.523501,0.147462 -1.035688,0.319635 -1.536857,0.516247 -0.50117,0.196613 -0.991355,0.417765 -1.470195,0.663526 -0.47884,0.245761 -0.946502,0.515896 -1.403015,0.810803 -0.456513,0.294907 -0.901648,0.614547 -1.335836,0.958598 -0.434187,0.344051 -0.857309,0.712682 -1.269173,1.105875 -0.412026,0.393048 -0.79806,0.796942 -1.158585,1.211296 -0.360526,0.414354 -0.695567,0.839196 -1.00459,1.274858 -0.309024,0.435661 -0.592039,0.881965 -0.849561,1.338936 -0.257521,0.456971 -0.489546,0.924733 -0.695565,1.403015 -0.206018,0.478283 -0.38602,0.966982 -0.540535,1.466577 -0.154515,0.499596 -0.283529,1.009746 -0.38654,1.530656 -0.10301,0.52091 -0.180005,1.052509 -0.23151,1.594735 -0.05151,0.542226 -0.07751,1.09527 -0.07751,1.658813 0,0.563544 0.02601,1.116574 0.07751,1.658814 0.0515,0.54224 0.1285,1.073801 0.23151,1.594735 0.103011,0.520934 0.232025,1.03103 0.38654,1.530656 0.154515,0.499625 0.334517,0.988779 0.540535,1.467093 0.206019,0.478315 0.438044,0.946014 0.695565,1.403016 0.257522,0.457001 0.540537,0.90325 0.849561,1.338936 0.309023,0.435686 0.644064,0.860489 1.00459,1.274858 0.360525,0.414368 0.746559,0.818247 1.158585,1.211295 0.411864,0.393194 0.834986,0.761838 1.269173,1.105876 0.434188,0.344037 0.879323,0.663715 1.335836,0.958598 0.456513,0.294882 0.924175,0.565072 1.403015,0.810803 0.47884,0.24573 0.969025,0.466945 1.470195,0.663525 0.501169,0.19658 1.013356,0.368299 1.536857,0.515731 0.523501,0.147432 1.058201,0.270167 1.604036,0.368453 0.545835,0.09829 1.103045,0.172033 1.671216,0.221175 0.568171,0.04914 1.14737,0.0739 1.737879,0.0739 0.590531,0 1.16968,-0.02475 1.737878,-0.0739 0.568197,-0.04914 1.125352,-0.122889 1.671216,-0.221175 0.545863,-0.09829 1.080507,-0.221021 1.604036,-0.368453 0.52353,-0.147432 1.036178,-0.319151 1.537374,-0.515731 0.501196,-0.19658 0.991332,-0.417795 1.470195,-0.663525 0.478862,-0.245731 0.946485,-0.515921 1.403015,-0.810803 0.45653,-0.294883 0.901639,-0.614561 1.335836,-0.958598 0.434196,-0.344038 0.857308,-0.712682 1.269173,-1.105876 0.412026,-0.393048 0.79806,-0.796927 1.158585,-1.211295 0.360526,-0.414369 0.695566,-0.839172 1.00459,-1.274858 0.309024,-0.435686 0.592039,-0.881935 0.849561,-1.338936 0.257521,-0.457002 0.489546,-0.924701 0.695564,-1.403016 0.206019,-0.478314 0.386021,-0.967468 0.540536,-1.467093 0.154515,-0.499626 0.283529,-1.009722 0.38654,-1.530656 0.10301,-0.520934 0.180005,-1.052495 0.23151,-1.594735 0.05151,-0.54224 0.07752,-1.09527 0.07752,-1.658814 0,-0.563543 -0.02601,-1.116587 -0.07752,-1.658813 -0.05151,-0.542226 -0.1285,-1.073825 -0.23151,-1.594735 -0.103011,-0.52091 -0.232025,-1.03106 -0.38654,-1.530656 -0.154515,-0.499595 -0.334517,-0.988294 -0.540536,-1.466577 -0.206018,-0.478282 -0.438043,-0.946044 -0.695564,-1.403015 -0.257522,-0.456971 -0.540537,-0.903275 -0.849561,-1.338936 -0.309024,-0.435662 -0.644064,-0.860504 -1.00459,-1.274858 -0.360525,-0.414354 -0.746559,-0.818248 -1.158585,-1.211296 -0.411865,-0.393193 -0.834977,-0.761824 -1.269173,-1.105875 -0.434197,-0.344051 -0.879306,-0.663691 -1.335836,-0.958598 -0.45653,-0.294907 -0.924153,-0.565042 -1.403015,-0.810803 -0.478863,-0.245761 -0.968999,-0.466913 -1.470195,-0.663526 -0.501196,-0.196612 -1.013844,-0.368785 -1.537374,-0.516247 -0.523529,-0.147463 -1.058173,-0.270143 -1.604036,-0.368453 -0.545864,-0.09831 -1.103019,-0.172019 -1.671216,-0.221175 -0.568198,-0.04916 -1.147347,-0.0739 -1.737878,-0.0739 z"
         style="baseline-shift:baseline;display:inline;overflow:visible;vector-effect:none;fill:#800080;enable-background:accumulate;stop-color:#000000;stop-opacity:1"
         id="path11" /><path
         d="m 33.183504,56.260132 v 65.867298 c 0,0.27022 0.05907,0.52924 0.17725,0.7767 0.118181,0.24746 0.295473,0.48336 0.531751,0.70796 0.235351,0.22522 0.482671,0.39388 0.742074,0.50643 0.259402,0.11255 0.530887,0.16898 0.81442,0.16898 H 133.8864 c 0.28354,0 0.55502,-0.0564 0.81442,-0.16898 0.2594,-0.11255 0.50673,-0.28121 0.74208,-0.50643 0.23627,-0.2246 0.41356,-0.4605 0.53175,-0.70796 0.11818,-0.24746 0.17725,-0.50648 0.17725,-0.7767 V 56.260132 Z m 29.418877,7.962821 c 4.724254,0 8.733808,1.573026 12.028723,4.718575 3.296212,3.144384 4.944401,6.970535 4.944401,11.478886 0,4.508352 -1.648189,8.33502 -4.944401,11.479403 -3.294915,3.145551 -7.304469,4.718058 -12.028723,4.718058 -4.72407,0 -8.733292,-1.572507 -12.028207,-4.718058 -3.296211,-3.144383 -4.944401,-6.971051 -4.944401,-11.479403 0,-4.508351 1.64819,-8.334502 4.944401,-11.478886 3.294915,-3.145549 7.304137,-4.718575 12.028207,-4.718575 z"
         style="baseline-shift:baseline;display:inline;overflow:visible;vector-effect:none;fill:#f9f9f9;enable-background:accumulate;stop-color:#000000;stop-opacity:1"
         id="path10" /><path
         d="m 33.184538,28.16934 c 0,0.0056 -0.0036,0.01042 -0.0036,0.01602 l 0.0036,17.546732 z"
         style="baseline-shift:baseline;display:inline;overflow:visible;vector-effect:none;enable-background:accumulate;stop-color:#000000;stop-opacity:1"
         id="path9" /><path
         d="m 35.445899,26.025285 c -0.283533,0 -0.555019,0.0563 -0.814421,0.168982 -0.259403,0.112677 -0.506723,0.281728 -0.742074,0.506946 -0.23384,0.222281 -0.408909,0.456014 -0.526066,0.700732 -0.117156,0.244718 -0.1764,0.500423 -0.1788,0.767395 V 45.732092 H 136.15086 V 28.18536 c 0,-0.270226 -0.0591,-0.52885 -0.17725,-0.77618 -0.11818,-0.247331 -0.29547,-0.483369 -0.53175,-0.707967 -0.23535,-0.225218 -0.48267,-0.394269 -0.74207,-0.506946 -0.2594,-0.112678 -0.53089,-0.168982 -0.81442,-0.168982 z"
         style="baseline-shift:baseline;display:inline;overflow:visible;vector-effect:none;fill:#800080;enable-background:accumulate;stop-color:#000000;stop-opacity:1"
         id="path8" /><path
         d="M 45.629773,0.65112305 V 15.497245 H 35.447449 c -3.715396,0 -6.860344,1.228502 -9.434566,3.685047 -2.574222,2.456562 -3.861263,5.45745 -3.861263,9.003068 v 93.94207 c 0,3.54561 1.287041,6.5465 3.861263,9.00307 2.574222,2.45654 5.71917,3.68504 9.434566,3.68504 H 133.8864 c 3.7154,0 6.86035,-1.2285 9.43457,-3.68504 2.57404,-2.45657 3.86074,-5.45746 3.86074,-9.00307 V 28.18536 c 0,-3.545618 -1.2867,-6.546506 -3.86074,-9.003068 -2.57422,-2.456545 -5.71917,-3.685047 -9.43457,-3.685047 H 123.70408 V 0.65112305 h -11.0324 V 15.497245 H 56.944845 V 0.65112305 Z M 35.445899,26.025285 h 98.439471 c 0.56706,0 1.08579,0.225492 1.55649,0.675928 0.47256,0.449197 0.709,0.943695 0.709,1.484147 V 45.732092 H 33.184538 L 33.18092,28.18536 c 0,-0.0056 0.0036,-0.01046 0.0036,-0.01602 0.0048,-0.533945 0.237186,-1.023564 0.704866,-1.468127 0.470702,-0.450436 0.989429,-0.675928 1.556495,-0.675928 z M 33.183504,56.260132 H 136.1519 v 65.867298 c 0,0.54045 -0.23645,1.03546 -0.709,1.48466 -0.4707,0.45044 -0.98943,0.67541 -1.5565,0.67541 H 35.448999 c -0.567066,0 -1.085791,-0.22497 -1.556494,-0.67541 -0.472555,-0.4492 -0.709001,-0.94421 -0.709001,-1.48466 z"
         style="baseline-shift:baseline;display:inline;overflow:visible;vector-effect:none;enable-background:accumulate;stop-color:#000000;stop-opacity:1"
         id="path7" /></g></g></svg>
