<?xml version="1.0" encoding="UTF-8" standalone="no"?>
<!-- Created with Inkscape (http://www.inkscape.org/) -->

<svg
   width="640"
   height="512"
   viewBox="0 0 169.33333 135.46667"
   version="1.1"
   id="svg1"
   inkscape:version="1.4 (86a8ad7, 2024-10-11)"
   sodipodi:docname="fines.svg"
   xml:space="preserve"
   xmlns:inkscape="http://www.inkscape.org/namespaces/inkscape"
   xmlns:sodipodi="http://sodipodi.sourceforge.net/DTD/sodipodi-0.dtd"
   xmlns="http://www.w3.org/2000/svg"
   xmlns:svg="http://www.w3.org/2000/svg"><sodipodi:namedview
     id="namedview1"
     pagecolor="#ffffff"
     bordercolor="#111111"
     borderopacity="1"
     inkscape:showpageshadow="0"
     inkscape:pageopacity="0"
     inkscape:pagecheckerboard="1"
     inkscape:deskcolor="#d1d1d1"
     inkscape:document-units="px"
     showborder="false"
     inkscape:zoom="1.08"
     inkscape:cx="396.75926"
     inkscape:cy="293.05556"
     inkscape:window-width="2880"
     inkscape:window-height="1514"
     inkscape:window-x="5749"
     inkscape:window-y="15"
     inkscape:window-maximized="1"
     inkscape:current-layer="layer1" /><defs
     id="defs1" /><g
     inkscape:label="Layer 1"
     inkscape:groupmode="layer"
     id="layer1"><g
       id="g4"><path
         d="m 79.811149,19.321818 v 8.614978 c -6.293064,1.167366 -11.126335,3.626578 -14.49989,7.377844 -3.374865,3.752361 -5.062223,7.921658 -5.062223,12.507247 0,5.342917 1.680023,9.641278 5.040002,12.895854 3.360159,3.254595 8.834941,6.194896 16.424838,8.820134 7.845839,2.772203 13.205259,5.259444 16.078088,7.46156 2.871706,2.200946 4.307746,5.156797 4.307746,8.867675 0,4.458762 -1.67062,7.697284 -5.011062,9.715686 -3.34157,2.019614 -7.112919,3.029273 -11.314555,3.029273 -4.154777,0 -7.871867,-1.2031 -11.150741,-3.609082 -3.280183,-2.407157 -5.800254,-5.926735 -7.560779,-10.558529 l -9.340515,3.665926 c 1.911933,5.277753 4.658817,9.471325 8.240324,12.580116 3.582817,3.10882 8.076201,5.26967 13.479798,6.48332 v 8.97103 h 10.080004 v -8.61498 c 5.726141,-0.74791 10.910106,-2.82042 15.552026,-6.21719 4.64209,-3.395605 6.9634,-8.544073 6.9634,-15.44557 0,-4.97787 -1.52381,-9.381674 -4.5713,-13.21108 -3.04749,-3.828226 -9.000411,-7.2832 -17.858859,-10.364742 -7.761018,-2.552956 -12.914397,-4.763594 -15.460039,-6.63267 -2.545473,-1.869075 -3.818371,-4.481418 -3.818371,-7.836731 0,-3.355329 1.303833,-6.081159 3.910872,-8.177795 2.607027,-2.096636 6.205335,-3.145028 10.795724,-3.145028 3.842474,0 6.941691,0.872682 9.297623,2.618445 2.35741,1.745763 4.170394,3.935888 5.438945,6.570658 l 9.113135,-3.528983 c -1.54197,-3.78318 -4.05666,-7.021696 -7.54424,-9.715686 -3.487941,-2.693972 -7.304838,-4.196163 -11.449946,-4.506702 v -8.614978 z"
         style="stroke-width:0.181134"
         id="path4" /><path
         d="m 84.666667,10.843266 c -16.486463,0 -30.450829,5.511431 -41.89305,16.533874 -11.442038,11.02246 -17.163294,24.47439 -17.163294,40.356193 0,15.881799 5.721256,29.333747 17.163294,40.356197 11.442221,11.02246 25.406587,16.53387 41.89305,16.53387 16.486663,0 30.451013,-5.51141 41.893053,-16.53387 11.44222,-11.02245 17.16329,-24.474398 17.16329,-40.356197 0,-15.881803 -5.72107,-29.333733 -17.16329,-40.356193 C 115.11768,16.354697 101.15333,10.843266 84.666667,10.843266 Z m -4.855518,8.478552 h 10.080005 v 8.614978 c 4.145108,0.310539 7.962005,1.81273 11.449946,4.506702 3.48758,2.69399 6.00227,5.932506 7.54424,9.715686 l -9.113135,3.528983 c -1.268551,-2.63477 -3.081535,-4.824895 -5.438945,-6.570658 -2.355932,-1.745763 -5.455149,-2.618445 -9.297623,-2.618445 -4.590389,0 -8.188697,1.048392 -10.795724,3.145028 -2.607039,2.096636 -3.910872,4.822466 -3.910872,8.177795 0,3.355313 1.272898,5.967656 3.818371,7.836731 2.545642,1.869076 7.699021,4.079714 15.460039,6.63267 8.858448,3.081542 14.811369,6.536516 17.858859,10.364742 3.04749,3.829406 4.5713,8.23321 4.5713,13.21108 0,6.901497 -2.32131,12.049965 -6.9634,15.44557 -4.64192,3.39677 -9.825885,5.46928 -15.552026,6.21719 v 8.61498 H 79.44218 v -8.97103 c -5.403597,-1.21365 -9.896981,-3.3745 -13.479798,-6.48332 -3.581507,-3.108791 -6.328391,-7.302363 -8.240324,-12.580116 l 9.340515,-3.665926 c 1.760525,4.631794 4.280596,8.151372 7.560779,10.558529 3.278874,2.405982 6.995964,3.609082 11.150741,3.609082 4.201636,0 7.972985,-1.009659 11.314555,-3.029273 3.340442,-2.018402 5.011062,-5.256924 5.011062,-9.715686 0,-3.710878 -1.43604,-6.666729 -4.307746,-8.867675 -2.872829,-2.202116 -8.232249,-4.689357 -16.078088,-7.46156 -7.589897,-2.625238 -13.064679,-5.565539 -16.424838,-8.820134 -3.359979,-3.254576 -5.040002,-7.552937 -5.040002,-12.895854 0,-4.585589 1.687358,-8.754886 5.062223,-12.507247 3.373555,-3.751266 8.206826,-6.210478 14.49989,-7.377844 z"
         style="stroke-width:0.181134;fill:#00ff00"
         id="path3" /><path
         d="m 84.666667,0.17621663 c -9.691364,0 -18.802659,1.77540107 -27.333732,5.32628987 -8.532376,3.5508892 -15.954915,8.3674255 -22.267892,14.4487305 -6.31279,6.081321 -11.31234,13.231466 -14.998568,21.450887 -3.68604,8.218237 -5.528861,16.995309 -5.528861,26.331209 0,9.335903 1.842821,18.112977 5.528861,26.33121 3.686228,8.219427 8.685778,15.369557 14.998568,21.450887 6.312977,6.0813 13.735516,10.89784 22.267892,14.44873 8.531073,3.55089 17.642368,5.32629 27.333732,5.32629 9.691376,0 18.802463,-1.7754 27.333733,-5.32629 8.53237,-3.55089 15.9551,-8.36743 22.26789,-14.44873 6.31297,-6.08133 11.31253,-13.23146 14.99857,-21.450887 3.68604,-8.218233 5.52886,-16.995307 5.52886,-26.33121 0,-9.3359 -1.84282,-18.112972 -5.52886,-26.331209 -3.68604,-8.219421 -8.6856,-15.369566 -14.99857,-21.450887 C 127.9555,13.869932 120.53277,9.0533957 112.0004,5.5025065 103.46913,1.9516177 94.358043,0.17621663 84.666667,0.17621663 Z m 0,10.66704937 c 16.486663,0 30.451013,5.511431 41.893053,16.533874 11.44222,11.02246 17.16329,24.47439 17.16329,40.356193 0,15.881799 -5.72107,29.333747 -17.16329,40.356197 -11.44204,11.02246 -25.40639,16.53387 -41.893053,16.53387 -16.486463,0 -30.450829,-5.51141 -41.89305,-16.53387 C 31.331579,97.06708 25.610323,83.615132 25.610323,67.733333 25.610323,51.85153 31.331579,38.3996 42.773617,27.37714 54.215838,16.354697 68.180204,10.843266 84.666667,10.843266 Z"
         style="stroke-width:0.181134"
         id="path2" /></g></g></svg>
