<?xml version="1.0" encoding="UTF-8" standalone="no"?>
<!-- Created with Inkscape (http://www.inkscape.org/) -->

<svg
   width="640"
   height="512"
   viewBox="0 0 169.33333 135.46667"
   version="1.1"
   id="svg1"
   inkscape:version="1.4 (86a8ad7, 2024-10-11)"
   sodipodi:docname="items_checked_out.svg"
   xml:space="preserve"
   xmlns:inkscape="http://www.inkscape.org/namespaces/inkscape"
   xmlns:sodipodi="http://sodipodi.sourceforge.net/DTD/sodipodi-0.dtd"
   xmlns="http://www.w3.org/2000/svg"
   xmlns:svg="http://www.w3.org/2000/svg"><sodipodi:namedview
     id="namedview1"
     pagecolor="#ffffff"
     bordercolor="#111111"
     borderopacity="1"
     inkscape:showpageshadow="0"
     inkscape:pageopacity="0"
     inkscape:pagecheckerboard="1"
     inkscape:deskcolor="#d1d1d1"
     inkscape:document-units="px"
     showborder="false"
     inkscape:zoom="1.08"
     inkscape:cx="396.75926"
     inkscape:cy="293.98148"
     inkscape:window-width="2880"
     inkscape:window-height="1514"
     inkscape:window-x="5749"
     inkscape:window-y="7"
     inkscape:window-maximized="1"
     inkscape:current-layer="layer1" /><defs
     id="defs1" /><g
     inkscape:label="Layer 1"
     inkscape:groupmode="layer"
     id="layer1"><g
       id="g5"
       transform="matrix(1,0,0,1.0146382,0,-0.99148922)"><path
         d="m 52.581287,102.15345 c -3.222236,0 -5.902949,1.07268 -8.041887,3.21841 -2.138937,2.14576 -3.208073,4.7321 -3.208073,7.7587 0,3.14404 1.069136,5.75953 3.208073,7.84655 2.138938,2.08702 4.819651,3.13056 8.041887,3.13056 h 0.0026 67.485803 c -1.04818,-1.5996 -1.86351,-3.29581 -2.44584,-5.08806 -0.58413,-1.79341 -0.87592,-3.75623 -0.87592,-5.88905 0,-2.01422 0.27315,-3.94753 0.81907,-5.79964 0.54592,-1.85214 1.37914,-3.57784 2.50011,-5.17747 z"
         style="fill:#fff6d5;stroke-width:0.178348"
         id="path5" /><path
         d="M 67.999984,11.358997 V 91.585108 H 127.99942 V 11.358997 Z"
         style="fill:#ff7f2a;stroke-width:0.178348"
         id="path4" /><path
         d="m 53.972416,11.358997 c -3.472635,0 -6.446497,1.208572 -8.922453,3.625618 -2.477229,2.415874 -3.716052,5.318109 -3.716052,8.706445 v 71.132093 c 1.639598,-1.093396 3.396499,-1.906957 5.27048,-2.440161 1.875255,-0.531958 3.868202,-0.797884 5.97948,-0.797884 h 4.582666 V 11.358997 Z"
         style="fill:#ff7f2a;stroke-width:0.178348"
         id="path3" /><path
         d="m 53.972416,0.78909912 c -6.517991,0 -12.059763,2.22664168 -16.625342,6.68021238 -4.564486,4.4547405 -6.84661,9.8620155 -6.84661,16.2217485 v 89.4395 c 0,5.95336 2.155306,11.03312 6.465755,15.23887 4.310449,4.20575 9.516202,6.30814 15.617652,6.30814 h 86.248999 v -10.5699 c -3.10177,0 -5.75228,-1.07267 -7.95145,-3.21841 -2.19917,-2.14575 -3.29903,-4.73211 -3.29903,-7.7587 0,-3.0266 1.09986,-5.61294 3.29903,-7.7587 2.19917,-2.14573 4.84968,-3.21841 7.95145,-3.21841 V 0.78909912 Z m 0,10.56989788 h 3.194121 v 80.226111 h -4.582666 c -2.111278,0 -4.104225,0.265926 -5.97948,0.797884 -1.873981,0.533204 -3.630882,1.346765 -5.27048,2.440161 v -71.132093 0 c 0,-3.388336 1.238823,-6.290571 3.716052,-8.706445 2.475956,-2.417046 5.449818,-3.625618 8.922453,-3.625618 z m 14.027568,0 H 127.99942 V 91.585108 H 67.999984 Z M 52.581287,102.15345 h 67.485803 c -1.12097,1.59963 -1.95419,3.32533 -2.50011,5.17747 -0.54592,1.85211 -0.81907,3.78542 -0.81907,5.79964 0,2.13282 0.29179,4.09564 0.87592,5.88905 0.58233,1.79225 1.39766,3.48846 2.44584,5.08806 h -67.485799 -0.0026 c -3.222236,0 -5.902949,-1.04354 -8.041887,-3.13056 -2.138937,-2.08702 -3.208073,-4.70251 -3.208073,-7.84655 0,-3.0266 1.069136,-5.61294 3.208073,-7.7587 2.138938,-2.14573 4.819651,-3.21841 8.041887,-3.21841 z"
         style="stroke-width:0.178348"
         id="path2" /></g></g></svg>
