<?xml version="1.0" encoding="UTF-8" standalone="no"?>
<!-- Created with Inkscape (http://www.inkscape.org/) -->

<svg
   width="640"
   height="512"
   viewBox="0 0 169.33333 135.46667"
   version="1.1"
   id="svg1"
   inkscape:version="1.4 (86a8ad7, 2024-10-11)"
   sodipodi:docname="library_info.svg"
   xml:space="preserve"
   xmlns:inkscape="http://www.inkscape.org/namespaces/inkscape"
   xmlns:sodipodi="http://sodipodi.sourceforge.net/DTD/sodipodi-0.dtd"
   xmlns="http://www.w3.org/2000/svg"
   xmlns:svg="http://www.w3.org/2000/svg"><sodipodi:namedview
     id="namedview1"
     pagecolor="#ffffff"
     bordercolor="#111111"
     borderopacity="1"
     inkscape:showpageshadow="0"
     inkscape:pageopacity="0"
     inkscape:pagecheckerboard="1"
     inkscape:deskcolor="#d1d1d1"
     inkscape:document-units="px"
     showborder="false"
     inkscape:zoom="1.08"
     inkscape:cx="396.75926"
     inkscape:cy="293.05556"
     inkscape:window-width="2880"
     inkscape:window-height="1514"
     inkscape:window-x="5749"
     inkscape:window-y="7"
     inkscape:window-maximized="1"
     inkscape:current-layer="layer1" /><defs
     id="defs1" /><g
     inkscape:label="Layer 1"
     inkscape:groupmode="layer"
     id="layer1"><g
       id="g9"><path
         d="M 79.372416,60.635059 V 101.45066 H 89.961951 V 60.635059 Z"
         style="baseline-shift:baseline;display:inline;overflow:visible;vector-effect:none;enable-background:accumulate;stop-color:#000000;stop-opacity:1"
         id="path9" /><path
         d="m 84.667184,37.020479 c -0.403793,0 -0.791532,0.0342 -1.16272,0.102837 -0.371188,0.06863 -0.725961,0.171772 -1.064535,0.309025 -0.338573,0.137252 -0.660917,0.308837 -0.966866,0.514697 -0.305949,0.20586 -0.595366,0.445914 -0.86868,0.720369 -0.273049,0.274769 -0.51198,0.565742 -0.716753,0.873332 -0.204772,0.30759 -0.375607,0.631618 -0.512113,0.972034 -0.136506,0.340415 -0.23871,0.69749 -0.306958,1.070735 -0.06825,0.373246 -0.102319,0.762841 -0.102319,1.168921 0,0.406094 0.03407,0.79567 0.102319,1.168921 0.06825,0.373251 0.170452,0.730321 0.306958,1.070736 0.136506,0.340414 0.307341,0.66445 0.512113,0.972034 0.204773,0.307583 0.443704,0.598572 0.716753,0.873331 0.273494,0.274769 0.563158,0.515339 0.869197,0.721403 0.306039,0.206064 0.628293,0.377847 0.966866,0.515214 0.338574,0.137368 0.693437,0.240346 1.064535,0.309025 0.371098,0.06868 0.75859,0.102836 1.162203,0.102836 0.403792,0 0.791029,-0.03416 1.162203,-0.102836 0.371173,-0.06868 0.726489,-0.171657 1.065051,-0.309025 0.338562,-0.137367 0.660392,-0.30915 0.966349,-0.515214 0.305958,-0.206064 0.595838,-0.446634 0.869198,-0.721403 0.273491,-0.274768 0.512688,-0.565743 0.717785,-0.873331 0.205098,-0.307589 0.375913,-0.631619 0.512631,-0.972034 0.136718,-0.340415 0.239639,-0.697489 0.307991,-1.070736 0.06835,-0.373246 0.102319,-0.762836 0.102319,-1.168921 0,-0.406093 -0.03397,-0.795668 -0.102319,-1.168921 -0.06835,-0.373252 -0.171273,-0.73032 -0.307991,-1.070735 -0.136718,-0.340416 -0.307533,-0.664451 -0.512631,-0.972034 -0.205097,-0.307583 -0.444294,-0.598577 -0.717785,-0.873332 -0.273049,-0.274455 -0.562362,-0.514509 -0.868164,-0.720369 -0.305802,-0.20586 -0.628304,-0.377445 -0.966866,-0.514697 -0.338562,-0.137253 -0.693206,-0.240393 -1.064535,-0.309025 -0.371329,-0.06863 -0.759133,-0.102837 -1.163236,-0.102837 z"
         style="baseline-shift:baseline;display:inline;overflow:visible;vector-effect:none;enable-background:accumulate;stop-color:#000000;stop-opacity:1"
         id="path8" /><path
         d="m 84.667184,10.946619 c -15.766555,0 -29.121123,5.500925 -40.063705,16.503385 -10.942401,11.002459 -16.413985,24.430301 -16.413985,40.283329 0,15.853011 5.471583,29.280872 16.413985,40.283327 10.942582,11.00247 24.297151,16.50339 40.063705,16.50339 15.766736,0 29.121306,-5.50092 40.063706,-16.50339 10.94258,-11.002455 16.41347,-24.430317 16.41347,-40.283327 0,-15.853028 -5.47089,-29.28087 -16.41347,-40.283329 -10.9424,-11.00246 -24.29697,-16.503385 -40.063706,-16.503385 z m 0,26.07386 c 1.616415,0 2.970606,0.549108 4.062801,1.646928 1.093966,1.099019 1.640726,2.460648 1.640726,4.085022 0,1.624338 -0.54676,2.98595 -1.640726,4.085022 -1.09344,1.099073 -2.447631,1.648478 -4.062801,1.648478 -1.614451,0 -2.968825,-0.549405 -4.062801,-1.648478 -1.092194,-1.099036 -1.638143,-2.460647 -1.638143,-4.085022 0,-1.62432 0.545949,-2.985949 1.638143,-4.085022 1.093258,-1.09782 2.447631,-1.646928 4.062801,-1.646928 z m -5.294768,23.61458 H 89.961951 V 101.45066 H 79.372416 Z"
         style="baseline-shift:baseline;display:inline;overflow:visible;vector-effect:none;fill:#ffff00;enable-background:accumulate;stop-color:#000000;stop-opacity:1"
         id="path7" /><path
         d="m 84.654265,0.29868978 c -9.275296,0 -17.992313,1.77041172 -26.150859,5.31130372 -8.158737,3.5420919 -15.255353,8.3484795 -21.290173,14.4187585 -6.03482,6.070296 -10.812522,13.208866 -14.332976,21.415747 -3.520462,8.206898 -5.280814,16.973982 -5.280814,26.301237 0,9.326056 1.761173,18.090664 5.282881,26.294002 3.522772,8.203362 8.302566,15.339052 14.339694,21.406962 6.037138,6.06791 13.137189,10.87181 21.299475,14.41152 8.162108,3.53972 16.881035,5.30976 26.157576,5.30976 9.275117,0 17.992141,-1.77041 26.150861,-5.31131 8.15856,-3.54209 15.25518,-8.34847 21.29017,-14.41875 6.03482,-6.07028 10.81252,-13.20885 14.33298,-21.415752 3.52028,-8.206897 5.28081,-16.974 5.28081,-26.301237 0,-9.326074 -1.76084,-18.090664 -5.28236,-26.294002 -3.52278,-8.20334 -8.30309,-15.339044 -14.34021,-21.406962 C 126.074,13.952048 118.97447,9.1481723 110.81236,5.6084432 102.65007,2.0687312 93.930621,0.29868978 84.654265,0.29868978 Z m 0.01292,10.64792922 c 15.766736,0 29.121306,5.500925 40.063706,16.503385 10.94258,11.002459 16.41347,24.430301 16.41347,40.283329 0,15.85301 -5.47089,29.280872 -16.41347,40.283327 -10.9424,11.00247 -24.29697,16.50339 -40.063706,16.50339 -15.766554,0 -29.121123,-5.50092 -40.063705,-16.50339 C 33.661077,97.014205 28.189494,83.586343 28.189494,67.733333 c 0,-15.853028 5.471584,-29.28087 16.413985,-40.283329 10.942582,-11.00246 24.29715,-16.503385 40.063705,-16.503385 z"
         style="baseline-shift:baseline;display:inline;overflow:visible;vector-effect:none;enable-background:accumulate;stop-color:#000000;stop-opacity:1"
         id="path6" /></g></g></svg>
