<?xml version="1.0" encoding="UTF-8" standalone="no"?>
<!-- Created with Inkscape (http://www.inkscape.org/) -->

<svg
   width="640"
   height="512"
   viewBox="0 0 169.33333 135.46667"
   version="1.1"
   id="svg1"
   inkscape:version="1.4 (86a8ad7, 2024-10-11)"
   sodipodi:docname="museum_passes.svg"
   xml:space="preserve"
   xmlns:inkscape="http://www.inkscape.org/namespaces/inkscape"
   xmlns:sodipodi="http://sodipodi.sourceforge.net/DTD/sodipodi-0.dtd"
   xmlns="http://www.w3.org/2000/svg"
   xmlns:svg="http://www.w3.org/2000/svg"><sodipodi:namedview
     id="namedview1"
     pagecolor="#ffffff"
     bordercolor="#111111"
     borderopacity="1"
     inkscape:showpageshadow="0"
     inkscape:pageopacity="0"
     inkscape:pagecheckerboard="1"
     inkscape:deskcolor="#d1d1d1"
     inkscape:document-units="px"
     showborder="false"
     inkscape:zoom="1.08"
     inkscape:cx="396.75926"
     inkscape:cy="293.05556"
     inkscape:window-width="2880"
     inkscape:window-height="1514"
     inkscape:window-x="5749"
     inkscape:window-y="7"
     inkscape:window-maximized="1"
     inkscape:current-layer="layer1" /><defs
     id="defs1" /><g
     inkscape:label="Layer 1"
     inkscape:groupmode="layer"
     id="layer1"><g
       inkscape:label="Layer 1"
       id="layer1-1"
       transform="matrix(0.77422408,0,0,0.78514245,19.115695,15.655449)"><path
         d="m 84.6646,96.021529 c -1.882467,0 -3.458604,0.645229 -4.728911,1.935283 -1.271779,1.290056 -1.907893,2.888958 -1.907893,4.796608 0,1.90615 0.636843,3.50339 1.909961,4.79195 1.273117,1.28712 2.849851,1.93064 4.730977,1.93064 1.882467,0 3.459121,-0.64523 4.729427,-1.93529 1.271779,-1.2887 1.907377,-2.88651 1.907377,-4.79402 0,-1.90751 -0.636328,-3.504748 -1.909444,-4.791955 -1.273119,-1.288699 -2.850368,-1.933216 -4.731494,-1.933216 z"
         style="stroke-width:0.222766"
         id="path6" /><path
         d="m 84.6646,61.006096 c -1.882467,0 -3.458604,0.645227 -4.728911,1.935282 -1.271779,1.290055 -1.907893,2.88787 -1.907893,4.794023 0,1.90751 0.636843,3.504771 1.909961,4.791955 1.273117,1.288699 2.849851,1.933215 4.730977,1.933215 1.882467,0 3.459121,-0.645227 4.729427,-1.935282 1.271779,-1.290055 1.907377,-2.887869 1.907377,-4.794023 0,-1.907509 -0.636328,-3.504771 -1.909444,-4.791955 -1.273119,-1.288699 -2.850368,-1.933215 -4.731494,-1.933215 z"
         style="stroke-width:0.222766"
         id="path5" /><path
         d="m 84.6646,25.990662 c -1.882467,0 -3.458604,0.645227 -4.728911,1.935282 -1.271779,1.288699 -1.907893,2.886514 -1.907893,4.794023 0,1.907509 0.636843,3.505265 1.909961,4.792472 1.273117,1.288699 2.849851,1.932699 4.730977,1.932699 1.882467,0 3.459121,-0.645227 4.729427,-1.935283 1.271779,-1.290054 1.907377,-2.888962 1.907377,-4.796606 0,-1.906154 -0.636328,-3.503392 -1.909444,-4.791956 -1.273119,-1.287116 -2.850368,-1.930631 -4.731494,-1.930631 z"
         style="stroke-width:0.222766"
         id="path4" /><path
         d="m 16.575216,13.914913 c -0.795141,0 -1.447996,0.258331 -1.958537,0.775663 -0.510541,0.517333 -0.765845,1.179173 -0.765845,1.984892 v 20.112467 c 5.45868,3.288894 9.774025,7.661501 12.94598,13.118063 3.171931,5.456585 4.757849,11.399051 4.757849,17.827335 0,6.428284 -1.585918,12.370774 -4.757849,17.827336 -3.171955,5.456562 -7.4873,9.829169 -12.94598,13.118063 V 118.7912 c 0,0.80572 0.255304,1.46704 0.765845,1.98437 0.510541,0.51734 1.163396,0.77618 1.958537,0.77618 H 152.75812 c 0.79514,0 1.448,-0.25884 1.95853,-0.77618 0.51054,-0.51733 0.76585,-1.17865 0.76585,-1.98437 V 98.678732 c -5.4587,-3.288894 -9.77403,-7.661501 -12.94598,-13.118063 -3.17193,-5.456562 -4.75785,-11.399052 -4.75785,-17.827336 0,-6.428284 1.58592,-12.37075 4.75785,-17.827335 3.17195,-5.456562 7.48728,-9.829169 12.94598,-13.118063 V 16.675468 c 0,-0.805719 -0.25531,-1.467559 -0.76585,-1.984892 -0.51053,-0.517332 -1.16339,-0.775663 -1.95853,-0.775663 z M 84.6646,25.990662 c 1.881126,0 3.458375,0.643515 4.731494,1.930631 1.273116,1.288564 1.909444,2.885802 1.909444,4.791956 0,1.907644 -0.635598,3.506552 -1.907377,4.796606 -1.270306,1.290056 -2.84696,1.935283 -4.729427,1.935283 -1.881126,0 -3.45786,-0.644 -4.730977,-1.932699 -1.273118,-1.287207 -1.909961,-2.884963 -1.909961,-4.792472 0,-1.907509 0.636114,-3.505324 1.907893,-4.794023 1.270307,-1.290055 2.846444,-1.935282 4.728911,-1.935282 z m 0,35.015434 c 1.881126,0 3.458375,0.644516 4.731494,1.933215 1.273116,1.287184 1.909444,2.884446 1.909444,4.791955 0,1.906154 -0.635598,3.503968 -1.907377,4.794023 -1.270306,1.290055 -2.84696,1.935282 -4.729427,1.935282 -1.881126,0 -3.45786,-0.644516 -4.730977,-1.933215 -1.273118,-1.287184 -1.909961,-2.884445 -1.909961,-4.791955 0,-1.906153 0.636114,-3.503968 1.907893,-4.794023 1.270307,-1.290055 2.846444,-1.935282 4.728911,-1.935282 z m 0,35.015433 c 1.881126,0 3.458375,0.644517 4.731494,1.933216 1.273116,1.287207 1.909444,2.884445 1.909444,4.791955 0,1.90751 -0.635598,3.50532 -1.907377,4.79402 -1.270306,1.29006 -2.84696,1.93529 -4.729427,1.93529 -1.881126,0 -3.45786,-0.64352 -4.730977,-1.93064 -1.273118,-1.28856 -1.909961,-2.8858 -1.909961,-4.79195 0,-1.90765 0.636114,-3.506552 1.907893,-4.796608 1.270307,-1.290054 2.846444,-1.935283 4.728911,-1.935283 z"
         style="fill:#ff2a2a;stroke-width:0.222766"
         id="path3" /><path
         d="m 16.575216,0.46043701 c -4.400887,0 -8.1680449,1.58775939 -11.3016361,4.76301679 C 2.1399888,8.3987339 0.57309164,12.216032 0.57309164,16.675468 v 29.494841 c 5.03969746,0.977711 9.25032936,3.482395 12.63178736,7.51427 3.381434,4.030381 5.072042,8.713264 5.072042,14.048754 0,5.335466 -1.690608,10.018373 -5.072042,14.048755 -3.381458,4.031874 -7.5920899,6.536558 -12.63178736,7.51427 V 118.7912 c 0,4.45943 1.56689716,8.27673 4.70048826,11.45201 3.1335912,3.17528 6.9007491,4.76302 11.3016361,4.76302 H 152.75812 c 4.40088,0 8.16803,-1.58774 11.30163,-4.76302 3.13358,-3.17528 4.70049,-6.99258 4.70049,-11.45201 V 89.296358 c -5.03972,-0.977688 -9.25036,-3.482373 -12.63179,-7.51427 -3.38143,-4.030382 -5.07204,-8.713289 -5.07204,-14.048755 0,-5.33549 1.69061,-10.018373 5.07204,-14.048754 3.38143,-4.031875 7.59207,-6.536559 12.63179,-7.51427 V 16.675468 c 0,-4.459436 -1.56691,-8.2767341 -4.70049,-11.4520142 -3.1336,-3.1752574 -6.90075,-4.76301679 -11.30163,-4.76301679 z m 0,13.45447599 H 152.75812 c 0.79514,0 1.448,0.258331 1.95853,0.775663 0.51054,0.517333 0.76585,1.179173 0.76585,1.984892 v 20.112467 c -5.4587,3.288894 -9.77403,7.661501 -12.94598,13.118063 -3.17193,5.456585 -4.75785,11.399051 -4.75785,17.827335 0,6.428284 1.58592,12.370774 4.75785,17.827336 3.17195,5.456562 7.48728,9.829169 12.94598,13.118063 V 118.7912 c 0,0.80572 -0.25531,1.46704 -0.76585,1.98437 -0.51053,0.51734 -1.16339,0.77618 -1.95853,0.77618 H 16.575216 c -0.795141,0 -1.447996,-0.25884 -1.958537,-0.77618 -0.510541,-0.51733 -0.765845,-1.17865 -0.765845,-1.98437 V 98.678732 c 5.45868,-3.288894 9.774025,-7.661501 12.94598,-13.118063 3.171931,-5.456562 4.757849,-11.399052 4.757849,-17.827336 0,-6.428284 -1.585918,-12.37075 -4.757849,-17.827335 -3.171955,-5.456562 -7.4873,-9.829169 -12.94598,-13.118063 V 16.675468 c 0,-0.805719 0.255304,-1.467559 0.765845,-1.984892 0.510541,-0.517332 1.163396,-0.775663 1.958537,-0.775663 z"
         style="stroke-width:0.222766"
         id="path2" /></g></g></svg>
