<?xml version="1.0" encoding="UTF-8" standalone="no"?>
<!-- Created with Inkscape (http://www.inkscape.org/) -->

<svg
   width="640"
   height="512"
   viewBox="0 0 169.33333 135.46667"
   version="1.1"
   id="svg1"
   inkscape:version="1.4 (86a8ad7, 2024-10-11)"
   sodipodi:docname="my_lists_2.svg"
   xml:space="preserve"
   xmlns:inkscape="http://www.inkscape.org/namespaces/inkscape"
   xmlns:sodipodi="http://sodipodi.sourceforge.net/DTD/sodipodi-0.dtd"
   xmlns="http://www.w3.org/2000/svg"
   xmlns:svg="http://www.w3.org/2000/svg"><sodipodi:namedview
     id="namedview1"
     pagecolor="#ffffff"
     bordercolor="#111111"
     borderopacity="1"
     inkscape:showpageshadow="0"
     inkscape:pageopacity="0"
     inkscape:pagecheckerboard="1"
     inkscape:deskcolor="#d1d1d1"
     inkscape:document-units="px"
     showborder="false"
     inkscape:zoom="1.08"
     inkscape:cx="396.2963"
     inkscape:cy="293.05556"
     inkscape:window-width="2880"
     inkscape:window-height="1514"
     inkscape:window-x="2869"
     inkscape:window-y="7"
     inkscape:window-maximized="1"
     inkscape:current-layer="layer1"
     showgrid="false" /><defs
     id="defs1" /><g
     inkscape:label="Layer 1"
     inkscape:groupmode="layer"
     id="layer1"><path
       d="m 74.918425,101.68372 v 5.23999 h 40.219255 v -5.23999 z"
       style="baseline-shift:baseline;display:inline;overflow:visible;vector-effect:none;enable-background:accumulate;stop-color:#000000;stop-opacity:1"
       id="path23" /><path
       d="m 60.02631,98.492696 c -0.411003,0 -0.807163,0.03583 -1.188558,0.106971 -0.381395,0.07114 -0.747887,0.177593 -1.099674,0.319877 -0.351787,0.142284 -0.689128,0.320395 -1.011308,0.533817 -0.322179,0.213423 -0.629335,0.462166 -0.921907,0.746729 -0.292732,0.28441 -0.548872,0.5834 -0.768429,0.89658 -0.219557,0.31319 -0.402426,0.64041 -0.548804,0.98237 -0.146377,0.34196 -0.256504,0.69844 -0.329695,1.06919 -0.07319,0.37075 -0.109554,0.75593 -0.109554,1.15548 0,0.39955 0.03636,0.78474 0.109554,1.15549 0.07319,0.37075 0.183318,0.72722 0.329695,1.06918 0.146378,0.34196 0.329247,0.66919 0.548804,0.98237 0.219557,0.31318 0.475697,0.61217 0.768429,0.89659 0.292572,0.28455 0.599728,0.5333 0.921907,0.74672 0.32218,0.21342 0.659521,0.39153 1.011308,0.53382 0.351787,0.14228 0.718279,0.24873 1.099674,0.31988 0.381395,0.0711 0.777555,0.10697 1.188558,0.10697 0.411004,0 0.807164,-0.0358 1.188558,-0.10697 0.381395,-0.0712 0.747888,-0.1776 1.099675,-0.31988 0.351787,-0.14229 0.689128,-0.3204 1.011308,-0.53382 0.322179,-0.21342 0.629334,-0.46217 0.921907,-0.74672 0.292709,-0.28442 0.548876,-0.58341 0.768429,-0.89659 0.219553,-0.31318 0.40242,-0.64041 0.548803,-0.98237 0.146383,-0.34196 0.256497,-0.69843 0.329696,-1.06918 0.0732,-0.37075 0.109554,-0.75594 0.109554,-1.15549 0,-0.39955 -0.03636,-0.78473 -0.109554,-1.15548 -0.0732,-0.37075 -0.183313,-0.72723 -0.329696,-1.06919 -0.146383,-0.34196 -0.32925,-0.66918 -0.548803,-0.98237 -0.219553,-0.31318 -0.47572,-0.61217 -0.768429,-0.89658 -0.292573,-0.284563 -0.599728,-0.533306 -0.921907,-0.746729 -0.32218,-0.213422 -0.659521,-0.391533 -1.011308,-0.533817 -0.351787,-0.142284 -0.71828,-0.248734 -1.099675,-0.319877 -0.381394,-0.07114 -0.777554,-0.106971 -1.188558,-0.106971 z"
       style="baseline-shift:baseline;display:inline;overflow:visible;vector-effect:none;enable-background:accumulate;stop-color:#000000;stop-opacity:1"
       id="path22" /><path
       d="m 74.918425,80.723755 v 5.23999 h 40.219255 v -5.23999 z"
       style="baseline-shift:baseline;display:inline;overflow:visible;vector-effect:none;enable-background:accumulate;stop-color:#000000;stop-opacity:1"
       id="path21" /><path
       d="m 60.02631,77.532735 c -0.411003,0 -0.807163,0.03583 -1.188558,0.106971 -0.381395,0.07114 -0.747887,0.177593 -1.099674,0.319877 -0.351787,0.142283 -0.689128,0.320395 -1.011308,0.533817 -0.322179,0.213423 -0.629335,0.462165 -0.921907,0.746725 -0.292732,0.284414 -0.548872,0.583402 -0.768429,0.896586 -0.219557,0.313184 -0.402426,0.640406 -0.548804,0.982369 -0.146377,0.341962 -0.256504,0.698434 -0.329695,1.069185 -0.07319,0.370751 -0.109554,0.755937 -0.109554,1.155485 0,0.399551 0.03636,0.784733 0.109554,1.155485 0.07319,0.370752 0.183318,0.727223 0.329695,1.069186 0.146378,0.341962 0.329247,0.669186 0.548804,0.982369 0.219557,0.313182 0.475697,0.612174 0.768429,0.896586 0.292572,0.284561 0.599728,0.533301 0.921907,0.746724 0.32218,0.213423 0.659521,0.391534 1.011308,0.533818 0.351787,0.142283 0.718279,0.248735 1.099674,0.319877 0.381395,0.07114 0.777555,0.10697 1.188558,0.10697 0.411004,0 0.807164,-0.03583 1.188558,-0.10697 0.381395,-0.07114 0.747888,-0.177594 1.099675,-0.319877 0.351787,-0.142284 0.689128,-0.320395 1.011308,-0.533818 0.322179,-0.213423 0.629334,-0.462163 0.921907,-0.746724 0.292709,-0.284412 0.548876,-0.583404 0.768429,-0.896586 0.219553,-0.313183 0.40242,-0.640407 0.548803,-0.982369 0.146383,-0.341963 0.256497,-0.698434 0.329696,-1.069186 0.0732,-0.370752 0.109554,-0.755934 0.109554,-1.155485 0,-0.399548 -0.03636,-0.784734 -0.109554,-1.155485 -0.0732,-0.370751 -0.183313,-0.727223 -0.329696,-1.069185 -0.146383,-0.341963 -0.32925,-0.669185 -0.548803,-0.982369 -0.219553,-0.313184 -0.47572,-0.612172 -0.768429,-0.896586 -0.292573,-0.28456 -0.599728,-0.533302 -0.921907,-0.746725 -0.32218,-0.213422 -0.659521,-0.391534 -1.011308,-0.533817 -0.351787,-0.142284 -0.71828,-0.248735 -1.099675,-0.319877 -0.381394,-0.07114 -0.777554,-0.106971 -1.188558,-0.106971 z"
       style="baseline-shift:baseline;display:inline;overflow:visible;vector-effect:none;enable-background:accumulate;stop-color:#000000;stop-opacity:1"
       id="path20" /><path
       d="m 74.918425,59.763794 v 5.23999 h 40.219255 v -5.23999 z"
       style="baseline-shift:baseline;display:inline;overflow:visible;vector-effect:none;enable-background:accumulate;stop-color:#000000;stop-opacity:1"
       id="path19" /><path
       d="m 60.02631,56.572774 c -0.411003,0 -0.807163,0.03583 -1.188558,0.106971 -0.381395,0.07114 -0.747887,0.177593 -1.099674,0.319877 -0.351787,0.142283 -0.689128,0.320395 -1.011308,0.533817 -0.322179,0.213423 -0.629335,0.462165 -0.921907,0.746725 -0.292732,0.284415 -0.548872,0.583401 -0.768429,0.896586 -0.219557,0.313184 -0.402426,0.640406 -0.548804,0.982369 -0.146377,0.341962 -0.256504,0.698435 -0.329695,1.069185 -0.07319,0.37075 -0.109554,0.755938 -0.109554,1.155485 0,0.399551 0.03636,0.784734 0.109554,1.155485 0.07319,0.370752 0.183318,0.727223 0.329695,1.069186 0.146378,0.341962 0.329247,0.669186 0.548804,0.982369 0.219557,0.313182 0.475697,0.612173 0.768429,0.896586 0.292572,0.284562 0.599728,0.533301 0.921907,0.746724 0.32218,0.213423 0.659521,0.391535 1.011308,0.533818 0.351787,0.142283 0.718279,0.248735 1.099674,0.319877 0.381395,0.07114 0.777555,0.10697 1.188558,0.10697 0.411004,0 0.807164,-0.03583 1.188558,-0.10697 0.381395,-0.07114 0.747888,-0.177594 1.099675,-0.319877 0.351787,-0.142283 0.689128,-0.320395 1.011308,-0.533818 0.322179,-0.213423 0.629334,-0.462162 0.921907,-0.746724 0.292709,-0.284413 0.548876,-0.583404 0.768429,-0.896586 0.219553,-0.313183 0.40242,-0.640407 0.548803,-0.982369 0.146383,-0.341963 0.256497,-0.698434 0.329696,-1.069186 0.0732,-0.370751 0.109554,-0.755934 0.109554,-1.155485 0,-0.399547 -0.03636,-0.784735 -0.109554,-1.155485 -0.0732,-0.37075 -0.183313,-0.727223 -0.329696,-1.069185 -0.146383,-0.341963 -0.32925,-0.669185 -0.548803,-0.982369 -0.219553,-0.313185 -0.47572,-0.612171 -0.768429,-0.896586 -0.292573,-0.28456 -0.599728,-0.533302 -0.921907,-0.746725 -0.32218,-0.213422 -0.659521,-0.391534 -1.011308,-0.533817 -0.351787,-0.142284 -0.71828,-0.248735 -1.099675,-0.319877 -0.381394,-0.07114 -0.777554,-0.106971 -1.188558,-0.106971 z"
       style="baseline-shift:baseline;display:inline;overflow:visible;vector-effect:none;enable-background:accumulate;stop-color:#000000;stop-opacity:1"
       id="path18" /><path
       d="m 40.558248,23.358264 c -0.254089,0 -0.497234,0.05798 -0.729671,0.173633 -0.232437,0.115658 -0.454165,0.288998 -0.665076,0.520382 -0.21174,0.230747 -0.370616,0.473325 -0.476457,0.727604 -0.10584,0.254279 -0.158646,0.520259 -0.158646,0.797884 v 96.513493 c 0,0.27762 0.05281,0.5436 0.158646,0.79788 0.105841,0.25428 0.264717,0.49686 0.476457,0.7276 0.210911,0.23139 0.432639,0.40473 0.665076,0.52039 0.232437,0.11565 0.475582,0.17362 0.729671,0.17363 h 88.216842 c 0.25408,0 0.49723,-0.058 0.72967,-0.17363 0.23243,-0.11566 0.45416,-0.289 0.66507,-0.52039 0.21174,-0.23074 0.37062,-0.47332 0.47646,-0.7276 0.10584,-0.25428 0.15865,-0.52026 0.15865,-0.79788 V 25.577767 c 0,-0.277625 -0.0528,-0.543605 -0.15865,-0.797884 -0.10584,-0.254279 -0.26472,-0.496857 -0.47646,-0.727604 -0.21091,-0.231384 -0.43264,-0.404724 -0.66507,-0.520382 -0.23244,-0.115658 -0.47559,-0.173633 -0.72967,-0.173633 H 114.32584 V 42.216545 H 55.007495 V 23.358264 Z m 19.468062,33.21451 c 1.644013,0 3.051155,0.569151 4.221448,1.70739 1.170835,1.137662 1.756482,2.505438 1.756482,4.103625 0,1.598203 -0.585647,2.965974 -1.756482,4.103626 -1.170293,1.138248 -2.577435,1.707389 -4.221448,1.707389 -1.644013,0 -3.051157,-0.569141 -4.221447,-1.707389 -1.170927,-1.137652 -1.756482,-2.505423 -1.756482,-4.103626 0,-1.598187 0.585555,-2.965963 1.756482,-4.103625 1.17029,-1.138239 2.577434,-1.70739 4.221447,-1.70739 z m 14.892115,3.19102 h 40.219255 v 5.23999 H 74.918425 Z M 60.02631,77.532735 c 1.644013,0 3.051155,0.569151 4.221448,1.70739 1.170835,1.137656 1.756482,2.505433 1.756482,4.103625 0,1.598204 -0.585647,2.965978 -1.756482,4.103626 -1.170293,1.138247 -2.577435,1.707389 -4.221448,1.707389 -1.644013,0 -3.051157,-0.569142 -4.221447,-1.707389 -1.170927,-1.137648 -1.756482,-2.505422 -1.756482,-4.103626 0,-1.598192 0.585555,-2.965969 1.756482,-4.103625 1.17029,-1.138239 2.577434,-1.70739 4.221447,-1.70739 z m 14.892115,3.19102 h 40.219255 v 5.23999 H 74.918425 Z M 60.02631,98.492696 c 1.644013,0 3.051155,0.569154 4.221448,1.707394 1.170835,1.13766 1.756482,2.50543 1.756482,4.10362 0,1.5982 -0.585647,2.96597 -1.756482,4.10363 -1.170293,1.13823 -2.577435,1.70739 -4.221448,1.70739 -1.644013,0 -3.051157,-0.56916 -4.221447,-1.70739 -1.170927,-1.13766 -1.756482,-2.50543 -1.756482,-4.10363 0,-1.59819 0.585555,-2.96596 1.756482,-4.10362 1.17029,-1.13824 2.577434,-1.707394 4.221447,-1.707394 z m 14.892115,3.191024 h 40.219255 v 5.23999 H 74.918425 Z"
       style="baseline-shift:baseline;display:inline;overflow:visible;vector-effect:none;fill:#ffeeaa;enable-background:accumulate;stop-color:#000000;stop-opacity:1"
       id="path17" /><path
       d="m 84.666667,11.155908 c -0.424561,0 -0.831615,0.03862 -1.221114,0.116272 -0.389499,0.07766 -0.761271,0.194527 -1.115694,0.34985 -0.354424,0.155323 -0.691457,0.349391 -1.010791,0.582393 -0.319335,0.233002 -0.621141,0.504762 -0.905372,0.815454 -0.283981,0.310965 -0.532715,0.641276 -0.74569,0.990637 -0.212976,0.349361 -0.390292,0.717609 -0.532268,1.105359 -0.141976,0.38775 -0.248376,0.794982 -0.31936,1.221114 -0.07098,0.426133 -0.106453,0.871329 -0.106453,1.335836 0,0.464499 0.03547,0.909707 0.106453,1.335836 0.07098,0.426129 0.177384,0.833363 0.31936,1.221114 0.141976,0.387751 0.319292,0.755994 0.532268,1.105359 0.212975,0.349364 0.461709,0.679668 0.74569,0.990637 0.284397,0.310965 0.586471,0.583289 0.905888,0.816488 0.319418,0.233198 0.656368,0.427461 1.010791,0.58291 0.354424,0.155449 0.726279,0.271617 1.115695,0.349333 0.389415,0.07772 0.796203,0.116788 1.220597,0.116788 0.424561,0 0.831615,-0.03907 1.221114,-0.116788 0.389499,-0.07772 0.761271,-0.193884 1.115694,-0.349333 0.354424,-0.155449 0.691457,-0.349712 1.010791,-0.58291 0.319334,-0.233199 0.621141,-0.505523 0.905371,-0.816488 0.283982,-0.310965 0.532716,-0.641275 0.745691,-0.990637 0.212975,-0.349363 0.390291,-0.717608 0.532267,-1.105359 0.141977,-0.387751 0.248376,-0.794983 0.319361,-1.221114 0.07098,-0.426132 0.106453,-0.871333 0.106453,-1.335836 0,-0.464503 -0.03547,-0.909706 -0.106453,-1.335836 -0.07098,-0.42613 -0.177384,-0.833364 -0.319361,-1.221114 -0.141976,-0.38775 -0.319292,-0.755995 -0.532267,-1.105359 -0.212975,-0.349363 -0.461709,-0.679668 -0.745691,-0.990637 -0.284396,-0.310692 -0.586471,-0.582452 -0.905888,-0.815454 -0.319417,-0.233002 -0.656367,-0.42707 -1.010791,-0.582393 -0.354423,-0.155323 -0.726278,-0.272194 -1.115694,-0.34985 -0.389416,-0.07766 -0.796202,-0.116272 -1.220597,-0.116272 z"
       style="baseline-shift:baseline;display:inline;overflow:visible;vector-effect:none;fill:#f9f9f9;enable-background:accumulate;stop-color:#000000;stop-opacity:1"
       id="path16" /><path
       d="m 84.666667,0.33951416 c -3.498619,0 -6.65663,1.15537764 -9.474357,3.46645504 -2.817064,2.3110956 -4.682652,5.223524 -5.596041,8.7364178 H 40.558248 c -3.286713,0 -6.094444,1.273282 -8.423259,3.819922 -2.327651,2.547838 -3.491259,5.619641 -3.491259,9.215458 v 96.514003 c 0,3.59582 1.163608,6.66762 3.491259,9.21546 2.328815,2.54666 5.136546,3.81992 8.423259,3.81992 h 88.216842 c 3.28671,0 6.09409,-1.27326 8.42274,-3.81992 2.32782,-2.54784 3.49177,-5.61964 3.49177,-9.21546 V 25.577767 c 0,-3.595817 -1.16395,-6.66762 -3.49177,-9.215458 -2.32865,-2.54664 -5.13603,-3.819922 -8.42274,-3.819922 H 99.838867 C 98.925975,9.0294932 97.077115,6.1170648 94.292436,3.8059692 91.508919,1.4948918 88.300468,0.33951416 84.666667,0.33951416 Z m 0,10.81639384 c 1.697579,0 3.115384,0.6212 4.25297,1.863969 1.135926,1.243877 1.703772,2.794935 1.703772,4.652946 0,1.858012 -0.567846,3.409086 -1.703772,4.652946 -1.136922,1.243859 -2.554727,1.865519 -4.25297,1.865519 -1.697577,0 -3.115383,-0.62166 -4.252971,-1.865519 -1.135926,-1.243877 -1.703771,-2.794951 -1.703771,-4.652946 0,-1.858029 0.567845,-3.409087 1.703771,-4.652946 1.136923,-1.242769 2.554729,-1.863969 4.252971,-1.863969 z M 40.558248,23.358264 H 55.007495 V 42.216545 H 114.32584 V 23.358264 h 14.44925 c 0.50817,0 0.97292,0.231247 1.39474,0.694015 0.42348,0.461495 0.63511,0.970239 0.63511,1.525488 v 96.513493 c 0,0.55524 -0.21163,1.06399 -0.63511,1.52548 -0.42182,0.46277 -0.88657,0.69402 -1.39474,0.69402 H 40.558248 c -0.508177,-1e-5 -0.972926,-0.23124 -1.394747,-0.69402 -0.423481,-0.46149 -0.635103,-0.97024 -0.635103,-1.52548 V 25.577767 c 0,-0.555249 0.211622,-1.063993 0.635103,-1.525488 0.421821,-0.462768 0.88657,-0.694015 1.394747,-0.694015 z"
       style="baseline-shift:baseline;display:inline;overflow:visible;vector-effect:none;enable-background:accumulate;stop-color:#000000;stop-opacity:1"
       id="path15" /></g></svg>
