<?xml version="1.0" encoding="UTF-8" standalone="no"?>
<!-- Created with Inkscape (http://www.inkscape.org/) -->

<svg
   width="640"
   height="512"
   viewBox="0 0 169.33333 135.46667"
   version="1.1"
   id="svg1"
   inkscape:version="1.4 (86a8ad7, 2024-10-11)"
   sodipodi:docname="search_catalog.svg"
   xml:space="preserve"
   xmlns:inkscape="http://www.inkscape.org/namespaces/inkscape"
   xmlns:sodipodi="http://sodipodi.sourceforge.net/DTD/sodipodi-0.dtd"
   xmlns="http://www.w3.org/2000/svg"
   xmlns:svg="http://www.w3.org/2000/svg"><sodipodi:namedview
     id="namedview1"
     pagecolor="#ffffff"
     bordercolor="#111111"
     borderopacity="1"
     inkscape:showpageshadow="0"
     inkscape:pageopacity="0"
     inkscape:pagecheckerboard="1"
     inkscape:deskcolor="#d1d1d1"
     inkscape:document-units="px"
     showborder="false"
     inkscape:zoom="1.08"
     inkscape:cx="396.75926"
     inkscape:cy="293.05556"
     inkscape:window-width="2880"
     inkscape:window-height="1514"
     inkscape:window-x="5749"
     inkscape:window-y="7"
     inkscape:window-maximized="1"
     inkscape:current-layer="layer1" /><defs
     id="defs1" /><g
     inkscape:label="Layer 1"
     inkscape:groupmode="layer"
     id="layer1"><g
       id="g3"
       transform="translate(1.6706979)"><path
         d="m 63.285543,12.308809 c -10.237585,0 -18.908555,3.488863 -26.012883,10.467062 -7.105731,6.976879 -10.658781,15.49251 -10.658781,25.546244 0,10.053752 3.55305,18.568846 10.658781,25.545728 7.104328,6.978197 15.775298,10.467578 26.012883,10.467578 10.237385,0 18.908036,-3.489381 26.012366,-10.467578 C 96.403639,66.890961 99.95669,58.375867 99.95669,48.322115 99.95669,38.268381 96.403639,29.75275 89.297909,22.775871 82.193579,15.797672 73.522928,12.308809 63.285543,12.308809 Z"
         style="fill:#00ffff;fill-opacity:1;stroke-width:0.196841"
         id="path3" /><path
         d="m 63.273657,0.60668132 c -13.577042,0 -25.067076,4.62096138 -34.470247,13.86323668 -9.403372,9.243553 -14.105082,20.531403 -14.105082,33.863566 0,13.333459 4.702725,24.617728 14.108699,33.852197 9.405774,9.234472 20.898672,13.851351 34.478516,13.851351 5.520585,0 10.863009,-0.91004 16.027445,-2.730582 5.164437,-1.82062 9.733149,-4.341648 13.705624,-7.562846 l 49.902378,49.008896 8.37262,-8.22431 -49.90187,-49.006823 c 3.1777,-3.750472 5.719,-8.161561 7.62486,-13.233301 1.90386,-5.071742 2.85616,-10.393541 2.85616,-15.965951 0,-13.336054 -4.70579,-24.622883 -14.11697,-33.859949 C 88.343411,5.2251012 76.849498,0.60668132 63.273657,0.60668132 Z m 0.01189,11.70212768 c 10.237385,0 18.908036,3.488863 26.012366,10.467062 7.10573,6.976879 10.658781,15.49251 10.658781,25.546244 0,10.053752 -3.553051,18.568846 -10.658781,25.545728 -7.10433,6.978197 -15.774981,10.467578 -26.012366,10.467578 -10.237585,0 -18.908555,-3.489381 -26.012883,-10.467578 -7.105731,-6.976882 -10.658781,-15.491976 -10.658781,-25.545728 0,-10.053734 3.55305,-18.569365 10.658781,-25.546244 7.104328,-6.978199 15.775298,-10.467062 26.012883,-10.467062 z"
         style="fill:#000000;fill-opacity:1;stroke-width:0.196841"
         id="path2" /></g></g></svg>
